<svg width="720" height="596" viewBox="0 0 720 596" fill="none" xmlns="http://www.w3.org/2000/svg">
<path d="M183.572 40.8711L77.5625 131.562C112.009 170.183 161.375 192.322 213.268 192.26L221.454 192.251L222.724 184.171C230.769 132.956 216.47 80.8175 183.572 40.8711Z" fill="white"/>
<path d="M416.065 409.742L407.879 409.752L406.609 417.832C398.563 469.047 412.863 521.185 445.76 561.132L551.77 470.441C517.324 431.82 467.957 409.681 416.065 409.742Z" fill="white"/>
<path d="M367.707 255.625C333.177 215.341 282.724 192.18 229.637 192.242L221.45 192.252L220.181 200.332C211.949 252.727 227.093 306.096 261.623 346.38C296.152 386.665 346.606 409.826 399.693 409.763L407.88 409.753L409.149 401.674C417.381 349.279 402.237 295.91 367.707 255.625Z" fill="white"/>
<path d="M463.415 583.257C463.004 583.257 462.595 583.084 462.307 582.748L446.946 564.827C438.334 554.779 430.805 543.775 424.568 532.119C418.401 520.594 413.464 508.372 409.895 495.794C406.326 483.216 404.108 470.224 403.303 457.18C402.49 443.988 403.118 430.673 405.171 417.606L407.71 401.446C415.887 349.395 400.903 296.59 366.601 256.571C332.346 216.607 282.51 193.696 229.854 193.696C229.78 193.696 229.713 193.696 229.639 193.697L213.265 193.716C200.028 193.73 186.76 192.303 173.837 189.47C161.06 186.669 148.552 182.481 136.661 177.022C124.77 171.563 113.442 164.809 102.992 156.948C92.4234 148.997 82.6982 139.871 74.0862 129.824L58.7256 111.903C58.2018 111.292 58.2731 110.373 58.8846 109.85C59.4961 109.327 60.4163 109.398 60.9398 110.009L76.3007 127.93C110.555 167.893 160.391 190.804 213.047 190.804C213.121 190.804 213.188 190.804 213.262 190.804L229.636 190.784C229.707 190.784 229.78 190.784 229.851 190.784C243.021 190.784 256.211 192.212 269.064 195.03C281.841 197.831 294.349 202.02 306.24 207.479C318.131 212.937 329.459 219.691 339.909 227.553C350.478 235.504 360.203 244.629 368.815 254.676C377.427 264.724 384.956 275.728 391.193 287.384C397.361 298.909 402.297 311.131 405.866 323.709C409.436 336.288 411.653 349.279 412.458 362.323C413.271 375.515 412.643 388.83 410.59 401.897L408.051 418.057C399.874 470.108 414.858 522.913 449.161 562.932L464.521 580.853C465.045 581.464 464.974 582.384 464.362 582.907C464.087 583.142 463.75 583.257 463.415 583.257Z" fill="#262525"/>
<path d="M569.508 492.499C569.098 492.499 568.689 492.326 568.401 491.99L553.04 474.069C518.786 434.106 468.95 411.195 416.293 411.195C416.219 411.195 416.152 411.195 416.078 411.195L399.705 411.215C399.634 411.215 399.561 411.215 399.49 411.215C386.321 411.215 373.13 409.786 360.277 406.969C347.5 404.167 334.992 399.979 323.1 394.52C311.209 389.061 299.881 382.307 289.431 374.446C278.863 366.495 269.138 357.37 260.526 347.322C251.914 337.275 244.385 326.271 238.147 314.615C231.98 303.09 227.043 290.868 223.474 278.29C219.905 265.711 217.687 252.72 216.883 239.676C216.069 226.484 216.698 213.169 218.751 200.101L221.289 183.942C229.466 131.891 214.483 79.0861 180.18 39.0664L164.819 21.1455C164.296 20.5347 164.367 19.6153 164.978 19.0923C165.59 18.5692 166.51 18.6405 167.033 19.2512L182.394 37.1721C191.006 47.2193 198.535 58.2237 204.773 69.8797C210.94 81.4049 215.877 93.6263 219.446 106.205C223.015 118.783 225.233 131.775 226.037 144.819C226.851 158.011 226.222 171.326 224.169 184.393L221.631 200.553C213.454 252.603 228.437 305.408 262.74 345.428C296.994 385.392 346.83 408.302 399.487 408.302C399.561 408.302 399.628 408.302 399.702 408.302L416.075 408.283C429.322 408.272 442.581 409.696 455.503 412.528C468.28 415.33 480.788 419.518 492.68 424.977C504.571 430.436 515.899 437.189 526.349 445.051C536.917 453.002 546.642 462.127 555.254 472.175L570.615 490.095C571.139 490.706 571.067 491.626 570.456 492.149C570.181 492.384 569.844 492.499 569.508 492.499Z" fill="#262525"/>
<path d="M77.552 133.022C77.1411 133.022 76.7325 132.85 76.4442 132.513C75.9206 131.902 75.9919 130.983 76.6033 130.46L182.628 39.7564C183.239 39.2333 184.159 39.3045 184.683 39.9153C185.206 40.5261 185.135 41.4454 184.524 41.9685L78.4994 132.672C78.2246 132.907 77.8874 133.022 77.552 133.022Z" fill="#262525"/>
<path d="M95.5833 149.97C95.1723 149.97 94.7638 149.797 94.4755 149.461C93.9519 148.85 94.0231 147.931 94.6345 147.407L196.995 59.8384C197.606 59.3153 198.527 59.3865 199.05 59.9973C199.574 60.6082 199.502 61.5275 198.891 62.0505L96.5307 149.62C96.2559 149.855 95.9187 149.97 95.5833 149.97Z" fill="#262525"/>
<path d="M115.505 165.302C115.094 165.302 114.686 165.13 114.397 164.793C113.874 164.182 113.945 163.263 114.556 162.74L208.712 82.19C209.324 81.6669 210.244 81.7381 210.767 82.3489C211.291 82.9597 211.22 83.879 210.608 84.4021L116.453 164.952C116.178 165.187 115.841 165.302 115.505 165.302Z" fill="#262525"/>
<path d="M138.716 177.813C138.305 177.813 137.897 177.64 137.608 177.304C137.085 176.693 137.156 175.774 137.767 175.25L217.507 107.034C218.118 106.511 219.038 106.582 219.562 107.193C220.086 107.803 220.014 108.723 219.403 109.246L139.663 177.463C139.389 177.698 139.052 177.813 138.716 177.813Z" fill="#262525"/>
<path d="M166.443 186.467C166.032 186.467 165.623 186.295 165.335 185.958C164.811 185.347 164.882 184.428 165.494 183.905L222.844 134.842C223.455 134.319 224.376 134.39 224.899 135.001C225.423 135.612 225.351 136.531 224.74 137.054L167.39 186.117C167.115 186.352 166.778 186.467 166.443 186.467Z" fill="#262525"/>
<path d="M218.232 239.282C217.821 239.282 217.412 239.109 217.124 238.773C216.6 238.162 216.672 237.243 217.283 236.72L266.074 194.979C266.685 194.456 267.606 194.527 268.129 195.138C268.653 195.749 268.581 196.668 267.97 197.191L219.179 238.932C218.904 239.167 218.567 239.282 218.232 239.282Z" fill="#262525"/>
<path d="M222.115 268.327C221.704 268.327 221.295 268.155 221.007 267.818C220.483 267.208 220.554 266.288 221.166 265.765L294.21 203.276C294.822 202.753 295.742 202.824 296.266 203.435C296.789 204.046 296.718 204.965 296.106 205.488L223.062 267.977C222.787 268.212 222.45 268.327 222.115 268.327Z" fill="#262525"/>
<path d="M229.771 294.153C229.36 294.153 228.951 293.98 228.663 293.644C228.139 293.033 228.211 292.113 228.822 291.59L318.575 214.807C319.186 214.284 320.107 214.355 320.63 214.966C321.154 215.577 321.082 216.496 320.471 217.019L230.718 293.803C230.443 294.038 230.106 294.153 229.771 294.153Z" fill="#262525"/>
<path d="M240.958 316.961C240.547 316.961 240.139 316.788 239.85 316.452C239.327 315.841 239.398 314.922 240.01 314.398L339.871 228.967C340.482 228.444 341.402 228.515 341.926 229.126C342.45 229.737 342.378 230.656 341.767 231.179L241.906 316.611C241.631 316.846 241.294 316.961 240.958 316.961Z" fill="#262525"/>
<path d="M253.943 338.226C253.532 338.226 253.123 338.053 252.835 337.717C252.311 337.106 252.382 336.187 252.994 335.664L358.288 245.585C358.9 245.061 359.82 245.133 360.343 245.743C360.867 246.354 360.796 247.274 360.184 247.797L254.89 337.876C254.615 338.111 254.278 338.226 253.943 338.226Z" fill="#262525"/>
<path d="M269.95 356.902C269.539 356.902 269.131 356.729 268.843 356.393C268.319 355.782 268.39 354.863 269.002 354.339L374.296 264.26C374.907 263.737 375.828 263.808 376.351 264.419C376.875 265.03 376.804 265.949 376.192 266.472L270.898 356.551C270.623 356.787 270.286 356.902 269.95 356.902Z" fill="#262525"/>
<path d="M288.982 372.992C288.571 372.992 288.162 372.819 287.874 372.483C287.35 371.872 287.422 370.953 288.033 370.43L387.894 284.999C388.506 284.476 389.426 284.547 389.95 285.157C390.473 285.768 390.402 286.688 389.791 287.211L289.929 372.642C289.654 372.877 289.317 372.992 288.982 372.992Z" fill="#262525"/>
<path d="M310.232 387.177C309.821 387.177 309.412 387.004 309.124 386.668C308.6 386.057 308.672 385.138 309.283 384.615L398.612 308.194C399.223 307.671 400.144 307.742 400.667 308.353C401.191 308.964 401.12 309.883 400.508 310.406L311.179 386.827C310.904 387.062 310.567 387.177 310.232 387.177Z" fill="#262525"/>
<path d="M334.661 398.651C334.25 398.651 333.842 398.478 333.554 398.142C333.03 397.531 333.101 396.612 333.713 396.089L406.272 334.014C406.883 333.491 407.804 333.562 408.327 334.173C408.851 334.784 408.78 335.703 408.168 336.226L335.609 398.301C335.334 398.536 334.997 398.651 334.661 398.651Z" fill="#262525"/>
<path d="M362.982 406.802C362.571 406.802 362.162 406.63 361.874 406.293C361.35 405.682 361.421 404.763 362.033 404.24L409.784 363.389C410.395 362.866 411.315 362.937 411.839 363.548C412.363 364.159 412.291 365.078 411.68 365.601L363.929 406.452C363.654 406.687 363.317 406.802 362.982 406.802Z" fill="#262525"/>
<path d="M405.536 467.512C405.125 467.512 404.717 467.339 404.429 467.003C403.905 466.392 403.976 465.473 404.588 464.95L462.98 414.995C463.592 414.472 464.512 414.543 465.036 415.154C465.559 415.765 465.488 416.684 464.876 417.207L406.484 467.162C406.209 467.397 405.872 467.512 405.536 467.512Z" fill="#262525"/>
<path d="M411.153 495.076C410.743 495.076 410.334 494.904 410.046 494.567C409.522 493.956 409.593 493.037 410.205 492.514L489.663 424.538C490.275 424.015 491.195 424.086 491.718 424.697C492.242 425.307 492.171 426.227 491.559 426.75L412.101 494.726C411.826 494.961 411.489 495.076 411.153 495.076Z" fill="#262525"/>
<path d="M419.669 520.163C419.258 520.163 418.85 519.991 418.561 519.654C418.038 519.043 418.109 518.124 418.721 517.601L512.878 437.049C513.489 436.526 514.41 436.597 514.933 437.208C515.457 437.819 515.386 438.739 514.774 439.262L420.617 519.813C420.342 520.048 420.005 520.163 419.669 520.163Z" fill="#262525"/>
<path d="M431.388 542.509C430.977 542.509 430.568 542.336 430.28 542C429.757 541.389 429.828 540.47 430.439 539.946L533.179 452.053C533.79 451.53 534.71 451.601 535.234 452.212C535.757 452.823 535.686 453.742 535.075 454.266L432.335 542.159C432.06 542.394 431.723 542.509 431.388 542.509Z" fill="#262525"/>
<path d="M445.833 562.532C445.422 562.532 445.014 562.36 444.726 562.023C444.202 561.412 444.273 560.493 444.885 559.97L550.866 469.303C551.477 468.78 552.397 468.851 552.921 469.462C553.445 470.073 553.374 470.992 552.762 471.515L446.781 562.182C446.506 562.417 446.169 562.532 445.833 562.532Z" fill="#262525"/>
<path d="M77.5523 137.613C80.8949 137.613 83.6046 134.905 83.6046 131.566C83.6046 128.227 80.8949 125.52 77.5523 125.52C74.2097 125.52 71.5 128.227 71.5 131.566C71.5 134.905 74.2097 137.613 77.5523 137.613Z" fill="white"/>
<path d="M77.5511 137.91C76.8175 137.91 76.0823 137.781 75.3727 137.522C72.0866 136.325 70.3888 132.679 71.5878 129.396C72.7868 126.113 76.4356 124.417 79.7218 125.615C83.0079 126.813 84.7057 130.458 83.5067 133.741C82.926 135.332 81.7599 136.601 80.2236 137.315C79.3721 137.711 78.4631 137.91 77.5511 137.91ZM77.5439 125.81C76.7155 125.81 75.8902 125.991 75.1169 126.351C73.7218 126.999 72.663 128.152 72.1355 129.596C71.0467 132.577 72.5885 135.888 75.5725 136.975C77.018 137.502 78.5824 137.435 79.9775 136.787C81.3725 136.138 82.4314 134.986 82.9589 133.542C84.0477 130.561 82.5059 127.25 79.5219 126.162C78.8778 125.927 78.2099 125.81 77.5439 125.81Z" fill="#262525"/>
<path d="M224.857 169.351C228.2 169.351 230.909 166.644 230.909 163.304C230.909 159.965 228.2 157.258 224.857 157.258C221.514 157.258 218.805 159.965 218.805 163.304C218.805 166.644 221.514 169.351 224.857 169.351Z" fill="white"/>
<path d="M224.846 169.64C224.125 169.64 223.393 169.517 222.677 169.256C219.391 168.058 217.693 164.412 218.893 161.13C219.473 159.539 220.639 158.27 222.176 157.556C223.712 156.842 225.435 156.768 227.027 157.348C230.313 158.546 232.01 162.192 230.811 165.475C229.873 168.043 227.436 169.64 224.846 169.64ZM224.849 157.544C224.02 157.544 223.195 157.724 222.422 158.084C221.026 158.733 219.968 159.885 219.44 161.329C218.351 164.31 219.893 167.621 222.877 168.709C225.861 169.796 229.175 168.256 230.264 165.275C230.791 163.831 230.724 162.268 230.075 160.874C229.426 159.48 228.272 158.423 226.827 157.896C226.183 157.661 225.515 157.544 224.849 157.544Z" fill="#262525"/>
<path d="M95.0289 154.96C98.3715 154.96 101.081 152.253 101.081 148.914C101.081 145.574 98.3715 142.867 95.0289 142.867C91.6863 142.867 88.9766 145.574 88.9766 148.914C88.9766 152.253 91.6863 154.96 95.0289 154.96Z" fill="white"/>
<path d="M95.0204 155.251C94.2996 155.251 93.5675 155.127 92.8522 154.866C91.2603 154.286 89.9899 153.121 89.2751 151.586C88.5603 150.051 88.4866 148.33 89.0675 146.74C90.2665 143.457 93.9155 141.761 97.2015 142.959C100.488 144.157 102.185 147.802 100.986 151.085C100.048 153.653 97.6103 155.251 95.0204 155.251ZM95.0233 143.154C94.195 143.154 93.3697 143.335 92.5964 143.694C91.2013 144.343 90.1425 145.495 89.615 146.94C89.0875 148.384 89.1546 149.947 89.8037 151.34C90.4528 152.734 91.6063 153.792 93.0518 154.319C96.0361 155.406 99.3493 153.866 100.438 150.885C101.527 147.904 99.9854 144.594 97.0014 143.506C96.3572 143.271 95.6894 143.154 95.0233 143.154Z" fill="#262525"/>
<path d="M115.501 170.933C119.419 170.933 122.596 167.76 122.596 163.846C122.596 159.931 119.419 156.758 115.501 156.758C111.583 156.758 108.406 159.931 108.406 163.846C108.406 167.76 111.583 170.933 115.501 170.933Z" fill="white"/>
<path d="M115.492 171.228C114.653 171.228 113.8 171.084 112.967 170.78C111.114 170.104 109.635 168.748 108.803 166.961C107.97 165.174 107.884 163.17 108.561 161.319C109.957 157.497 114.206 155.521 118.031 156.916C121.857 158.311 123.834 162.555 122.438 166.378C121.346 169.368 118.507 171.228 115.492 171.228ZM115.506 157.051C112.728 157.051 110.114 158.764 109.108 161.518C108.485 163.224 108.565 165.069 109.331 166.715C110.098 168.361 111.46 169.611 113.167 170.233C116.691 171.517 120.604 169.698 121.89 166.178C123.176 162.657 121.355 158.748 117.831 157.463C117.064 157.184 116.279 157.051 115.506 157.051Z" fill="#262525"/>
<path d="M138.716 184.055C142.974 184.055 146.425 180.607 146.425 176.354C146.425 172.1 142.974 168.652 138.716 168.652C134.459 168.652 131.008 172.1 131.008 176.354C131.008 180.607 134.459 184.055 138.716 184.055Z" fill="white"/>
<path d="M138.703 184.349C137.795 184.349 136.871 184.193 135.969 183.864C131.825 182.354 129.684 177.756 131.196 173.616C132.708 169.476 137.31 167.337 141.454 168.848C143.461 169.58 145.063 171.049 145.965 172.984C146.866 174.92 146.96 177.09 146.227 179.096C145.044 182.335 141.97 184.349 138.703 184.349ZM138.719 168.946C135.691 168.946 132.841 170.813 131.744 173.816C130.342 177.654 132.327 181.917 136.169 183.317C140.011 184.717 144.277 182.734 145.679 178.896C146.358 177.037 146.272 175.025 145.436 173.23C144.601 171.436 143.115 170.074 141.254 169.395C140.418 169.09 139.561 168.946 138.719 168.946Z" fill="#262525"/>
<path d="M165.972 193.718C170.077 193.718 173.404 190.394 173.404 186.293C173.404 182.192 170.077 178.867 165.972 178.867C161.867 178.867 158.539 182.192 158.539 186.293C158.539 190.394 161.867 193.718 165.972 193.718Z" fill="white"/>
<path d="M165.975 194.012C165.082 194.012 164.186 193.855 163.323 193.54C161.384 192.834 159.838 191.415 158.967 189.547C158.097 187.678 158.007 185.582 158.714 183.646C159.421 181.71 160.841 180.164 162.712 179.295C164.582 178.425 166.68 178.335 168.618 179.042C170.556 179.749 172.103 181.167 172.973 183.036C173.844 184.904 173.934 187 173.226 188.936C172.519 190.873 171.1 192.418 169.229 193.288C168.192 193.77 167.085 194.012 165.975 194.012ZM165.966 179.153C164.939 179.153 163.916 179.377 162.958 179.823C161.228 180.627 159.916 182.055 159.262 183.846C158.608 185.636 158.691 187.573 159.496 189.301C160.301 191.029 161.731 192.34 163.523 192.993C165.314 193.647 167.254 193.564 168.983 192.759C170.712 191.955 172.025 190.527 172.679 188.737C173.333 186.947 173.25 185.009 172.445 183.281C171.64 181.554 170.21 180.242 168.418 179.589C167.62 179.298 166.792 179.153 165.966 179.153Z" fill="#262525"/>
<path d="M218.503 115.433C222.608 115.433 225.936 112.108 225.936 108.007C225.936 103.907 222.608 100.582 218.503 100.582C214.398 100.582 211.07 103.907 211.07 108.007C211.07 112.108 214.398 115.433 218.503 115.433Z" fill="white"/>
<path d="M218.506 115.731C217.613 115.731 216.718 115.574 215.854 115.259C213.916 114.552 212.369 113.134 211.499 111.265C210.628 109.397 210.538 107.301 211.246 105.365C211.953 103.428 213.372 101.883 215.243 101.014C217.114 100.144 219.211 100.054 221.149 100.761C223.088 101.467 224.634 102.886 225.505 104.754C226.375 106.623 226.465 108.719 225.758 110.655C225.051 112.592 223.631 114.137 221.76 115.006C220.723 115.488 219.617 115.731 218.506 115.731ZM218.497 100.872C217.471 100.872 216.448 101.096 215.489 101.542C213.76 102.345 212.447 103.774 211.793 105.564C211.139 107.354 211.222 109.292 212.027 111.02C212.832 112.747 214.262 114.059 216.054 114.712C217.846 115.365 219.785 115.282 221.514 114.478C223.244 113.674 224.556 112.245 225.21 110.455C225.864 108.665 225.781 106.728 224.976 105C224.172 103.272 222.742 101.961 220.95 101.308C220.151 101.017 219.323 100.872 218.497 100.872Z" fill="#262525"/>
<path d="M223.792 143.374C227.897 143.374 231.225 140.05 231.225 135.949C231.225 131.848 227.897 128.523 223.792 128.523C219.687 128.523 216.359 131.848 216.359 135.949C216.359 140.05 219.687 143.374 223.792 143.374Z" fill="white"/>
<path d="M223.783 143.669C222.905 143.669 222.014 143.518 221.143 143.201C219.205 142.494 217.658 141.076 216.788 139.207C215.917 137.338 215.827 135.243 216.535 133.306C217.995 129.309 222.437 127.244 226.439 128.702C228.377 129.409 229.923 130.827 230.794 132.696C231.664 134.565 231.754 136.66 231.047 138.597C229.905 141.724 226.936 143.669 223.783 143.669ZM223.798 128.817C220.882 128.817 218.138 130.615 217.082 133.506C215.732 137.202 217.644 141.305 221.343 142.654C225.042 144.002 229.149 142.093 230.499 138.397C231.153 136.607 231.07 134.67 230.265 132.942C229.46 131.214 228.031 129.903 226.239 129.25C225.433 128.956 224.609 128.817 223.798 128.817Z" fill="#262525"/>
<path d="M190.866 200.216C196.565 200.216 201.185 195.6 201.185 189.907C201.185 184.213 196.565 179.598 190.866 179.598C185.167 179.598 180.547 184.213 180.547 189.907C180.547 195.6 185.167 200.216 190.866 200.216Z" fill="white"/>
<path d="M190.856 200.508C189.65 200.508 188.426 200.301 187.229 199.865C184.567 198.894 182.442 196.946 181.246 194.379C180.05 191.812 179.927 188.933 180.899 186.273C181.87 183.613 183.82 181.49 186.39 180.296C188.96 179.101 191.841 178.978 194.503 179.949C200 181.952 202.84 188.05 200.834 193.541C199.265 197.836 195.187 200.508 190.856 200.508ZM190.86 179.884C189.419 179.884 187.982 180.198 186.636 180.824C184.207 181.953 182.364 183.959 181.446 186.473C180.528 188.987 180.645 191.707 181.775 194.133C182.904 196.559 184.913 198.401 187.429 199.318C192.623 201.211 198.391 198.53 200.286 193.341C202.182 188.152 199.498 182.39 194.304 180.496C193.182 180.087 192.02 179.884 190.86 179.884Z" fill="#262525"/>
<path d="M218.913 202.302C224.612 202.302 229.232 197.686 229.232 191.993C229.232 186.299 224.612 181.684 218.913 181.684C213.214 181.684 208.594 186.299 208.594 191.993C208.594 197.686 213.214 202.302 218.913 202.302Z" fill="white"/>
<path d="M218.913 202.593C217.707 202.593 216.483 202.386 215.286 201.95C209.79 199.946 206.95 193.849 208.956 188.358C210.962 182.867 217.065 180.03 222.561 182.033C228.057 184.037 230.897 190.134 228.891 195.625C227.322 199.921 223.245 202.593 218.913 202.593ZM218.934 181.973C214.84 181.973 210.987 184.498 209.504 188.557C207.608 193.747 210.292 199.509 215.486 201.403C220.681 203.296 226.448 200.615 228.344 195.426C230.239 190.236 227.555 184.474 222.361 182.581C221.231 182.168 220.073 181.973 218.934 181.973Z" fill="#262525"/>
<path d="M183.577 51.1809C189.276 51.1809 193.896 46.5653 193.896 40.8717C193.896 35.1781 189.276 30.5625 183.577 30.5625C177.878 30.5625 173.258 35.1781 173.258 40.8717C173.258 46.5653 177.878 51.1809 183.577 51.1809Z" fill="white"/>
<path d="M183.561 51.4727C182.356 51.4727 181.131 51.266 179.935 50.8298C174.439 48.8262 171.599 42.7289 173.604 37.238C174.576 34.5781 176.526 32.4553 179.096 31.2608C181.665 30.0663 184.547 29.9428 187.209 30.9136C189.872 31.8842 191.997 33.8325 193.192 36.3997C194.388 38.9669 194.511 41.8456 193.54 44.5055C191.971 48.8011 187.893 51.4727 183.561 51.4727ZM183.566 30.8486C182.124 30.8486 180.688 31.1633 179.342 31.7889C176.913 32.9178 175.07 34.9239 174.152 37.4377C172.257 42.6269 174.941 48.3892 180.135 50.2828C185.329 52.1763 191.097 49.4951 192.992 44.3059C193.91 41.792 193.793 39.0717 192.664 36.6455C191.534 34.2193 189.526 32.3781 187.009 31.4608C185.888 31.0521 184.725 30.8486 183.566 30.8486Z" fill="#262525"/>
<path d="M197.936 71.2551C203.635 71.2551 208.255 66.6395 208.255 60.9459C208.255 55.2523 203.635 50.6367 197.936 50.6367C192.237 50.6367 187.617 55.2523 187.617 60.9459C187.617 66.6395 192.237 71.2551 197.936 71.2551Z" fill="white"/>
<path d="M197.938 71.5547C196.711 71.5547 195.481 71.3394 194.294 70.9068C188.798 68.9031 185.958 62.8059 187.964 57.315C189.97 51.8241 196.072 48.9868 201.569 50.9906C207.065 52.9942 209.905 59.0915 207.899 64.5825C206.928 67.2424 204.977 69.3651 202.408 70.5596C200.984 71.2217 199.463 71.5547 197.938 71.5547ZM197.942 50.9302C193.847 50.9302 189.994 53.4548 188.512 57.5146C186.616 62.7038 189.3 68.466 194.494 70.3596C197.01 71.2768 199.733 71.1603 202.162 70.0315C204.59 68.9027 206.433 66.8965 207.352 64.3827C209.247 59.1935 206.563 53.4313 201.369 51.5376C200.238 51.1256 199.081 50.9302 197.942 50.9302Z" fill="#262525"/>
<path d="M209.655 93.6067C215.354 93.6067 219.974 88.9911 219.974 83.2975C219.974 77.6039 215.354 72.9883 209.655 72.9883C203.956 72.9883 199.336 77.6039 199.336 83.2975C199.336 88.9911 203.956 93.6067 209.655 93.6067Z" fill="white"/>
<path d="M209.647 93.8934C208.442 93.8934 207.217 93.6867 206.021 93.2504C200.525 91.2468 197.685 85.1495 199.69 79.6586C201.696 74.1678 207.799 71.3307 213.295 73.3343C218.791 75.338 221.631 81.4352 219.626 86.9261C218.057 91.2217 213.979 93.8934 209.647 93.8934ZM209.668 73.2739C205.574 73.2739 201.721 75.7986 200.238 79.8583C198.343 85.0476 201.026 90.8098 206.221 92.7034C211.415 94.597 217.183 91.9157 219.078 86.7266C220.973 81.5374 218.29 75.7752 213.095 73.8815C211.965 73.4694 210.807 73.2739 209.668 73.2739Z" fill="#262525"/>
<path d="M243.686 202.446C249.385 202.446 254.005 197.831 254.005 192.137C254.005 186.444 249.385 181.828 243.686 181.828C237.987 181.828 233.367 186.444 233.367 192.137C233.367 197.831 237.987 202.446 243.686 202.446Z" fill="white"/>
<path d="M243.676 202.733C242.47 202.733 241.246 202.527 240.049 202.09C237.387 201.12 235.262 199.171 234.066 196.604C232.871 194.037 232.747 191.158 233.719 188.499C235.724 183.008 241.827 180.17 247.324 182.174C252.82 184.178 255.66 190.275 253.654 195.766C252.085 200.061 248.008 202.733 243.676 202.733ZM243.697 182.114C239.602 182.114 235.749 184.638 234.267 188.698C233.348 191.212 233.465 193.932 234.595 196.359C235.725 198.785 237.733 200.626 240.249 201.543C245.443 203.437 251.211 200.756 253.107 195.566C255.002 190.377 252.318 184.615 247.124 182.721C245.993 182.309 244.836 182.114 243.697 182.114Z" fill="#262525"/>
<path d="M267.014 206.392C272.714 206.392 277.334 201.776 277.334 196.083C277.334 190.389 272.714 185.773 267.014 185.773C261.315 185.773 256.695 190.389 256.695 196.083C256.695 201.776 261.315 206.392 267.014 206.392Z" fill="white"/>
<path d="M267.024 206.687C265.797 206.687 264.567 206.472 263.38 206.039C257.884 204.036 255.044 197.939 257.05 192.448C259.055 186.957 265.159 184.12 270.655 186.123C273.317 187.094 275.442 189.042 276.638 191.609C277.833 194.177 277.957 197.055 276.985 199.715C276.014 202.375 274.063 204.498 271.494 205.692C270.07 206.354 268.549 206.687 267.024 206.687ZM267.027 186.063C262.933 186.063 259.08 188.587 257.597 192.647C255.702 197.836 258.386 203.599 263.58 205.492C266.096 206.41 268.82 206.293 271.248 205.164C273.676 204.035 275.519 202.029 276.438 199.515C277.356 197.002 277.239 194.281 276.109 191.855C274.979 189.429 272.971 187.588 270.455 186.67C269.324 186.258 268.166 186.063 267.027 186.063Z" fill="#262525"/>
<path d="M295.163 214.665C300.862 214.665 305.482 210.05 305.482 204.356C305.482 198.662 300.862 194.047 295.163 194.047C289.464 194.047 284.844 198.662 284.844 204.356C284.844 210.05 289.464 214.665 295.163 214.665Z" fill="white"/>
<path d="M295.155 214.957C293.95 214.957 292.725 214.75 291.529 214.314C286.032 212.311 283.193 206.213 285.198 200.722C286.17 198.062 288.12 195.94 290.69 194.745C293.259 193.551 296.141 193.427 298.803 194.398C304.299 196.402 307.139 202.499 305.134 207.99C303.565 212.285 299.487 214.957 295.155 214.957ZM295.16 194.333C293.718 194.333 292.282 194.648 290.936 195.273C288.507 196.402 286.664 198.408 285.746 200.922C283.851 206.111 286.534 211.874 291.728 213.767C296.923 215.661 302.69 212.979 304.586 207.79C306.481 202.601 303.797 196.839 298.603 194.945C297.482 194.536 296.319 194.333 295.16 194.333Z" fill="#262525"/>
<path d="M319.514 226.224C325.214 226.224 329.834 221.608 329.834 215.915C329.834 210.221 325.214 205.605 319.514 205.605C313.815 205.605 309.195 210.221 309.195 215.915C309.195 221.608 313.815 226.224 319.514 226.224Z" fill="white"/>
<path d="M319.507 226.518C318.301 226.518 317.077 226.312 315.88 225.875C310.384 223.872 307.544 217.775 309.55 212.284C311.555 206.793 317.658 203.956 323.155 205.959C328.651 207.963 331.491 214.06 329.485 219.551C327.916 223.847 323.839 226.518 319.507 226.518ZM319.527 205.899C315.433 205.899 311.58 208.423 310.097 212.483C308.202 217.672 310.886 223.435 316.08 225.328C321.274 227.222 327.042 224.54 328.937 219.352C330.833 214.162 328.149 208.4 322.955 206.506C321.824 206.094 320.666 205.899 319.527 205.899Z" fill="#262525"/>
<path d="M339.952 240.751C345.651 240.751 350.271 236.136 350.271 230.442C350.271 224.748 345.651 220.133 339.952 220.133C334.253 220.133 329.633 224.748 329.633 230.442C329.633 236.136 334.253 240.751 339.952 240.751Z" fill="white"/>
<path d="M339.937 241.042C338.731 241.042 337.507 240.835 336.31 240.399C330.814 238.395 327.974 232.298 329.979 226.807C331.985 221.316 338.088 218.479 343.584 220.483C349.081 222.486 351.92 228.584 349.915 234.075C348.346 238.37 344.268 241.042 339.937 241.042ZM339.957 220.422C335.863 220.422 332.01 222.947 330.527 227.007C328.632 232.196 331.315 237.958 336.51 239.852C341.704 241.745 347.472 239.064 349.367 233.875C351.262 228.686 348.579 222.924 343.385 221.03C342.254 220.618 341.096 220.422 339.957 220.422Z" fill="#262525"/>
<path d="M359.233 257.001C364.932 257.001 369.552 252.386 369.552 246.692C369.552 240.998 364.932 236.383 359.233 236.383C353.534 236.383 348.914 240.998 348.914 246.692C348.914 252.386 353.534 257.001 359.233 257.001Z" fill="white"/>
<path d="M359.232 257.294C358.005 257.294 356.775 257.079 355.588 256.646C352.926 255.676 350.801 253.727 349.605 251.16C348.41 248.593 348.286 245.714 349.258 243.054C350.229 240.394 352.18 238.272 354.749 237.077C357.319 235.883 360.2 235.759 362.863 236.73C365.525 237.7 367.65 239.649 368.846 242.216C370.042 244.783 370.165 247.662 369.193 250.322C368.222 252.982 366.272 255.104 363.702 256.299C362.278 256.961 360.757 257.294 359.232 257.294ZM359.22 236.665C357.778 236.665 356.341 236.979 354.995 237.605C352.567 238.734 350.724 240.74 349.806 243.254C348.887 245.768 349.004 248.488 350.134 250.914C351.264 253.34 353.272 255.182 355.788 256.099C358.304 257.016 361.027 256.9 363.456 255.771C365.884 254.642 367.727 252.636 368.646 250.122C369.564 247.608 369.447 244.888 368.317 242.462C367.187 240.036 365.179 238.194 362.663 237.277C361.541 236.868 360.379 236.665 359.22 236.665Z" fill="#262525"/>
<path d="M375.241 275.677C380.94 275.677 385.56 271.061 385.56 265.368C385.56 259.674 380.94 255.059 375.241 255.059C369.542 255.059 364.922 259.674 364.922 265.368C364.922 271.061 369.542 275.677 375.241 275.677Z" fill="white"/>
<path d="M375.223 275.969C374.017 275.969 372.793 275.762 371.596 275.326C368.934 274.355 366.809 272.407 365.613 269.84C364.418 267.273 364.294 264.394 365.266 261.734C366.237 259.074 368.187 256.951 370.757 255.757C373.327 254.562 376.208 254.439 378.871 255.41C384.367 257.413 387.207 263.511 385.201 269.002C383.632 273.297 379.555 275.969 375.223 275.969ZM375.228 255.345C373.786 255.345 372.349 255.659 371.003 256.285C368.575 257.414 366.732 259.42 365.814 261.934C364.895 264.448 365.012 267.168 366.142 269.594C367.272 272.02 369.28 273.862 371.796 274.779C376.989 276.672 382.758 273.991 384.654 268.802C386.549 263.613 383.865 257.851 378.671 255.957C377.549 255.548 376.387 255.345 375.228 255.345Z" fill="#262525"/>
<path d="M416.944 525.665C422.643 525.665 427.263 521.05 427.263 515.356C427.263 509.662 422.643 505.047 416.944 505.047C411.245 505.047 406.625 509.662 406.625 515.356C406.625 521.05 411.245 525.665 416.944 525.665Z" fill="white"/>
<path d="M416.929 525.957C415.723 525.957 414.499 525.751 413.302 525.314C407.806 523.311 404.966 517.213 406.972 511.722C407.943 509.062 409.893 506.94 412.463 505.745C415.033 504.551 417.914 504.427 420.577 505.398C423.239 506.369 425.364 508.317 426.56 510.884C427.755 513.451 427.879 516.33 426.907 518.99C425.338 523.286 421.261 525.957 416.929 525.957ZM416.949 505.338C412.855 505.338 409.002 507.862 407.519 511.922C405.624 517.111 408.308 522.874 413.502 524.767C418.697 526.661 424.464 523.98 426.359 518.79C427.278 516.277 427.161 513.556 426.031 511.13C424.901 508.704 422.893 506.863 420.377 505.945C419.246 505.533 418.088 505.338 416.949 505.338Z" fill="#262525"/>
<path d="M289.116 381.9C294.815 381.9 299.435 377.284 299.435 371.59C299.435 365.897 294.815 361.281 289.116 361.281C283.417 361.281 278.797 365.897 278.797 371.59C278.797 377.284 283.417 381.9 289.116 381.9Z" fill="white"/>
<path d="M289.13 382.191C287.903 382.191 286.673 381.976 285.487 381.543C282.824 380.573 280.7 378.625 279.504 376.057C278.308 373.49 278.185 370.612 279.156 367.952C281.162 362.461 287.265 359.624 292.761 361.627C298.257 363.631 301.097 369.728 299.092 375.219C298.12 377.879 296.17 380.002 293.6 381.196C292.176 381.858 290.656 382.191 289.13 382.191ZM289.134 361.567C285.04 361.567 281.187 364.092 279.704 368.151C278.786 370.665 278.903 373.386 280.032 375.812C281.162 378.238 283.17 380.079 285.687 380.996C288.203 381.914 290.926 381.797 293.354 380.668C295.783 379.539 297.626 377.533 298.544 375.02C300.439 369.83 297.756 364.068 292.561 362.174C291.431 361.762 290.273 361.567 289.134 361.567Z" fill="#262525"/>
<path d="M311.772 396.595C317.471 396.595 322.091 391.979 322.091 386.286C322.091 380.592 317.471 375.977 311.772 375.977C306.073 375.977 301.453 380.592 301.453 386.286C301.453 391.979 306.073 396.595 311.772 396.595Z" fill="white"/>
<path d="M311.779 396.891C310.552 396.891 309.322 396.675 308.135 396.243C305.473 395.272 303.348 393.324 302.152 390.757C300.957 388.189 300.833 385.311 301.805 382.651C303.81 377.16 309.913 374.323 315.41 376.326C320.906 378.33 323.746 384.427 321.74 389.918C320.769 392.578 318.818 394.701 316.249 395.896C314.825 396.558 313.304 396.891 311.779 396.891ZM311.783 376.266C307.688 376.266 303.835 378.791 302.353 382.851C301.434 385.364 301.551 388.085 302.681 390.511C303.811 392.937 305.819 394.778 308.335 395.696C310.851 396.613 313.575 396.496 316.003 395.368C318.431 394.239 320.274 392.232 321.193 389.719C323.088 384.53 320.404 378.767 315.21 376.874C314.079 376.462 312.922 376.266 311.783 376.266Z" fill="#262525"/>
<path d="M336.296 408.736C341.995 408.736 346.615 404.12 346.615 398.426C346.615 392.733 341.995 388.117 336.296 388.117C330.597 388.117 325.977 392.733 325.977 398.426C325.977 404.12 330.597 408.736 336.296 408.736Z" fill="white"/>
<path d="M336.288 409.024C335.082 409.024 333.858 408.817 332.661 408.381C327.165 406.377 324.325 400.28 326.331 394.789C327.302 392.129 329.253 390.006 331.822 388.812C334.392 387.617 337.273 387.494 339.936 388.464C342.598 389.435 344.723 391.383 345.919 393.95C347.114 396.518 347.238 399.396 346.266 402.056C344.698 406.352 340.62 409.024 336.288 409.024ZM336.293 388.399C334.851 388.399 333.415 388.714 332.069 389.34C329.64 390.469 327.797 392.475 326.879 394.988C324.983 400.178 327.667 405.94 332.861 407.834C338.056 409.727 343.823 407.046 345.719 401.857C346.637 399.343 346.52 396.622 345.39 394.196C344.26 391.77 342.252 389.929 339.736 389.012C338.615 388.603 337.452 388.399 336.293 388.399Z" fill="#262525"/>
<path d="M362.975 415.654C368.674 415.654 373.294 411.038 373.294 405.344C373.294 399.651 368.674 395.035 362.975 395.035C357.276 395.035 352.656 399.651 352.656 405.344C352.656 411.038 357.276 415.654 362.975 415.654Z" fill="white"/>
<path d="M362.96 415.945C361.754 415.945 360.53 415.739 359.333 415.303C353.837 413.299 350.997 407.201 353.003 401.711C353.974 399.051 355.925 396.928 358.494 395.733C361.064 394.539 363.945 394.416 366.608 395.386C372.104 397.39 374.944 403.487 372.938 408.978C371.369 413.274 367.292 415.945 362.96 415.945ZM362.965 395.321C361.523 395.321 360.086 395.636 358.74 396.262C356.312 397.39 354.469 399.397 353.551 401.91C351.655 407.1 354.339 412.862 359.533 414.756C364.728 416.649 370.495 413.967 372.391 408.779C374.286 403.589 371.602 397.827 366.408 395.934C365.286 395.525 364.124 395.321 362.965 395.321Z" fill="#262525"/>
<path d="M386.827 420.571C392.526 420.571 397.146 415.956 397.146 410.262C397.146 404.569 392.526 399.953 386.827 399.953C381.128 399.953 376.508 404.569 376.508 410.262C376.508 415.956 381.128 420.571 386.827 420.571Z" fill="white"/>
<path d="M386.811 420.864C385.606 420.864 384.381 420.657 383.185 420.221C377.689 418.217 374.849 412.12 376.854 406.629C377.826 403.969 379.776 401.846 382.346 400.651C384.915 399.457 387.797 399.334 390.46 400.304C393.122 401.275 395.247 403.223 396.442 405.79C397.638 408.357 397.761 411.236 396.79 413.896C395.221 418.192 391.144 420.864 386.811 420.864ZM386.832 400.244C382.738 400.244 378.885 402.769 377.402 406.828C375.507 412.018 378.191 417.78 383.385 419.674C388.58 421.567 394.347 418.886 396.242 413.697C397.16 411.183 397.044 408.462 395.914 406.036C394.784 403.61 392.776 401.769 390.26 400.852C389.129 400.439 387.971 400.244 386.832 400.244Z" fill="#262525"/>
<path d="M431.624 550.696C437.323 550.696 441.943 546.081 441.943 540.387C441.943 534.694 437.323 530.078 431.624 530.078C425.925 530.078 421.305 534.694 421.305 540.387C421.305 546.081 425.925 550.696 431.624 550.696Z" fill="white"/>
<path d="M431.614 550.991C430.408 550.991 429.183 550.784 427.987 550.348C425.324 549.378 423.2 547.429 422.004 544.862C420.808 542.295 420.685 539.416 421.656 536.756C423.662 531.265 429.765 528.428 435.261 530.432C440.757 532.436 443.597 538.533 441.592 544.024C440.023 548.319 435.946 550.991 431.614 550.991ZM431.634 530.372C427.54 530.372 423.687 532.896 422.204 536.956C421.286 539.47 421.403 542.19 422.532 544.616C423.662 547.043 425.67 548.884 428.187 549.801C433.381 551.695 439.148 549.013 441.044 543.824C442.939 538.635 440.256 532.873 435.061 530.979C433.931 530.567 432.773 530.372 431.634 530.372Z" fill="#262525"/>
<path d="M445.022 573.575C450.721 573.575 455.341 568.96 455.341 563.266C455.341 557.573 450.721 552.957 445.022 552.957C439.323 552.957 434.703 557.573 434.703 563.266C434.703 568.96 439.323 573.575 445.022 573.575Z" fill="white"/>
<path d="M445.029 573.871C443.802 573.871 442.572 573.656 441.385 573.223C438.723 572.253 436.598 570.304 435.402 567.737C434.207 565.17 434.083 562.291 435.055 559.631C437.06 554.141 443.164 551.303 448.66 553.307C454.156 555.311 456.996 561.408 454.99 566.899C454.019 569.559 452.068 571.682 449.499 572.876C448.075 573.538 446.554 573.871 445.029 573.871ZM445.033 553.247C440.938 553.247 437.085 555.771 435.603 559.831C434.684 562.345 434.801 565.066 435.931 567.492C437.061 569.918 439.069 571.759 441.585 572.676C444.101 573.593 446.824 573.477 449.253 572.348C451.681 571.219 453.524 569.213 454.443 566.699C456.338 561.51 453.654 555.748 448.46 553.854C447.329 553.442 446.172 553.247 445.033 553.247Z" fill="#262525"/>
<path d="M433.46 419.165C439.159 419.165 443.779 414.55 443.779 408.856C443.779 403.162 439.159 398.547 433.46 398.547C427.761 398.547 423.141 403.162 423.141 408.856C423.141 414.55 427.761 419.165 433.46 419.165Z" fill="white"/>
<path d="M433.449 419.46C432.244 419.46 431.019 419.253 429.823 418.817C427.16 417.846 425.035 415.898 423.84 413.331C422.644 410.764 422.521 407.885 423.492 405.225C425.498 399.734 431.601 396.897 437.097 398.901C442.593 400.904 445.433 407.002 443.428 412.493C441.859 416.788 437.781 419.46 433.449 419.46ZM433.47 398.84C429.376 398.84 425.523 401.365 424.04 405.425C423.122 407.939 423.238 410.659 424.368 413.085C425.498 415.511 427.506 417.353 430.023 418.27C435.217 420.164 440.984 417.481 442.88 412.293C444.775 407.104 442.092 401.342 436.897 399.448C435.767 399.036 434.609 398.84 433.47 398.84Z" fill="#262525"/>
<path d="M464.147 426.493C469.846 426.493 474.466 421.878 474.466 416.184C474.466 410.491 469.846 405.875 464.147 405.875C458.448 405.875 453.828 410.491 453.828 416.184C453.828 421.878 458.448 426.493 464.147 426.493Z" fill="white"/>
<path d="M464.154 426.785C462.927 426.785 461.697 426.57 460.51 426.137C457.848 425.167 455.723 423.218 454.527 420.651C453.332 418.084 453.208 415.205 454.18 412.545C456.185 407.054 462.289 404.217 467.785 406.221C473.281 408.225 476.121 414.322 474.115 419.813C473.144 422.473 471.194 424.596 468.624 425.79C467.2 426.452 465.679 426.785 464.154 426.785ZM464.158 406.161C460.063 406.161 456.21 408.685 454.728 412.745C453.81 415.259 453.926 417.979 455.056 420.405C456.186 422.832 458.194 424.673 460.71 425.59C463.227 426.507 465.95 426.391 468.378 425.262C470.807 424.133 472.65 422.127 473.568 419.613C475.463 414.424 472.779 408.662 467.585 406.768C466.454 406.356 465.297 406.161 464.158 406.161Z" fill="#262525"/>
<path d="M269.488 365.183C274.185 365.183 277.992 361.379 277.992 356.687C277.992 351.995 274.185 348.191 269.488 348.191C264.792 348.191 260.984 351.995 260.984 356.687C260.984 361.379 264.792 365.183 269.488 365.183Z" fill="white"/>
<path d="M269.501 365.477C268.484 365.477 267.464 365.299 266.48 364.94C264.273 364.136 262.512 362.521 261.521 360.393C260.53 358.265 260.428 355.879 261.233 353.674C262.038 351.469 263.655 349.709 265.785 348.719C267.915 347.729 270.303 347.627 272.51 348.432C277.066 350.092 279.42 355.147 277.758 359.698C276.952 361.903 275.336 363.663 273.206 364.653C272.025 365.202 270.765 365.477 269.501 365.477ZM269.49 348.477C268.31 348.477 267.133 348.735 266.031 349.247C264.042 350.172 262.532 351.815 261.781 353.874C261.029 355.932 261.124 358.16 262.05 360.147C262.975 362.134 264.619 363.642 266.68 364.393C268.741 365.144 270.971 365.049 272.96 364.124C274.949 363.2 276.458 361.557 277.21 359.498C278.762 355.249 276.564 350.53 272.311 348.979C271.392 348.644 270.44 348.477 269.49 348.477Z" fill="#262525"/>
<path d="M389.363 294.796C394.06 294.796 397.867 290.992 397.867 286.3C397.867 281.608 394.06 277.805 389.363 277.805C384.667 277.805 380.859 281.608 380.859 286.3C380.859 290.992 384.667 294.796 389.363 294.796Z" fill="white"/>
<path d="M389.368 295.087C388.351 295.087 387.331 294.909 386.348 294.55C384.141 293.745 382.379 292.13 381.388 290.002C380.397 287.874 380.295 285.488 381.1 283.283C381.905 281.079 383.522 279.319 385.652 278.329C387.782 277.339 390.17 277.236 392.377 278.041C394.584 278.846 396.346 280.461 397.337 282.589C398.328 284.716 398.43 287.103 397.625 289.308C396.819 291.512 395.203 293.272 393.073 294.262C391.892 294.811 390.632 295.087 389.368 295.087ZM389.358 278.087C388.177 278.087 387 278.345 385.898 278.857C383.909 279.782 382.4 281.425 381.648 283.483C380.896 285.542 380.992 287.77 381.917 289.757C382.842 291.744 384.487 293.252 386.547 294.003C388.608 294.754 390.838 294.659 392.827 293.734C394.816 292.81 396.325 291.167 397.077 289.108C397.829 287.049 397.734 284.821 396.808 282.834C395.883 280.848 394.238 279.34 392.178 278.588C391.259 278.254 390.307 278.087 389.358 278.087Z" fill="#262525"/>
<path d="M410.426 501.854C415.122 501.854 418.929 498.051 418.929 493.359C418.929 488.667 415.122 484.863 410.426 484.863C405.729 484.863 401.922 488.667 401.922 493.359C401.922 498.051 405.729 501.854 410.426 501.854Z" fill="white"/>
<path d="M410.442 502.149C409.425 502.149 408.405 501.971 407.421 501.612C402.866 499.951 400.512 494.897 402.174 490.346C403.836 485.794 408.895 483.442 413.451 485.103C418.007 486.764 420.361 491.818 418.699 496.37C417.893 498.575 416.277 500.334 414.147 501.324C412.966 501.873 411.706 502.149 410.442 502.149ZM410.432 485.149C409.251 485.149 408.074 485.407 406.972 485.919C404.983 486.844 403.474 488.487 402.722 490.545C401.97 492.604 402.065 494.832 402.991 496.819C403.916 498.806 405.561 500.314 407.621 501.065C409.682 501.816 411.912 501.721 413.901 500.796C415.89 499.872 417.399 498.229 418.151 496.17C419.703 491.92 417.505 487.201 413.251 485.651C412.333 485.316 411.381 485.149 410.432 485.149Z" fill="#262525"/>
<path d="M399.816 317.085C404.513 317.085 408.32 313.281 408.32 308.589C408.32 303.897 404.513 300.094 399.816 300.094C395.12 300.094 391.312 303.897 391.312 308.589C391.312 313.281 395.12 317.085 399.816 317.085Z" fill="white"/>
<path d="M399.824 317.384C398.807 317.384 397.788 317.205 396.804 316.846C392.248 315.186 389.894 310.132 391.557 305.58C393.219 301.029 398.278 298.677 402.834 300.338C405.041 301.142 406.802 302.757 407.793 304.885C408.784 307.013 408.887 309.399 408.081 311.604C407.276 313.809 405.66 315.568 403.53 316.559C402.349 317.107 401.089 317.384 399.824 317.384ZM399.828 300.387C396.475 300.387 393.319 302.455 392.105 305.78C391.353 307.839 391.448 310.066 392.374 312.053C393.299 314.04 394.944 315.548 397.004 316.299C399.065 317.05 401.295 316.955 403.284 316.031C405.273 315.106 406.782 313.463 407.534 311.404C408.286 309.346 408.19 307.118 407.265 305.131C406.34 303.144 404.695 301.636 402.635 300.885C401.709 300.547 400.76 300.387 399.828 300.387Z" fill="#262525"/>
<path d="M406.262 472.561C410.958 472.561 414.765 468.758 414.765 464.066C414.765 459.374 410.958 455.57 406.262 455.57C401.565 455.57 397.758 459.374 397.758 464.066C397.758 468.758 401.565 472.561 406.262 472.561Z" fill="white"/>
<path d="M406.256 472.848C405.256 472.848 404.242 472.677 403.25 472.315C398.694 470.654 396.34 465.6 398.002 461.049C399.665 456.497 404.723 454.145 409.279 455.806C413.835 457.467 416.189 462.521 414.527 467.073C413.226 470.633 409.846 472.848 406.256 472.848ZM406.273 455.856C402.92 455.856 399.764 457.924 398.55 461.248C397.798 463.307 397.894 465.535 398.819 467.522C399.744 469.509 401.389 471.017 403.449 471.768C407.703 473.318 412.427 471.122 413.979 466.873C414.731 464.814 414.636 462.586 413.71 460.599C412.785 458.613 411.14 457.105 409.08 456.353C408.154 456.016 407.206 455.856 406.273 455.856Z" fill="#262525"/>
<path d="M490.773 433.506C495.359 433.506 499.076 429.792 499.076 425.21C499.076 420.628 495.359 416.914 490.773 416.914C486.187 416.914 482.469 420.628 482.469 425.21C482.469 429.792 486.187 433.506 490.773 433.506Z" fill="white"/>
<path d="M490.759 433.792C489.782 433.792 488.79 433.625 487.821 433.272C483.369 431.648 481.069 426.709 482.693 422.261C484.318 417.813 489.262 415.515 493.714 417.138C498.166 418.761 500.467 423.7 498.842 428.148C497.571 431.628 494.268 433.792 490.759 433.792ZM490.776 417.2C487.504 417.2 484.426 419.217 483.241 422.461C481.726 426.607 483.871 431.211 488.021 432.724C492.172 434.238 496.78 432.095 498.294 427.949C499.809 423.803 497.664 419.198 493.514 417.685C492.611 417.356 491.686 417.2 490.776 417.2Z" fill="#262525"/>
<path d="M516.101 445.842C520.687 445.842 524.404 442.127 524.404 437.546C524.404 432.964 520.687 429.25 516.101 429.25C511.515 429.25 507.797 432.964 507.797 437.546C507.797 442.127 511.515 445.842 516.101 445.842Z" fill="white"/>
<path d="M516.087 446.136C515.111 446.136 514.119 445.969 513.149 445.615C508.697 443.992 506.397 439.053 508.021 434.605C509.646 430.157 514.59 427.858 519.042 429.482C523.494 431.105 525.795 436.044 524.17 440.492C522.899 443.972 519.596 446.136 516.087 446.136ZM516.104 429.544C512.832 429.544 509.754 431.561 508.569 434.805C507.054 438.951 509.199 443.555 513.349 445.068C517.5 446.581 522.108 444.439 523.622 440.293C525.137 436.146 522.992 431.542 518.842 430.029C517.939 429.7 517.014 429.544 516.104 429.544Z" fill="#262525"/>
<path d="M254.03 344.795C258.616 344.795 262.334 341.081 262.334 336.499C262.334 331.917 258.616 328.203 254.03 328.203C249.444 328.203 245.727 331.917 245.727 336.499C245.727 341.081 249.444 344.795 254.03 344.795Z" fill="white"/>
<path d="M254.021 345.089C253.044 345.089 252.052 344.922 251.083 344.568C248.926 343.782 247.205 342.204 246.237 340.124C245.268 338.045 245.168 335.713 245.955 333.558C247.58 329.11 252.524 326.812 256.976 328.435C261.428 330.058 263.729 334.997 262.104 339.445C260.833 342.925 257.53 345.089 254.021 345.089ZM254.037 328.497C250.766 328.497 247.688 330.514 246.503 333.758C245.769 335.766 245.862 337.94 246.765 339.879C247.668 341.817 249.272 343.288 251.283 344.021C255.433 345.534 260.042 343.392 261.556 339.246C263.071 335.099 260.926 330.495 256.776 328.982C255.873 328.653 254.948 328.497 254.037 328.497Z" fill="#262525"/>
<path d="M229.765 299.302C233.415 299.302 236.374 296.346 236.374 292.7C236.374 289.054 233.415 286.098 229.765 286.098C226.115 286.098 223.156 289.054 223.156 292.7C223.156 296.346 226.115 299.302 229.765 299.302Z" fill="white"/>
<path d="M229.767 299.599C228.969 299.599 228.17 299.459 227.398 299.178C225.666 298.547 224.285 297.28 223.507 295.61C222.73 293.941 222.649 292.069 223.281 290.339C223.913 288.609 225.181 287.229 226.852 286.452C228.523 285.675 230.397 285.595 232.128 286.226C233.86 286.857 235.242 288.124 236.019 289.794C236.797 291.463 236.877 293.335 236.245 295.065C235.613 296.795 234.345 298.175 232.674 298.952C231.748 299.383 230.759 299.599 229.767 299.599ZM229.759 286.388C228.851 286.388 227.946 286.586 227.098 286.98C225.568 287.691 224.407 288.955 223.829 290.539C223.25 292.122 223.324 293.836 224.036 295.365C224.747 296.893 226.012 298.053 227.598 298.631C229.183 299.209 230.898 299.135 232.428 298.424C233.958 297.713 235.119 296.449 235.698 294.866C236.276 293.282 236.203 291.568 235.491 290.04C234.779 288.511 233.514 287.351 231.929 286.773C231.222 286.516 230.49 286.388 229.759 286.388Z" fill="#262525"/>
<path d="M240.554 323.185C244.204 323.185 247.163 320.229 247.163 316.583C247.163 312.936 244.204 309.98 240.554 309.98C236.904 309.98 233.945 312.936 233.945 316.583C233.945 320.229 236.904 323.185 240.554 323.185Z" fill="white"/>
<path d="M240.542 323.479C239.758 323.479 238.962 323.345 238.184 323.061C234.609 321.758 232.763 317.793 234.067 314.222C235.371 310.652 239.34 308.806 242.914 310.11C246.489 311.413 248.335 315.378 247.031 318.948C246.011 321.742 243.359 323.479 240.542 323.479ZM240.555 310.274C237.976 310.274 235.549 311.864 234.615 314.422C233.421 317.691 235.111 321.321 238.384 322.514C239.969 323.092 241.684 323.019 243.214 322.307C244.744 321.596 245.905 320.332 246.484 318.749C247.678 315.48 245.987 311.849 242.715 310.657C242.002 310.397 241.273 310.274 240.555 310.274Z" fill="#262525"/>
<path d="M407.218 341.724C410.868 341.724 413.827 338.768 413.827 335.122C413.827 331.476 410.868 328.52 407.218 328.52C403.568 328.52 400.609 331.476 400.609 335.122C400.609 338.768 403.568 341.724 407.218 341.724Z" fill="white"/>
<path d="M407.221 342.017C406.423 342.017 405.623 341.877 404.851 341.596C403.119 340.965 401.738 339.698 400.96 338.028C400.183 336.359 400.102 334.487 400.734 332.757C401.366 331.027 402.634 329.647 404.305 328.87C405.976 328.093 407.85 328.013 409.582 328.644C411.313 329.275 412.695 330.542 413.472 332.212C414.25 333.881 414.33 335.753 413.698 337.483C413.067 339.213 411.799 340.593 410.127 341.37C409.201 341.801 408.213 342.017 407.221 342.017ZM407.212 328.805C406.304 328.805 405.399 329.004 404.551 329.398C403.021 330.109 401.86 331.373 401.282 332.957C400.704 334.54 400.777 336.254 401.489 337.782C402.201 339.311 403.466 340.471 405.051 341.049C406.636 341.626 408.352 341.553 409.881 340.842C411.411 340.131 412.572 338.867 413.151 337.283C413.729 335.7 413.656 333.986 412.944 332.457C412.232 330.929 410.967 329.769 409.382 329.191C408.675 328.934 407.943 328.805 407.212 328.805Z" fill="#262525"/>
<path d="M533.992 460.142C537.641 460.142 540.6 457.186 540.6 453.54C540.6 449.893 537.641 446.938 533.992 446.938C530.342 446.938 527.383 449.893 527.383 453.54C527.383 457.186 530.342 460.142 533.992 460.142Z" fill="white"/>
<path d="M533.994 460.435C533.196 460.435 532.396 460.295 531.625 460.014C529.893 459.382 528.511 458.116 527.734 456.446C526.956 454.777 526.876 452.904 527.508 451.175C528.139 449.445 529.408 448.065 531.079 447.288C532.75 446.511 534.624 446.431 536.355 447.062C538.087 447.693 539.468 448.96 540.246 450.63C541.023 452.299 541.104 454.171 540.472 455.901C539.84 457.631 538.572 459.011 536.901 459.788C535.975 460.218 534.986 460.435 533.994 460.435ZM533.986 447.223C533.078 447.223 532.173 447.422 531.325 447.816C529.795 448.527 528.634 449.791 528.055 451.375C527.477 452.958 527.55 454.672 528.262 456.2C528.974 457.729 530.239 458.889 531.824 459.467C533.41 460.044 535.125 459.971 536.655 459.26C538.185 458.549 539.346 457.285 539.924 455.701C541.118 452.432 539.428 448.802 536.155 447.609C535.449 447.352 534.716 447.223 533.986 447.223Z" fill="#262525"/>
<path d="M221.906 270.22C225.555 270.22 228.514 267.264 228.514 263.618C228.514 259.972 225.555 257.016 221.906 257.016C218.256 257.016 215.297 259.972 215.297 263.618C215.297 267.264 218.256 270.22 221.906 270.22Z" fill="white"/>
<path d="M221.905 270.518C221.107 270.518 220.307 270.378 219.535 270.097C215.961 268.794 214.114 264.828 215.418 261.258C216.723 257.687 220.692 255.842 224.266 257.145C225.997 257.776 227.379 259.043 228.157 260.712C228.934 262.382 229.014 264.254 228.383 265.984C227.751 267.713 226.483 269.094 224.812 269.871C223.885 270.301 222.897 270.518 221.905 270.518ZM221.907 257.309C219.328 257.309 216.9 258.9 215.966 261.457C214.772 264.726 216.463 268.356 219.735 269.549C221.32 270.127 223.036 270.054 224.566 269.343C226.095 268.632 227.257 267.368 227.835 265.784C228.413 264.2 228.34 262.487 227.628 260.958C226.916 259.43 225.651 258.27 224.066 257.692C223.354 257.432 222.624 257.309 221.907 257.309Z" fill="#262525"/>
<path d="M410.726 371.099C414.376 371.099 417.335 368.143 417.335 364.497C417.335 360.851 414.376 357.895 410.726 357.895C407.076 357.895 404.117 360.851 404.117 364.497C404.117 368.143 407.076 371.099 410.726 371.099Z" fill="white"/>
<path d="M410.717 371.389C409.933 371.389 409.137 371.254 408.359 370.971C406.627 370.34 405.246 369.073 404.468 367.403C403.69 365.734 403.61 363.862 404.242 362.132C404.874 360.402 406.142 359.022 407.813 358.245C409.484 357.468 411.358 357.388 413.089 358.019C414.821 358.65 416.203 359.917 416.98 361.587C417.758 363.256 417.838 365.128 417.206 366.858C416.186 369.652 413.534 371.389 410.717 371.389ZM410.72 358.181C409.812 358.181 408.907 358.379 408.059 358.773C406.529 359.484 405.368 360.748 404.79 362.332C403.596 365.601 405.286 369.231 408.559 370.424C409.271 370.683 410 370.806 410.718 370.806C413.297 370.807 415.724 369.216 416.659 366.658C417.237 365.075 417.163 363.361 416.452 361.833C415.74 360.304 414.475 359.144 412.889 358.566C412.183 358.309 411.451 358.181 410.72 358.181Z" fill="#262525"/>
<path d="M404.749 450.029C408.399 450.029 411.358 447.073 411.358 443.427C411.358 439.78 408.399 436.824 404.749 436.824C401.099 436.824 398.141 439.78 398.141 443.427C398.141 447.073 401.099 450.029 404.749 450.029Z" fill="white"/>
<path d="M404.748 450.322C403.95 450.322 403.151 450.182 402.379 449.901C398.805 448.598 396.958 444.632 398.262 441.062C398.894 439.332 400.162 437.951 401.833 437.174C403.504 436.398 405.378 436.318 407.11 436.949C408.841 437.58 410.223 438.847 411 440.516C411.778 442.186 411.858 444.058 411.227 445.788C410.595 447.517 409.327 448.898 407.655 449.675C406.729 450.105 405.74 450.322 404.748 450.322ZM404.74 437.11C403.832 437.11 402.927 437.308 402.079 437.703C400.549 438.414 399.388 439.677 398.81 441.261C397.616 444.53 399.306 448.16 402.579 449.353C405.851 450.546 409.485 448.857 410.679 445.588C411.257 444.004 411.184 442.291 410.472 440.762C409.76 439.234 408.495 438.074 406.91 437.496C406.203 437.238 405.471 437.11 404.74 437.11Z" fill="#262525"/>
<path d="M551.778 475.999C554.874 475.999 557.384 473.491 557.384 470.398C557.384 467.304 554.874 464.797 551.778 464.797C548.682 464.797 546.172 467.304 546.172 470.398C546.172 473.491 548.682 475.999 551.778 475.999Z" fill="white"/>
<path d="M551.779 476.296C551.098 476.296 550.414 476.176 549.754 475.935C548.274 475.396 547.093 474.313 546.429 472.886C545.764 471.459 545.695 469.859 546.236 468.381C547.35 465.329 550.743 463.751 553.798 464.865C556.853 465.979 558.431 469.368 557.316 472.42C556.776 473.899 555.692 475.079 554.264 475.742C553.472 476.11 552.627 476.296 551.779 476.296ZM551.781 465.09C549.611 465.09 547.569 466.428 546.783 468.58C546.297 469.912 546.358 471.354 546.957 472.64C547.556 473.926 548.62 474.902 549.954 475.388C551.287 475.874 552.731 475.813 554.018 475.214C555.305 474.616 556.282 473.553 556.769 472.22C557.255 470.888 557.194 469.446 556.595 468.16C555.996 466.874 554.932 465.899 553.598 465.412C552.999 465.194 552.385 465.09 551.781 465.09Z" fill="#262525"/>
<path d="M218.536 220.202C221.632 220.202 224.142 217.694 224.142 214.601C224.142 211.508 221.632 209 218.536 209C215.44 209 212.93 211.508 212.93 214.601C212.93 217.694 215.44 220.202 218.536 220.202Z" fill="white"/>
<path d="M218.525 220.496C217.855 220.496 217.174 220.381 216.509 220.138C213.454 219.025 211.876 215.636 212.991 212.584C214.105 209.532 217.498 207.955 220.553 209.068C223.608 210.182 225.186 213.571 224.071 216.623C223.199 219.011 220.933 220.496 218.525 220.496ZM218.528 209.291C217.764 209.291 217.002 209.458 216.289 209.789C215.002 210.388 214.025 211.451 213.538 212.783C212.534 215.534 213.956 218.588 216.709 219.591C219.462 220.595 222.519 219.174 223.524 216.423C224.528 213.673 223.106 210.619 220.353 209.615C219.758 209.399 219.142 209.291 218.528 209.291Z" fill="#262525"/>
<path d="M410.192 394.999C413.288 394.999 415.798 392.491 415.798 389.398C415.798 386.304 413.288 383.797 410.192 383.797C407.096 383.797 404.586 386.304 404.586 389.398C404.586 392.491 407.096 394.999 410.192 394.999Z" fill="white"/>
<path d="M410.194 395.296C409.512 395.296 408.828 395.176 408.168 394.935C406.688 394.396 405.507 393.313 404.843 391.886C404.178 390.459 404.11 388.859 404.65 387.381C405.764 384.329 409.157 382.751 412.212 383.865C415.267 384.979 416.845 388.368 415.73 391.42C415.19 392.899 414.106 394.079 412.678 394.742C411.886 395.11 411.041 395.296 410.194 395.296ZM410.195 384.091C408.025 384.091 405.983 385.428 405.197 387.58C404.711 388.913 404.772 390.355 405.371 391.64C405.97 392.926 407.035 393.902 408.368 394.388C409.702 394.874 411.145 394.813 412.432 394.214C413.719 393.616 414.696 392.553 415.183 391.22C416.187 388.47 414.765 385.416 412.012 384.412C411.413 384.194 410.799 384.091 410.195 384.091Z" fill="#262525"/>
<path d="M408.794 415.159C411.89 415.159 414.4 412.651 414.4 409.558C414.4 406.465 411.89 403.957 408.794 403.957C405.698 403.957 403.188 406.465 403.188 409.558C403.188 412.651 405.698 415.159 408.794 415.159Z" fill="white"/>
<path d="M408.795 415.456C408.113 415.456 407.429 415.336 406.77 415.096C405.29 414.556 404.109 413.473 403.444 412.046C402.78 410.619 402.711 409.019 403.251 407.541C404.366 404.489 407.758 402.911 410.813 404.025C413.868 405.139 415.447 408.528 414.332 411.58C413.792 413.059 412.708 414.239 411.28 414.903C410.488 415.271 409.643 415.456 408.795 415.456ZM408.797 404.251C406.627 404.251 404.585 405.589 403.799 407.74C403.312 409.073 403.374 410.515 403.973 411.801C404.572 413.087 405.636 414.062 406.97 414.549C409.723 415.552 412.78 414.131 413.784 411.381C414.789 408.63 413.367 405.576 410.614 404.573C410.014 404.354 409.4 404.251 408.797 404.251Z" fill="#262525"/>
<path d="M406.216 430.846C409.312 430.846 411.822 428.339 411.822 425.245C411.822 422.152 409.312 419.645 406.216 419.645C403.119 419.645 400.609 422.152 400.609 425.245C400.609 428.339 403.119 430.846 406.216 430.846Z" fill="white"/>
<path d="M406.217 431.143C405.535 431.143 404.851 431.023 404.192 430.783C402.712 430.244 401.531 429.161 400.866 427.734C400.202 426.307 400.133 424.707 400.673 423.228C401.788 420.176 405.18 418.599 408.235 419.713C409.715 420.252 410.896 421.335 411.561 422.762C412.225 424.189 412.294 425.789 411.754 427.268C411.214 428.746 410.13 429.926 408.702 430.59C407.91 430.958 407.065 431.143 406.217 431.143ZM406.219 419.938C404.049 419.938 402.007 421.276 401.221 423.428C400.734 424.76 400.796 426.202 401.395 427.488C401.994 428.774 403.058 429.75 404.392 430.236C405.725 430.722 407.168 430.66 408.456 430.062C409.743 429.464 410.72 428.4 411.206 427.068C411.693 425.736 411.631 424.294 411.032 423.008C410.433 421.722 409.369 420.746 408.035 420.26C407.436 420.042 406.822 419.938 406.219 419.938Z" fill="#262525"/>
<path d="M217.575 241.788C220.671 241.788 223.181 239.28 223.181 236.187C223.181 233.094 220.671 230.586 217.575 230.586C214.479 230.586 211.969 233.094 211.969 236.187C211.969 239.28 214.479 241.788 217.575 241.788Z" fill="white"/>
<path d="M217.564 242.082C216.894 242.082 216.213 241.967 215.548 241.724C212.493 240.611 210.915 237.222 212.03 234.17C213.144 231.117 216.537 229.54 219.592 230.654C222.647 231.768 224.225 235.157 223.11 238.209C222.238 240.597 219.972 242.082 217.564 242.082ZM217.575 230.879C215.405 230.879 213.363 232.217 212.577 234.369C211.573 237.119 212.995 240.174 215.748 241.177C216.347 241.395 216.961 241.499 217.565 241.499C219.735 241.499 221.777 240.161 222.563 238.009C223.049 236.677 222.987 235.235 222.389 233.949C221.79 232.663 220.725 231.687 219.392 231.201C218.793 230.983 218.179 230.879 217.575 230.879Z" fill="#262525"/>
<path d="M616.29 408.406C615.458 408.406 614.613 408.283 613.777 408.023L312.148 314.405C307.686 313.02 305.192 308.283 306.579 303.826C307.965 299.368 312.706 296.877 317.168 298.262L618.797 391.88C623.259 393.265 625.753 398.002 624.367 402.459C623.24 406.082 619.897 408.406 616.29 408.406Z" fill="#262525"/>
<path d="M642.803 425.518C641.098 425.518 639.364 425.265 637.65 424.733L477.597 375.057C468.447 372.217 463.334 362.504 466.176 353.363C469.019 344.221 478.742 339.113 487.891 341.953L647.944 391.63C657.095 394.47 662.208 404.182 659.365 413.324C657.055 420.753 650.2 425.518 642.803 425.518Z" fill="#FFB434"/>
<path d="M642.806 425.838C641.033 425.838 639.268 425.569 637.559 425.038L477.506 375.362C472.999 373.963 469.307 370.894 467.11 366.721C464.913 362.548 464.474 357.77 465.874 353.268C468.765 343.973 478.686 338.761 487.989 341.648L648.042 391.325C652.55 392.724 656.242 395.792 658.438 399.965C660.635 404.138 661.074 408.916 659.674 413.419C658.533 417.088 656.288 420.216 653.183 422.466C650.18 424.64 646.495 425.838 642.806 425.838ZM482.758 341.49C475.495 341.49 468.75 346.173 466.485 353.457C465.136 357.797 465.558 362.402 467.676 366.424C469.793 370.446 473.351 373.403 477.695 374.752L637.748 424.428C639.396 424.94 641.098 425.199 642.806 425.199C650.303 425.199 656.837 420.389 659.063 413.229C660.413 408.889 659.99 404.284 657.872 400.262C655.755 396.24 652.197 393.283 647.853 391.935L487.8 342.258C486.124 341.738 484.427 341.49 482.758 341.49Z" fill="#262525"/>
<path d="M314.656 433.501C384.956 433.501 441.945 376.567 441.945 306.334C441.945 236.102 384.956 179.168 314.656 179.168C244.356 179.168 187.367 236.102 187.367 306.334C187.367 376.567 244.356 433.501 314.656 433.501Z" fill="#FFB434"/>
<path d="M314.551 433.855C306.882 433.855 299.22 433.155 291.607 431.756C275.381 428.772 260.067 422.747 246.089 413.85C232.112 404.953 220.176 393.631 210.613 380.199C200.712 366.293 193.802 350.722 190.074 333.919C186.347 317.117 186.025 300.087 189.117 283.304C192.104 267.093 198.134 251.793 207.04 237.829C215.946 223.865 227.278 211.941 240.723 202.387C254.643 192.496 270.229 185.592 287.048 181.868C303.866 178.144 320.912 177.822 337.712 180.912C353.938 183.896 369.253 189.92 383.23 198.817C397.208 207.715 409.144 219.036 418.707 232.468C428.607 246.375 435.518 261.946 439.245 278.748C442.973 295.551 443.295 312.58 440.202 329.364C437.216 345.574 431.185 360.874 422.28 374.838C413.374 388.802 402.041 400.727 388.596 410.281C374.676 420.172 359.091 427.076 342.272 430.799C333.074 432.836 323.807 433.855 314.551 433.855ZM314.909 179.442C305.689 179.442 296.405 180.45 287.186 182.492C254.075 189.823 225.803 209.598 207.579 238.172C189.355 266.747 183.36 300.702 190.698 333.781C198.037 366.86 217.83 395.105 246.432 413.311C267.071 426.448 290.516 433.224 314.41 433.225C323.63 433.225 332.914 432.217 342.133 430.175C375.244 422.844 403.516 403.069 421.74 374.495C439.964 345.92 445.959 311.965 438.621 278.886C431.282 245.807 411.489 217.562 382.886 199.356C362.248 186.219 338.802 179.442 314.909 179.442Z" fill="#FFB434"/>
<path d="M314.667 426.114C380.882 426.114 434.56 372.488 434.56 306.336C434.56 240.185 380.882 186.559 314.667 186.559C248.451 186.559 194.773 240.185 194.773 306.336C194.773 372.488 248.451 426.114 314.667 426.114Z" fill="#262525"/>
<path d="M314.557 426.239C307.345 426.239 300.141 425.581 292.984 424.265C277.727 421.459 263.327 415.795 250.185 407.429C237.043 399.063 225.82 388.418 216.828 375.788C207.519 362.713 201.021 348.072 197.517 332.274C194.012 316.475 193.709 300.463 196.616 284.682C199.425 269.44 205.095 255.054 213.468 241.924C221.842 228.795 232.498 217.582 245.139 208.599C258.227 199.299 272.882 192.808 288.696 189.307C304.51 185.805 320.538 185.503 336.333 188.407C351.59 191.213 365.99 196.878 379.132 205.243C392.275 213.609 403.498 224.254 412.489 236.884C421.799 249.959 428.296 264.6 431.801 280.399C435.306 296.197 435.608 312.21 432.701 327.99C429.892 343.232 424.223 357.618 415.849 370.748C407.475 383.878 396.819 395.09 384.178 404.073C371.09 413.373 356.435 419.864 340.621 423.366C331.973 425.28 323.26 426.239 314.557 426.239ZM314.894 186.608C306.194 186.608 297.435 187.559 288.736 189.485C257.494 196.403 230.818 215.061 213.623 242.023C196.428 268.984 190.771 301.022 197.695 332.234C211.989 396.665 276.088 437.466 340.581 423.187C405.075 408.907 445.916 344.87 431.622 280.438C424.698 249.226 406.022 222.576 379.034 205.397C359.561 193.002 337.439 186.608 314.894 186.608Z" fill="#262525"/>
<path d="M314.657 420.322C377.67 420.322 428.752 369.289 428.752 306.337C428.752 243.384 377.67 192.352 314.657 192.352C251.644 192.352 200.562 243.384 200.562 306.337C200.562 369.289 251.644 420.322 314.657 420.322Z" fill="white"/>
<path d="M314.568 420.673C307.691 420.673 300.822 420.045 293.996 418.79C279.448 416.115 265.717 410.713 253.184 402.736C240.652 394.759 229.95 384.608 221.376 372.565C212.499 360.096 206.303 346.135 202.961 331.07C199.619 316.004 199.33 300.736 202.103 285.687C204.781 271.153 210.187 257.435 218.172 244.915C226.157 232.395 236.318 221.703 248.373 213.137C260.854 204.269 274.828 198.079 289.908 194.74C304.988 191.401 320.271 191.112 335.334 193.882C349.882 196.558 363.614 201.959 376.146 209.936C388.678 217.914 399.38 228.065 407.954 240.108C416.831 252.577 423.027 266.538 426.369 281.603C429.711 296.668 430 311.937 427.227 326.985C424.549 341.52 419.143 355.238 411.158 367.758C403.173 380.278 393.012 390.969 380.957 399.536C368.476 408.404 354.502 414.594 339.422 417.933C331.175 419.759 322.867 420.673 314.568 420.673ZM314.889 192.631C306.626 192.631 298.308 193.534 290.046 195.363C260.376 201.933 235.042 219.653 218.712 245.258C202.381 270.863 197.01 301.289 203.585 330.931C210.161 360.573 227.898 385.883 253.528 402.197C272.022 413.969 293.031 420.041 314.442 420.042C322.704 420.042 331.022 419.139 339.284 417.309C368.954 410.74 394.288 393.02 410.618 367.415C426.949 341.809 432.321 311.383 425.745 281.741C419.169 252.099 401.432 226.79 375.802 210.475C357.309 198.703 336.299 192.631 314.889 192.631Z" fill="#262525"/>
<path d="M382.644 242.839C365.228 222.521 344.652 205.602 321.953 192.557C311.476 191.891 300.731 192.668 289.968 195.051C244.945 205.02 212.083 240.292 203.039 282.583C212.453 310.343 227.142 336.387 246.667 359.167C269.039 385.267 296.626 405.759 327.228 419.634C331.255 419.183 335.298 418.516 339.344 417.62C386.786 407.116 420.725 368.515 427.522 323.212C418.182 294.033 403.056 266.652 382.644 242.839Z" fill="white"/>
<path d="M205.838 292.23C205.311 292.23 204.788 292.008 204.418 291.577C203.747 290.794 203.838 289.616 204.622 288.945L292.026 214.171C292.81 213.501 293.989 213.592 294.66 214.375C295.331 215.158 295.24 216.336 294.457 217.007L207.052 291.781C206.7 292.082 206.268 292.23 205.838 292.23Z" fill="#262525"/>
<path d="M262.463 285.278C261.936 285.278 261.413 285.056 261.043 284.625C260.372 283.842 260.463 282.664 261.247 281.993L346.958 208.668C347.742 207.997 348.921 208.088 349.593 208.871C350.264 209.654 350.172 210.832 349.389 211.503L263.677 284.829C263.325 285.13 262.893 285.278 262.463 285.278Z" fill="#262525"/>
<path d="M323.385 274.656C322.858 274.656 322.334 274.435 321.965 274.004C321.294 273.221 321.385 272.043 322.169 271.372L337.686 258.097C338.47 257.427 339.649 257.518 340.32 258.301C340.992 259.084 340.9 260.262 340.117 260.933L324.599 274.208C324.247 274.509 323.815 274.656 323.385 274.656Z" fill="#262525"/>
<path d="M267.018 322.879C266.491 322.879 265.967 322.658 265.598 322.226C264.927 321.443 265.018 320.265 265.802 319.595L273.424 313.074C274.207 312.403 275.387 312.495 276.058 313.277C276.729 314.061 276.638 315.239 275.854 315.909L268.232 322.43C267.88 322.731 267.448 322.879 267.018 322.879Z" fill="#262525"/>
<path d="M352.65 332.612C352.124 332.612 351.6 332.39 351.23 331.959C350.559 331.176 350.651 329.998 351.434 329.327L374.018 310.007C374.802 309.337 375.981 309.428 376.652 310.211C377.323 310.994 377.232 312.172 376.448 312.843L353.865 332.163C353.513 332.464 353.08 332.612 352.65 332.612Z" fill="#262525"/>
<path d="M307.525 371.211C306.999 371.211 306.475 370.989 306.105 370.558C305.434 369.775 305.526 368.597 306.309 367.926L319.698 356.472C320.482 355.802 321.662 355.893 322.333 356.676C323.004 357.459 322.912 358.637 322.129 359.308L308.74 370.762C308.388 371.063 307.955 371.211 307.525 371.211Z" fill="#262525"/>
<path d="M308.979 411.463C308.452 411.463 307.928 411.242 307.559 410.81C306.888 410.027 306.979 408.849 307.762 408.179L393.202 335.085C393.986 334.415 395.165 334.506 395.836 335.289C396.507 336.072 396.416 337.25 395.632 337.921L310.193 411.014C309.841 411.315 309.409 411.463 308.979 411.463Z" fill="#262525"/>
<path d="M360.562 222.862C360.92 223.184 361.367 223.343 361.814 223.343C362.324 223.343 362.832 223.136 363.201 222.727C363.893 221.962 363.832 220.782 363.066 220.091C352.422 210.492 340.826 201.825 328.601 194.331C327.823 193.853 327.041 193.381 326.256 192.912C323.482 192.63 320.687 192.448 317.875 192.371C333.093 200.811 347.422 211.013 360.562 222.862Z" fill="#262525"/>
<path d="M234.635 340.658C221.192 321.571 210.868 300.883 203.811 279.238C203.245 281.543 202.75 283.871 202.328 286.218C204.425 292.134 206.757 297.965 209.316 303.68C215.448 317.374 222.938 330.538 231.579 342.806C231.943 343.323 232.521 343.599 233.108 343.599C233.48 343.599 233.855 343.489 234.182 343.259C235.026 342.666 235.228 341.501 234.635 340.658Z" fill="#262525"/>
<path d="M330.743 419.189C308.24 409.334 287.271 395.856 268.683 379.079C267.918 378.388 266.736 378.448 266.045 379.213C265.353 379.978 265.413 381.158 266.178 381.849C276.825 391.458 288.424 400.134 300.654 407.637C308.036 412.166 315.698 416.294 323.558 419.989C325.947 419.799 328.343 419.533 330.743 419.189Z" fill="#262525"/>
<path d="M409.041 276.879C408.525 275.986 407.383 275.68 406.489 276.196C405.596 276.711 405.289 277.853 405.805 278.745C414.704 294.146 421.732 310.481 426.823 327.365C427.348 324.577 427.77 321.761 428.086 318.922C423.154 304.352 416.791 290.291 409.041 276.879Z" fill="#262525"/>
<path d="M357.592 411.957L412.475 365.005C414.261 362.033 415.913 358.98 417.425 355.855L347.82 415.402C351.156 414.394 354.414 413.242 357.592 411.957Z" fill="#262525"/>
<path d="M281.917 402.517C288.02 402.517 292.968 397.574 292.968 391.477C292.968 385.38 288.02 380.438 281.917 380.438C275.815 380.438 270.867 385.38 270.867 391.477C270.867 397.574 275.815 402.517 281.917 402.517Z" fill="white"/>
<path d="M281.924 402.836C280.611 402.836 279.294 402.606 278.023 402.142C272.137 399.997 269.096 393.467 271.244 387.587C272.284 384.739 274.372 382.466 277.124 381.187C279.876 379.907 282.962 379.776 285.813 380.815C288.664 381.854 290.939 383.941 292.22 386.69C293.5 389.439 293.632 392.521 292.592 395.37C291.551 398.218 289.463 400.491 286.711 401.771C285.186 402.479 283.558 402.836 281.924 402.836ZM281.911 380.745C280.367 380.745 278.829 381.082 277.388 381.752C274.787 382.961 272.814 385.109 271.83 387.801C269.801 393.358 272.675 399.529 278.237 401.556C280.931 402.539 283.847 402.414 286.448 401.205C289.048 399.996 291.022 397.848 292.005 395.156C292.988 392.464 292.863 389.551 291.653 386.953C290.443 384.355 288.293 382.383 285.599 381.401C284.398 380.963 283.153 380.745 281.911 380.745Z" fill="#262525"/>
<path d="M413.74 293.039C417.92 293.039 421.308 289.654 421.308 285.479C421.308 281.303 417.92 277.918 413.74 277.918C409.56 277.918 406.172 281.303 406.172 285.479C406.172 289.654 409.56 293.039 413.74 293.039Z" fill="white"/>
<path d="M413.746 293.304C412.841 293.304 411.934 293.146 411.059 292.827C407.004 291.349 404.909 286.851 406.389 282.8C407.868 278.749 412.371 276.656 416.425 278.134C418.389 278.85 419.957 280.288 420.839 282.182C421.721 284.075 421.812 286.199 421.095 288.161C420.378 290.123 418.94 291.689 417.044 292.57C415.993 293.059 414.872 293.304 413.746 293.304ZM413.749 278.179C410.765 278.179 407.957 280.019 406.876 282.978C405.495 286.76 407.451 290.96 411.236 292.34C413.07 293.008 415.055 292.923 416.825 292.1C418.595 291.278 419.938 289.816 420.607 287.983C421.277 286.151 421.192 284.169 420.368 282.4C419.544 280.632 418.081 279.29 416.247 278.621C415.423 278.321 414.579 278.179 413.749 278.179Z" fill="#262525"/>
<path d="M219.666 329.437C224.345 329.437 228.137 325.648 228.137 320.974C228.137 316.301 224.345 312.512 219.666 312.512C214.988 312.512 211.195 316.301 211.195 320.974C211.195 325.648 214.988 329.437 219.666 329.437Z" fill="white"/>
<path d="M219.675 329.822C218.652 329.822 217.627 329.643 216.638 329.282C214.418 328.473 212.647 326.849 211.651 324.709C210.654 322.569 210.551 320.17 211.361 317.952C212.171 315.735 213.796 313.966 215.938 312.97C218.08 311.974 220.482 311.872 222.701 312.681C227.283 314.351 229.65 319.433 227.978 324.01C227.168 326.227 225.543 327.997 223.401 328.992C222.214 329.544 220.947 329.822 219.675 329.822ZM219.665 312.888C218.501 312.888 217.341 313.142 216.254 313.647C214.293 314.559 212.804 316.179 212.063 318.208C211.322 320.238 211.416 322.435 212.328 324.394C213.241 326.353 214.862 327.84 216.894 328.581C218.925 329.321 221.124 329.227 223.086 328.316C225.047 327.404 226.535 325.784 227.276 323.754C228.807 319.564 226.64 314.911 222.445 313.382C221.54 313.052 220.601 312.888 219.665 312.888Z" fill="#262525"/>
<path d="M413.57 306.999C411.506 312.649 414.418 318.9 420.073 320.962C422.696 321.918 425.447 321.804 427.851 320.844C428.688 314.328 428.964 307.683 428.639 300.971C428.287 300.798 427.923 300.64 427.545 300.503C421.89 298.441 415.633 301.35 413.57 306.999Z" fill="white"/>
<path d="M423.809 321.993C422.503 321.993 421.196 321.766 419.946 321.31C417.118 320.279 414.86 318.208 413.59 315.481C412.319 312.754 412.188 309.695 413.22 306.869C414.253 304.043 416.325 301.787 419.055 300.518C421.785 299.249 424.846 299.118 427.675 300.149C428.051 300.286 428.432 300.449 428.806 300.634C428.928 300.694 429.008 300.815 429.014 300.951C429.335 307.593 429.069 314.302 428.223 320.889C428.206 321.023 428.117 321.137 427.991 321.188C426.648 321.724 425.229 321.993 423.809 321.993ZM423.805 300.208C422.291 300.208 420.783 300.538 419.37 301.195C416.821 302.38 414.886 304.486 413.922 307.125C412.959 309.763 413.081 312.619 414.267 315.166C415.453 317.713 417.561 319.645 420.202 320.608C422.57 321.471 425.156 321.458 427.51 320.573C428.319 314.174 428.577 307.661 428.278 301.208C427.992 301.074 427.704 300.954 427.419 300.851C426.242 300.421 425.022 300.208 423.805 300.208Z" fill="#262525"/>
<path d="M339.344 417.618C342.856 416.84 346.293 415.907 349.652 414.83C348.816 414.282 347.905 413.821 346.925 413.464C340.842 411.247 334.186 413.769 331.008 419.145C333.782 418.741 336.562 418.234 339.344 417.618Z" fill="white"/>
<path d="M331.014 419.52C330.891 419.52 330.774 419.459 330.704 419.354C330.624 419.235 330.619 419.08 330.693 418.956C334.02 413.327 340.903 410.87 347.06 413.115C348.047 413.475 348.99 413.947 349.863 414.519C349.983 414.598 350.048 414.739 350.028 414.881C350.009 415.024 349.909 415.142 349.772 415.186C346.38 416.274 342.901 417.215 339.431 417.983C336.682 418.592 333.869 419.107 331.068 419.516C331.05 419.518 331.032 419.52 331.014 419.52ZM342.396 413.036C338.215 413.036 334.194 415.08 331.767 418.656C334.282 418.272 336.802 417.801 339.269 417.255C342.451 416.55 345.641 415.699 348.764 414.722C348.139 414.367 347.482 414.064 346.803 413.816C345.356 413.288 343.866 413.036 342.396 413.036Z" fill="#262525"/>
<path d="M315.491 397.902C308.629 395.4 301.036 398.93 298.531 405.786C296.723 410.737 298.064 416.069 301.534 419.592C307.504 420.282 313.579 420.503 319.711 420.224C321.315 418.813 322.598 416.992 323.382 414.845C325.886 407.989 322.353 400.404 315.491 397.902Z" fill="#4ACA7D"/>
<path d="M314.575 420.712C310.201 420.712 305.82 420.461 301.494 419.96C301.409 419.95 301.33 419.912 301.27 419.851C297.604 416.13 296.393 410.557 298.183 405.656C299.429 402.246 301.928 399.525 305.222 397.994C308.515 396.463 312.209 396.305 315.622 397.549C319.034 398.793 321.758 401.291 323.291 404.581C324.823 407.872 324.981 411.561 323.736 414.971C322.958 417.1 321.653 419.013 319.961 420.502C319.897 420.558 319.816 420.591 319.731 420.595C318.016 420.673 316.296 420.712 314.575 420.712ZM301.711 419.234C307.615 419.909 313.62 420.118 319.565 419.855C321.116 418.461 322.314 416.686 323.034 414.715C324.211 411.493 324.061 408.006 322.613 404.896C321.165 401.786 318.591 399.426 315.366 398.25C312.14 397.075 308.65 397.224 305.537 398.671C302.425 400.118 300.062 402.689 298.885 405.912C297.208 410.503 298.318 415.717 301.711 419.234Z" fill="#262525"/>
<path d="M202.934 298.313C207.329 299.915 212.192 297.655 213.795 293.264C215.399 288.873 213.136 284.015 208.741 282.413C206.845 281.721 204.861 281.751 203.09 282.359C202.037 287.234 201.3 292.203 200.898 297.238C201.511 297.676 202.191 298.042 202.934 298.313Z" fill="white"/>
<path d="M205.827 299.198C204.822 299.198 203.802 299.026 202.804 298.662C202.05 298.388 201.336 298.01 200.679 297.54C200.573 297.464 200.514 297.337 200.525 297.207C200.924 292.209 201.663 287.187 202.723 282.279C202.751 282.151 202.843 282.047 202.967 282.005C204.875 281.349 206.971 281.369 208.868 282.061C213.449 283.731 215.817 288.814 214.145 293.391C212.837 296.971 209.438 299.198 205.827 299.198ZM203.061 297.961C207.255 299.49 211.912 297.325 213.443 293.135C214.973 288.945 212.806 284.292 208.612 282.762C206.941 282.153 205.102 282.114 203.409 282.646C202.395 287.385 201.681 292.229 201.287 297.053C201.84 297.428 202.436 297.733 203.061 297.961Z" fill="#262525"/>
<path d="M307.664 192.55C307.904 197.713 311.182 202.474 316.346 204.356C323.208 206.858 330.801 203.328 333.305 196.473C333.608 195.643 333.822 194.803 333.953 193.963C325.396 192.493 316.585 191.992 307.664 192.55Z" fill="white"/>
<path d="M320.873 205.529C319.327 205.529 317.758 205.264 316.224 204.704C311.057 202.82 307.553 198.056 307.297 192.565C307.288 192.362 307.444 192.188 307.647 192.175C316.463 191.624 325.337 192.1 334.023 193.592C334.224 193.627 334.36 193.816 334.329 194.018C334.192 194.894 333.968 195.762 333.663 196.598C331.652 202.104 326.425 205.529 320.873 205.529ZM308.066 192.898C308.443 197.931 311.712 202.265 316.48 204.003C323.138 206.431 330.531 202.993 332.96 196.342C333.207 195.667 333.397 194.97 333.528 194.265C325.14 192.853 316.577 192.393 308.066 192.898Z" fill="#262525"/>
<path d="M359.492 215.091C361.671 209.124 359.277 202.605 354.096 199.365C352.185 198.66 350.252 198.005 348.301 197.402C342.456 196.85 336.748 200.263 334.641 206.031C332.137 212.887 335.67 220.473 342.532 222.974C349.394 225.476 356.988 221.946 359.492 215.091Z" fill="#4ACA7D"/>
<path d="M347.077 224.155C345.504 224.155 343.928 223.879 342.407 223.324C338.994 222.08 336.27 219.583 334.738 216.292C333.205 213.002 333.047 209.312 334.292 205.902C336.412 200.098 342.188 196.449 348.339 197.029C348.364 197.032 348.389 197.037 348.414 197.044C350.366 197.648 352.322 198.311 354.227 199.014C354.251 199.023 354.274 199.034 354.296 199.048C356.897 200.674 358.89 203.171 359.909 206.081C360.942 209.031 360.92 212.276 359.845 215.217C358.6 218.627 356.1 221.348 352.806 222.879C350.981 223.728 349.032 224.155 347.077 224.155ZM347.058 197.715C341.711 197.715 336.858 201.055 334.994 206.158C333.817 209.38 333.967 212.867 335.415 215.977C336.864 219.087 339.437 221.447 342.663 222.623C345.888 223.798 349.378 223.649 352.491 222.202C355.604 220.755 357.966 218.184 359.143 214.962C361.207 209.312 359.015 202.9 353.932 199.701C352.063 199.012 350.145 198.362 348.23 197.769C347.838 197.733 347.446 197.715 347.058 197.715Z" fill="#262525"/>
<path d="M248.322 389.695L239.696 378.462L237.188 321.936L252.749 310.008L280.379 345.986L287.06 340.865L296.312 352.912L289.631 358.033L297.757 368.614L283.825 379.293L275.698 368.712L248.322 389.695ZM251.547 335.24L253.736 366.407L267.424 355.915L251.547 335.24Z" fill="#262525"/>
<path d="M248.328 389.936C248.256 389.936 248.184 389.904 248.137 389.843L239.511 378.61C239.481 378.571 239.464 378.523 239.461 378.474L236.953 321.948C236.95 321.869 236.985 321.794 237.047 321.747L252.609 309.819C252.714 309.738 252.864 309.758 252.945 309.863L280.429 345.651L286.92 340.676C287.025 340.595 287.175 340.616 287.256 340.72L296.507 352.767C296.588 352.872 296.568 353.023 296.463 353.103L289.972 358.078L297.953 368.47C297.992 368.52 298.009 368.584 298 368.647C297.992 368.71 297.959 368.767 297.908 368.806L283.976 379.485C283.871 379.566 283.72 379.545 283.64 379.441L275.659 369.049L248.473 389.887C248.43 389.92 248.379 389.936 248.328 389.936ZM239.937 378.378L248.372 389.361L275.558 368.523C275.663 368.442 275.813 368.462 275.894 368.567L283.874 378.959L297.426 368.571L289.446 358.18C289.365 358.075 289.385 357.924 289.49 357.844L295.981 352.869L287.021 341.202L280.53 346.177C280.425 346.258 280.275 346.238 280.194 346.133L252.71 310.345L237.438 322.051L239.937 378.378ZM253.741 366.648C253.708 366.648 253.675 366.641 253.643 366.627C253.563 366.591 253.509 366.513 253.502 366.425L251.313 335.258C251.306 335.153 251.368 335.055 251.467 335.017C251.566 334.98 251.678 335.012 251.743 335.096L267.62 355.771C267.659 355.821 267.676 355.885 267.668 355.948C267.659 356.011 267.626 356.068 267.576 356.107L253.887 366.599C253.845 366.631 253.793 366.648 253.741 366.648ZM251.847 336.02L253.95 365.947L267.094 355.872L251.847 336.02Z" fill="#4ACA7D"/>
<path d="M276.32 301.513C275.806 293.373 279.569 286.221 287.608 280.059C295.646 273.898 303.534 272.119 311.273 274.722C319.011 277.326 326.465 283.295 333.632 292.628C340.883 302.07 344.765 310.862 345.279 319.003C345.792 327.144 342.029 334.295 333.991 340.457C325.952 346.619 318.063 348.398 310.326 345.794C302.587 343.191 295.093 337.167 287.842 327.725C280.675 318.392 276.833 309.655 276.32 301.513ZM308.431 291.836C304.964 289.796 301.357 290.21 297.61 293.083C293.862 295.956 292.525 299.33 293.602 303.202C294.679 307.077 297.321 311.753 301.53 317.234C304.365 320.924 306.925 323.811 309.214 325.891C311.503 327.974 313.886 329.251 316.363 329.722C318.84 330.196 321.382 329.431 323.989 327.433C326.596 325.435 327.992 323.181 328.177 320.667C328.362 318.155 327.744 315.526 326.324 312.777C324.905 310.03 322.778 306.811 319.944 303.12C315.735 297.639 311.897 293.879 308.431 291.836Z" fill="#262525"/>
<path d="M317.275 347.188C314.917 347.188 312.569 346.798 310.254 346.019C302.508 343.413 294.905 337.307 287.657 327.869C280.492 318.54 276.599 309.676 276.085 301.526C275.827 297.431 276.656 293.529 278.549 289.931C280.438 286.341 283.438 282.955 287.467 279.867C291.495 276.78 295.545 274.761 299.505 273.868C303.474 272.973 307.461 273.183 311.354 274.493C319.102 277.1 326.663 283.152 333.827 292.48C341.073 301.916 345.009 310.834 345.523 318.986C345.781 323.082 344.952 326.983 343.059 330.582C341.17 334.172 338.17 337.557 334.142 340.645C330.113 343.733 326.063 345.751 322.103 346.644C320.494 347.007 318.882 347.188 317.275 347.188ZM304.383 273.812C298.915 273.812 293.349 275.963 287.759 280.247C279.824 286.329 276.058 293.478 276.564 301.496C277.071 309.55 280.932 318.324 288.037 327.577C295.226 336.938 302.752 342.99 310.407 345.565C318.028 348.129 325.915 346.346 333.85 340.265C341.783 334.184 345.549 327.035 345.044 319.016C344.536 310.961 340.634 302.131 333.446 292.772C326.341 283.521 318.857 277.524 311.201 274.947C308.95 274.19 306.675 273.812 304.383 273.812ZM317.785 330.094C317.294 330.094 316.807 330.048 316.323 329.956C313.813 329.478 311.369 328.17 309.058 326.066C306.774 323.991 304.179 321.068 301.345 317.377C297.137 311.898 294.456 307.149 293.376 303.264C292.275 299.306 293.652 295.816 297.469 292.891C301.283 289.967 305.014 289.542 308.558 291.628C312.037 293.679 315.933 297.495 320.139 302.972C322.967 306.653 325.121 309.915 326.542 312.665C327.976 315.442 328.608 318.139 328.421 320.683C328.232 323.254 326.792 325.589 324.14 327.621C321.994 329.266 319.863 330.094 317.785 330.094ZM304.053 290.814C302.001 290.814 299.897 291.634 297.761 293.271C294.114 296.066 292.795 299.385 293.838 303.136C294.901 306.962 297.555 311.655 301.725 317.086C304.542 320.753 307.118 323.656 309.38 325.712C311.626 327.755 313.992 329.024 316.413 329.485C318.807 329.942 321.308 329.187 323.848 327.241C326.387 325.295 327.764 323.077 327.943 320.647C328.123 318.193 327.509 315.582 326.116 312.885C324.708 310.16 322.569 306.923 319.758 303.264C315.59 297.836 311.74 294.06 308.314 292.041C306.924 291.222 305.502 290.814 304.053 290.814Z" fill="#4ACA7D"/>
<path d="M356.603 306.699L347.977 295.466L345.469 238.94L361.03 227.012L388.66 262.99L395.341 257.869L404.593 269.916L397.912 275.036L406.038 285.618L392.106 296.297L383.98 285.715L356.603 306.699ZM359.828 252.244L362.017 283.411L375.706 272.919L359.828 252.244Z" fill="#262525"/>
<path d="M356.609 306.94C356.598 306.94 356.588 306.94 356.578 306.938C356.514 306.93 356.457 306.897 356.418 306.846L347.792 295.613C347.762 295.574 347.745 295.527 347.743 295.478L345.235 238.952C345.231 238.873 345.266 238.798 345.328 238.751L360.89 226.823C360.995 226.742 361.146 226.762 361.226 226.867L388.71 262.655L395.201 257.68C395.306 257.599 395.457 257.619 395.537 257.724L404.789 269.771C404.869 269.876 404.85 270.026 404.745 270.107L398.254 275.082L406.234 285.474C406.273 285.524 406.29 285.588 406.282 285.651C406.273 285.714 406.24 285.771 406.19 285.81L392.258 296.489C392.153 296.569 392.002 296.55 391.921 296.444L383.941 286.053L356.755 306.89C356.713 306.923 356.661 306.94 356.609 306.94ZM348.219 295.382L356.653 306.365L383.839 285.527C383.944 285.446 384.095 285.466 384.175 285.571L392.156 295.963L405.708 285.575L397.727 275.184C397.688 275.133 397.671 275.07 397.68 275.007C397.688 274.944 397.721 274.887 397.772 274.848L404.262 269.873L395.303 258.206L388.812 263.181C388.707 263.262 388.556 263.242 388.476 263.137L360.992 227.349L345.72 239.055L348.219 295.382ZM362.023 283.652C361.99 283.652 361.956 283.645 361.925 283.631C361.844 283.595 361.79 283.517 361.784 283.429L359.594 252.262C359.587 252.157 359.65 252.059 359.748 252.021C359.847 251.984 359.959 252.016 360.024 252.1L375.901 272.775C375.982 272.88 375.962 273.03 375.857 273.111L362.169 283.603C362.126 283.635 362.075 283.652 362.023 283.652ZM360.129 253.024L362.231 282.951L375.375 272.876L360.129 253.024Z" fill="#4ACA7D"/>
</svg>
