<svg width="66" height="66" viewBox="0 0 66 66" fill="none" xmlns="http://www.w3.org/2000/svg">
<mask id="mask0_9333_758" style="mask-type:luminance" maskUnits="userSpaceOnUse" x="0" y="0" width="66" height="66">
<path d="M66 0H0V66H66V0Z" fill="white"/>
</mask>
<g mask="url(#mask0_9333_758)">
<path d="M30.561 0.205215C30.2388 0.321231 29.7747 0.540371 29.5298 0.707949C29.272 0.875524 26.1911 3.89193 22.672 7.43686C15.3243 14.8232 15.6595 14.372 15.6595 16.5634C15.6595 17.7107 15.6981 17.9427 16.0333 18.6517C16.4845 19.6314 17.49 20.6368 18.4954 21.088C19.3848 21.5005 20.79 21.6165 21.7181 21.3587L22.3626 21.1783L24.1931 22.9958L26.0364 24.8134L13.6098 37.2529C6.77782 44.0978 1.0286 49.9502 0.835243 50.2595C-0.312027 52.1286 -0.286246 54.797 0.899692 56.5115C2.54969 58.922 5.63056 59.7083 8.28602 58.3806C8.65982 58.2002 12.8364 54.1138 21.4603 45.49L34.0931 32.8701L35.9493 34.7263C37.4188 36.1958 37.7798 36.6342 37.7153 36.8275C37.4833 37.3946 37.406 38.4517 37.522 39.2123C37.7025 40.3724 38.1665 41.249 39.056 42.0611C40.6028 43.5048 42.7813 43.8013 44.6763 42.8474C45.1919 42.5896 46.8419 41.004 51.8435 35.9896C58.0051 29.815 58.379 29.4154 58.6368 28.6935C59.6036 26.0767 58.6368 23.5243 56.2391 22.3384C55.311 21.8873 55.195 21.8486 54.0864 21.8615C53.4419 21.8743 52.7458 21.9388 52.5395 22.029L52.1528 22.1837L44.47 14.5009L36.7743 6.80521L36.9548 6.2767C37.2513 5.43881 37.1223 3.73724 36.697 2.80912C36.2716 1.86811 35.2661 0.862638 34.3122 0.411465C33.7063 0.127871 33.3712 0.0634181 32.3528 0.0376368C31.4891 0.0118556 30.9606 0.0634181 30.561 0.205215ZM33.5388 3.10561C34.3509 3.68568 34.6473 4.97474 34.1704 5.90287C34.0286 6.16068 31.1798 9.11265 27.8153 12.4513C22.9556 17.2982 21.615 18.5615 21.2153 18.6904C19.952 19.09 18.547 18.2521 18.3407 16.9759C18.1473 15.79 17.9411 16.0349 24.6572 9.30603C28.0731 5.87709 30.9864 3.01537 31.1282 2.93802C31.8243 2.55131 32.8556 2.61576 33.5388 3.10561ZM44.7278 29.0673L39.5072 34.288L32.095 26.8759L24.6829 19.4638L29.9036 14.2431L35.1243 9.0224L42.5364 16.4345L49.9485 23.8467L44.7278 29.0673ZM55.311 24.9423C55.8395 25.2775 56.3294 26.167 56.3294 26.7599C56.3165 27.6236 55.8911 28.1134 49.6778 34.3138C44.2251 39.7279 43.4388 40.4755 42.9618 40.6045C41.17 41.0685 39.5973 39.1736 40.3966 37.4978C40.5126 37.24 43.2197 34.4298 46.7645 30.9107C51.4825 26.2056 53.0165 24.7361 53.3645 24.633C53.9833 24.4525 54.7567 24.5685 55.311 24.9423ZM30.7028 32.3802L29.2591 33.8368L27.1966 31.7743L25.1341 29.7118L26.5778 28.2681L28.0345 26.8115L30.097 28.874L32.1595 30.9365L30.7028 32.3802ZM17.3353 45.7736C6.91962 56.2021 6.77782 56.331 5.68212 56.331C4.58641 56.331 3.40047 55.5833 2.94931 54.6036C2.65282 53.9592 2.63993 52.8763 2.89774 52.2318C3.03954 51.8967 6.09462 48.7642 13.12 41.7388L23.136 31.7099L25.1985 33.7724L27.261 35.8349L17.3353 45.7736Z" fill="#DE910D"/>
<path d="M32.0967 15.8928C31.6584 16.1119 31.2974 16.8468 31.4006 17.3366C31.4393 17.5428 31.6455 17.9038 31.8646 18.1229C32.2256 18.5096 32.2384 18.5354 32.0838 19.1284C31.8002 20.2628 32.0967 21.41 32.9217 22.2737C33.4244 22.8151 33.8627 23.0471 34.6748 23.2018C35.5384 23.3694 36.3634 23.2018 37.8201 22.5572C38.4646 22.2737 39.0705 22.0416 39.1608 22.0416C39.2509 22.0416 39.4701 22.1834 39.6377 22.3639C40.3853 23.0987 39.728 24.3878 38.3744 24.826C37.5623 25.0838 37.3045 25.2901 37.124 25.8444C36.9436 26.3858 37.2014 27.069 37.6912 27.4041C38.1166 27.6749 38.9545 27.5846 39.8955 27.1463L40.553 26.8499L40.9912 27.2366C41.365 27.5718 41.4811 27.6104 42.0096 27.5459C42.7959 27.4557 43.1826 27.0174 43.1826 26.2311C43.1826 25.7799 43.1053 25.5608 42.783 25.2128C42.4092 24.7744 42.3963 24.7229 42.5381 24.2846C42.6283 24.001 42.6799 23.4338 42.6412 22.8796C42.5381 21.2424 41.5455 19.9276 40.1018 19.5022C39.1221 19.2186 38.2584 19.3475 36.892 19.9534C36.2733 20.2369 35.6545 20.4947 35.5256 20.5463C35.2033 20.6494 34.6748 20.3014 34.6748 19.9791C34.6748 19.6053 35.4353 18.819 36.0541 18.5483C36.7631 18.2389 37.0983 17.6331 36.9178 16.9369C36.6728 15.9702 35.6674 15.6737 34.5846 16.2151C34.1076 16.46 34.0431 16.4729 33.8884 16.2924C33.4631 15.7768 32.6768 15.5963 32.0967 15.8928Z" fill="#DE910D"/>
<path d="M63.223 32.8839C62.8233 33.103 56.7132 39.2131 56.507 39.5998C56.2105 40.1542 56.2879 40.6827 56.7004 41.1467C57.0226 41.5077 57.1644 41.5721 57.6671 41.5721H58.2601L61.6632 38.169C63.803 36.0292 65.0921 34.6498 65.1308 34.4436C65.3499 33.335 64.164 32.3811 63.223 32.8839Z" fill="#DE910D"/>
<path d="M57.0094 44.2664C56.7 44.5372 56.6484 44.6789 56.6484 45.2462C56.6484 45.8133 56.7 45.9551 57.0094 46.2258L57.3703 46.5352H61.3406H65.3109L65.659 46.2C66.1359 45.7102 66.1359 44.782 65.659 44.2922L65.3109 43.957H61.3406H57.3703L57.0094 44.2664Z" fill="#DE910D"/>
<path d="M29.1715 51.3562L28.8106 51.6656L28.7719 54.45L28.7332 57.2344H25.7297H22.7262L22.4039 57.5566C21.9656 57.9949 21.9141 58.3945 21.9141 61.6172C21.9141 64.8399 21.9656 65.2394 22.4039 65.6778L22.7262 66H44.0215H65.3168L65.6649 65.6649L66 65.3168V61.6172V57.9176L65.6649 57.5695L65.3168 57.2344H62.3132H59.3097L59.2711 54.45L59.2324 51.6656L58.8715 51.3562L58.5106 51.0469H44.0215H29.5324L29.1715 51.3562ZM56.5899 55.4297V57.2344H52.9289H49.2551L48.8941 57.5437C48.5847 57.8144 48.5332 57.9562 48.5332 58.5234C48.5332 59.0906 48.5847 59.2324 48.8941 59.5031L49.2551 59.8125H56.2805H63.293V61.6172V63.4219H43.957H24.6211V61.6172V59.8125H31.6981H38.7879L39.1488 59.5031C39.4582 59.2324 39.5097 59.0906 39.5097 58.5234C39.5097 57.9562 39.4582 57.8144 39.1488 57.5437L38.7879 57.2344H35.1141H31.4531V55.4297V53.625H44.0215H56.5899V55.4297Z" fill="#DE910D"/>
<path d="M43.0875 57.5417C42.7781 57.8124 42.7266 57.9542 42.7266 58.5214C42.7266 59.3851 43.1519 59.8104 44.0156 59.8104C44.8792 59.8104 45.3047 59.3851 45.3047 58.5214C45.3047 57.9542 45.2531 57.8124 44.9437 57.5417C44.441 57.1163 43.5903 57.1163 43.0875 57.5417Z" fill="#DE910D"/>
</g>
</svg>
