<svg width="217" height="103" viewBox="0 0 217 103" fill="none" xmlns="http://www.w3.org/2000/svg">
<path fill-rule="evenodd" clip-rule="evenodd" d="M165.003 10.3522C135.68 18.9323 116.798 26.5864 79.8677 44.8642C76.6198 46.4715 71.5407 48.9808 68.581 50.4405C44.1988 62.4639 11.7076 84.7297 3.87024 94.7855C2.24484 96.8713 -0.223652 102.111 0.0162617 102.965C0.0559259 103.107 0.164644 102.839 0.552647 101.644C2.34138 96.1311 9.48647 89.7036 27.9549 76.9945C38.8642 69.487 51.0114 62.0889 61.2237 56.7326C69.019 52.6439 106.45 34.817 107.803 34.5494C108.081 34.4943 106.68 35.2693 104.69 36.2713C83.3186 47.0372 76.126 51.0044 63.6345 58.9181C53.9557 65.0495 48.4123 69.1263 34.4765 80.3629C29.2334 84.5902 29.3788 84.4465 29.5104 85.2795C29.844 87.3897 30.6222 87.2286 35.0345 84.1353C64.9586 63.1592 83.6012 53.436 114.135 42.88C122.35 40.0399 151.223 31.675 150.837 32.2469C150.616 32.5737 142.315 36.4522 128.348 42.7531C97.1006 56.8511 77.916 68.7552 58.0582 86.3678C52.5522 91.2514 51.6839 92.5542 52.7735 94.3003C53.9242 96.1429 57.4079 94.5898 73.8519 84.901C98.4795 70.3903 107.837 65.7582 128.577 57.8111C133.398 55.9638 141.778 53.1437 141.596 53.4299C141.546 53.5098 136.552 56.3218 130.499 59.6786C115.353 68.0776 105.737 73.8336 105.561 74.6057C105.29 75.7962 105.873 77.2503 106.721 77.5022C107.756 77.8095 110.165 76.8383 115.526 73.9521C127.151 67.6928 139.137 62.7464 157.228 56.7418C159.935 55.843 163.07 54.7329 164.193 54.2747C166.807 53.209 171.1 52.0509 173.181 51.8502C174.072 51.7641 175.18 51.6555 175.643 51.6091C177.4 51.4324 171.079 51.2231 168.452 51.3706C161.865 51.7409 153.676 53.6367 144.268 56.969C142.111 57.7334 140.313 58.3214 140.275 58.276C140.195 58.18 142.288 57.0674 152.459 51.7983C160.256 47.7582 160.443 47.6226 160.342 46.0516C160.278 45.0549 159.763 43.988 159.133 43.5481C158.656 43.2154 146.569 46.6244 140.128 48.908C124.688 54.3829 116.616 57.6761 106.67 62.5572C96.6061 67.4961 90.0543 71.251 73.8667 81.3561C64.0117 87.5082 58.7812 90.5999 56.9518 91.3552L55.818 91.8231L57.0115 90.618C60.6931 86.9016 73.5999 76.7752 81.1336 71.6925C96.7833 61.1344 107.849 55.2412 133.214 43.9557C154.526 34.4732 158.799 32.2023 158.671 30.4259C158.534 28.5118 157.569 27.6131 155.577 27.5421C152.859 27.4452 122.04 35.9779 111.337 39.7902C100.844 43.5283 88.5571 48.5977 82.2143 51.8064C81.5409 52.1472 80.7904 52.4628 80.5467 52.5079C78.755 52.8392 101.401 41.1204 114.504 34.936C128.858 28.1611 140.375 23.3779 156.548 17.4752C167.005 13.6588 194.467 6.65992 205.889 4.90073C216.47 3.27114 216.842 3.18719 216.959 2.41078C217.08 1.60098 216.939 1.06293 216.45 0.474056C215.829 -0.275422 213.543 -0.144424 208.569 0.925609C206.739 1.31929 202.65 2.01672 199.482 2.47511C196.315 2.93376 192.408 3.53005 190.799 3.80013C187.764 4.3098 171.774 8.3712 165.003 10.3522ZM112.536 32.5393C112.473 32.6375 112.307 32.6874 112.166 32.6499C112.026 32.6124 112.078 32.5321 112.281 32.4714C112.484 32.4108 112.598 32.4412 112.536 32.5393ZM111.007 33.2629C110.873 33.3694 110.595 33.4462 110.389 33.4339C110.183 33.4213 110.292 33.3342 110.632 33.2401C110.972 33.1462 111.14 33.1565 111.007 33.2629ZM109.411 33.9935C109.243 34.1072 108.936 34.1899 108.731 34.1774C108.526 34.1649 108.664 34.0719 109.039 33.9708C109.413 33.8697 109.581 33.8799 109.411 33.9935ZM79.8994 52.9302C79.7647 53.0372 79.514 53.1048 79.3424 53.0806C79.1708 53.056 79.281 52.9684 79.5874 52.8858C79.8938 52.803 80.0342 52.823 79.8994 52.9302ZM78.6116 53.5614C78.5481 53.661 78.4088 53.6986 78.3022 53.645C78.1957 53.5915 78.2477 53.5102 78.4179 53.4642C78.5882 53.4183 78.6754 53.4621 78.6116 53.5614ZM176.822 51.6582C176.929 51.7118 177.068 51.6742 177.132 51.5746C177.195 51.4753 177.108 51.4315 176.938 51.4775C176.768 51.5234 176.716 51.6048 176.822 51.6582Z" fill="#FFCE32"/>
</svg>
