<svg width="40" height="40" viewBox="0 0 40 40" fill="none" xmlns="http://www.w3.org/2000/svg">
<g clip-path="url(#clip0_7316_822)">
<path d="M39.3303 20.0013C39.3303 31.0893 30.0037 39.9927 18.765 39.2967C9.13568 38.7 1.29834 30.8627 0.702342 21.2333C0.00567526 9.99466 8.90901 0.667997 19.997 0.667997C22.9409 0.662945 25.8466 1.33373 28.4903 2.62866C29.1777 2.966 29.4297 3.822 29.0503 4.48733L29.0477 4.492C28.8788 4.78725 28.6034 5.00672 28.2778 5.10539C27.9523 5.20406 27.6014 5.17446 27.297 5.02266C24.7517 3.76933 21.8417 3.15933 18.7703 3.37866C10.7037 3.954 4.11568 10.424 3.39768 18.4793C2.50434 28.5053 10.539 36.9207 20.4397 36.662C28.9183 36.4407 35.9957 29.7167 36.6163 21.258C36.7781 19.1351 36.5294 17.0008 35.8837 14.972C35.7883 14.6707 35.8039 14.3453 35.9277 14.0545C36.0514 13.7637 36.2751 13.5268 36.5583 13.3867C37.2877 13.022 38.1817 13.3867 38.429 14.1633C39.0281 16.0513 39.3325 18.0206 39.3303 20.0013Z" fill="#4ACA7D"/>
<path d="M10.2736 14.9826L20.8162 29.2473C20.9978 29.4953 21.2386 29.694 21.5167 29.8252C21.7947 29.9563 22.1012 30.0158 22.4081 29.9981C22.715 29.9805 23.0127 29.8863 23.2739 29.7242C23.5351 29.5621 23.7516 29.3372 23.9036 29.07L39.1382 2.69796C39.9316 1.32462 38.1216 -0.0560422 37.0422 1.09996L21.1702 18.1013L11.9609 13.004C10.7162 12.3153 9.42289 13.8313 10.2736 14.9826Z" fill="#4ACA7D"/>
<path d="M37.9487 12.736C37.6808 12.6222 37.3914 12.568 37.1005 12.5771C36.8097 12.5862 36.5242 12.6584 36.264 12.7887C35.8372 12.9986 35.5001 13.3552 35.3144 13.7931C35.1287 14.2311 35.1068 14.7212 35.2527 15.174C35.872 17.1027 36.108 19.1327 35.956 21.208C35.362 29.288 28.5413 35.7827 20.426 35.994C15.8813 36.1307 11.4633 34.2733 8.33799 30.946C6.79198 29.2953 5.61217 27.3366 4.87585 25.1982C4.13953 23.0598 3.86333 20.7899 4.06533 18.5373C4.75266 10.8253 11.0967 4.59333 18.8213 4.042C21.6627 3.84067 24.498 4.38467 27.006 5.62C27.4638 5.84548 27.9904 5.88791 28.4785 5.73865C28.9665 5.58939 29.3793 5.25967 29.6327 4.81667C29.906 4.33533 29.97 3.75667 29.8073 3.22733C29.7293 2.96802 29.5984 2.72768 29.4228 2.52149C29.2473 2.3153 29.0309 2.14772 28.7873 2.02933C26.0413 0.682667 23.0847 0 20 0C17.374 0 14.8207 0.500667 12.4133 1.48867C12.3323 1.52193 12.2587 1.57083 12.1966 1.63255C12.1345 1.69428 12.0852 1.76763 12.0515 1.84842C12.0177 1.9292 12.0002 2.01585 12 2.10339C11.9997 2.19094 12.0167 2.27769 12.05 2.35867C12.0831 2.43976 12.1319 2.51352 12.1936 2.5757C12.2553 2.63789 12.3287 2.68727 12.4095 2.72103C12.4904 2.75479 12.5771 2.77225 12.6647 2.77242C12.7523 2.77258 12.839 2.75545 12.92 2.722C15.1665 1.80051 17.5719 1.32871 20 1.33333C22.8793 1.33333 25.6387 1.97 28.2 3.226C28.2796 3.2652 28.3502 3.32034 28.4076 3.38801C28.4649 3.45568 28.5077 3.53442 28.5333 3.61933C28.5887 3.80067 28.568 3.992 28.4713 4.16067C28.298 4.464 27.9147 4.582 27.5947 4.424C24.876 3.08467 21.8127 2.49333 18.726 2.71333C10.3553 3.30933 3.48199 10.062 2.73666 18.4187C2.51826 20.8585 2.81769 23.317 3.61535 25.6331C4.413 27.9492 5.69089 30.0707 7.36533 31.8587C9.04105 33.6395 11.0734 35.047 13.3299 35.9893C15.5863 36.9316 18.0161 37.3875 20.4607 37.3273C29.252 37.098 36.642 30.0613 37.2847 21.306C37.45 19.0593 37.1927 16.8593 36.5213 14.7667C36.4739 14.617 36.482 14.4553 36.544 14.311C36.6061 14.1668 36.718 14.0498 36.8593 13.9813C37.0373 13.892 37.2447 13.8847 37.4287 13.964C37.5154 13.9997 37.5933 14.0541 37.6568 14.1232C37.7202 14.1923 37.7678 14.2745 37.796 14.364C38.3745 16.1867 38.668 18.0877 38.666 20C38.666 25.2073 36.576 30.0387 32.7827 33.6047C28.9907 37.1693 24.0247 38.952 18.808 38.6293C9.44666 38.0493 1.94999 30.5527 1.36999 21.1907C0.917995 13.8947 4.604 7.17267 10.9887 3.64733C11.1373 3.55878 11.2457 3.41592 11.2909 3.24893C11.3361 3.08194 11.3147 2.90391 11.2311 2.75244C11.1475 2.60098 11.0083 2.48795 10.8428 2.43724C10.6774 2.38652 10.4988 2.4021 10.3447 2.48067C3.50399 6.25667 -0.444672 13.458 0.0399944 21.2727C0.661328 31.3053 8.69466 39.3393 18.7267 39.96C19.158 39.9867 19.588 40.0007 20.016 40.0007C25.1307 40.0007 29.9473 38.1 33.6967 34.576C35.6834 32.7028 37.2672 30.444 38.3511 27.9378C39.4351 25.4316 39.9963 22.7306 40.0007 20C40.0007 17.9373 39.6867 15.9053 39.0687 13.96C38.9818 13.6871 38.8367 13.4364 38.6434 13.2251C38.4502 13.0137 38.2127 12.8469 37.9487 12.736Z" fill="#4ACA7D"/>
<path d="M39.1698 0.402438C38.3358 -0.214229 37.2605 -0.113563 36.5511 0.645104L21.0345 17.2664L12.2805 12.4204C11.4491 11.9604 10.4685 12.1324 9.83981 12.8491C9.19848 13.5804 9.15648 14.5971 9.73381 15.3791L20.2758 29.6431C20.5233 29.9802 20.851 30.2501 21.2294 30.4283C21.6077 30.6064 22.0245 30.6872 22.442 30.6632C22.8595 30.6392 23.2643 30.5113 23.6198 30.2909C23.9752 30.0706 24.2699 29.765 24.4771 29.4018L39.7118 3.0311C40.2425 2.11244 40.0191 1.03177 39.1698 0.402438ZM38.5571 2.36444L23.3225 28.7364C23.1165 29.0924 22.7671 29.3098 22.3631 29.3331C22.1671 29.3454 21.9712 29.3076 21.7938 29.2233C21.6164 29.139 21.4634 29.0109 21.3491 28.8511L10.8065 14.5871C10.5645 14.2604 10.6665 13.9291 10.8425 13.7284C10.9231 13.6371 11.2171 13.3571 11.6345 13.5878L20.8431 18.6851C21.1091 18.8324 21.4438 18.7811 21.6538 18.5571L37.5265 1.5551C37.8878 1.1651 38.2685 1.39377 38.3758 1.47377C38.4571 1.53444 38.8491 1.85977 38.5571 2.36444Z" fill="#4ACA7D"/>
</g>
<defs>
<clipPath id="clip0_7316_822">
<rect width="40" height="40" fill="white"/>
</clipPath>
</defs>
</svg>
