<svg width="152" height="152" viewBox="0 0 152 152" fill="none" xmlns="http://www.w3.org/2000/svg">
<path d="M77.2838 1.19489C77.1693 -0.398288 74.8307 -0.398301 74.7162 1.19488L70.915 54.0986L61.3012 34.9083C60.5858 33.4802 58.4251 34.3752 58.929 35.8909L66.6519 59.1198L24.0126 22.197C22.8051 21.1514 21.1514 22.8051 22.197 24.0126L57.5814 64.8754L36.8403 57.9796C35.3246 57.4757 34.4296 59.6364 35.8577 60.3518L56.5863 70.7363L1.19489 74.7162C-0.398288 74.8307 -0.398301 77.1693 1.19488 77.2838L56.4848 81.2564L35.8577 91.59C34.4296 92.3055 35.3246 94.4661 36.8403 93.9622L57.6521 87.0429L22.197 127.987C21.1514 129.195 22.8051 130.849 24.0126 129.803L66.6248 92.9038L58.929 116.051C58.4251 117.567 60.5858 118.462 61.3012 117.034L70.9114 97.8506L74.7162 150.805C74.8307 152.398 77.1693 152.398 77.2838 150.805L81.3195 94.6373L92.5394 117.034C93.2549 118.462 95.4155 117.567 94.9116 116.051L87.9601 95.142L127.987 129.803C129.195 130.849 130.849 129.195 129.803 127.987L93.6037 86.1836L117 93.9622C118.516 94.4661 119.411 92.3055 117.983 91.59L97.125 81.1408L150.805 77.2838C152.398 77.1693 152.398 74.8307 150.805 74.7162L97.0235 70.852L117.983 60.3518C119.411 59.6364 118.516 57.4757 117 57.9796L93.6744 65.7348L129.803 24.0126C130.849 22.8051 129.195 21.1514 127.987 22.197L87.9329 56.8815L94.9116 35.8909C95.4155 34.3752 93.2549 33.4802 92.5394 34.9083L81.3158 57.3119L77.2838 1.19489Z" fill="#893DF6"/>
</svg>
