<svg width="227" height="215" viewBox="0 0 227 215" fill="none" xmlns="http://www.w3.org/2000/svg">
<g opacity="0.3">
<path d="M103.156 33.8701C104.133 52.962 105.216 67.7707 107.273 79.3086C109.418 91.3369 112.631 99.8741 117.935 106.022C123.246 112.18 130.603 115.882 140.908 118.352C150.575 120.668 162.885 121.911 178.612 123.06C162.88 124.205 150.567 125.448 140.899 127.764C130.593 130.233 123.236 133.935 117.926 140.094C112.624 146.243 109.414 154.781 107.271 166.811C105.215 178.349 104.133 193.159 103.156 212.25C102.18 193.159 101.096 178.35 99.0391 166.812C96.8943 154.784 93.6817 146.248 88.3779 140.1C83.0664 133.942 75.7095 130.239 65.4043 127.77C55.7373 125.453 43.4273 124.209 27.6992 123.061C43.4324 121.915 55.745 120.675 65.4131 118.358C75.7194 115.889 83.0764 112.187 88.3867 106.028C93.6892 99.8789 96.8989 91.3401 99.042 79.3105C101.098 67.7715 102.18 52.9621 103.156 33.8701Z" stroke="#DE910D"/>
<path d="M182.069 5.51758C182.578 14.5075 183.177 21.6938 184.204 27.4551C185.427 34.3139 187.263 39.2166 190.317 42.7588C193.38 46.3101 197.614 48.4339 203.504 49.8457C208.436 51.028 214.568 51.7168 222.204 52.3164C214.573 52.9157 208.443 53.604 203.513 54.7852C197.624 56.1957 193.39 58.3181 190.326 61.8682C187.271 65.4093 185.433 70.3114 184.208 77.1709C183.179 82.933 182.578 90.1212 182.069 99.1143C181.561 90.1249 180.963 82.9388 179.936 77.1777C178.713 70.319 176.877 65.4162 173.822 61.874C170.76 58.3229 166.526 56.1989 160.637 54.7871C155.705 53.6048 149.572 52.915 141.936 52.3154C149.567 51.7161 155.696 51.0288 160.627 49.8477C166.516 48.4371 170.751 46.3149 173.814 42.7646C176.87 39.2235 178.708 34.3214 179.933 27.4619C180.961 21.6996 181.561 14.5112 182.069 5.51758Z" stroke="#4ACA7D"/>
<path d="M27.3984 28.5469C27.6718 32.5887 28.006 35.9613 28.5088 38.7793C29.2579 42.9774 30.3872 46.0083 32.2842 48.207C34.1889 50.4146 36.8157 51.7231 40.4297 52.5889C42.9341 53.1888 45.9393 53.5797 49.5459 53.9053C45.9393 54.2308 42.9341 54.6217 40.4297 55.2217C36.8157 56.0875 34.1889 57.3959 32.2842 59.6035C30.3872 61.8022 29.2579 64.8332 28.5088 69.0312C28.006 71.849 27.6718 75.2213 27.3984 79.2627C27.1251 75.2212 26.7919 71.849 26.2891 69.0312C25.54 64.8332 24.4116 61.8022 22.5146 59.6035C20.6099 57.3959 17.9831 56.0875 14.3691 55.2217C11.8646 54.6217 8.85896 54.2308 5.25195 53.9053C8.85896 53.5797 11.8646 53.1889 14.3691 52.5889C17.9831 51.7231 20.6099 50.4147 22.5146 48.207C24.4116 46.0083 25.54 42.9774 26.2891 38.7793C26.7919 35.9613 27.1251 32.5888 27.3984 28.5469Z" stroke="#3A7EF2"/>
</g>
</svg>
