<svg width="156" height="156" viewBox="0 0 156 156" fill="none" xmlns="http://www.w3.org/2000/svg">
<g opacity="0.3" clip-path="url(#clip0_7592_3228)">
<mask id="mask0_7592_3228" style="mask-type:luminance" maskUnits="userSpaceOnUse" x="0" y="0" width="156" height="156">
<path d="M0 0H156V156H0V0Z" fill="white"/>
</mask>
<g mask="url(#mask0_7592_3228)">
<path d="M83.762 0.485409C84.5237 0.759628 85.6206 1.2776 86.1995 1.67369C86.8089 2.06978 94.091 9.19946 102.409 17.5784C119.776 35.0371 118.984 33.9706 118.984 39.1502C118.984 41.8621 118.892 42.4104 118.1 44.0862C117.034 46.4019 114.657 48.7783 112.281 49.8448C110.178 50.8198 106.857 51.0939 104.663 50.4846L103.14 50.0581L98.8135 54.3541L94.4566 58.6502L123.828 88.0527C139.977 104.231 153.566 118.064 154.023 118.796C156.735 123.214 156.674 129.521 153.871 133.573C149.971 139.271 142.689 141.129 136.412 137.991C135.528 137.564 125.657 127.906 105.273 107.522L75.4135 77.6933L71.026 82.0808C67.5527 85.5541 66.6995 86.5902 66.8518 87.0471C67.4004 88.3877 67.5831 90.8862 67.3089 92.6839C66.8822 95.426 65.7854 97.4979 63.6831 99.4175C60.0268 102.83 54.8777 103.531 50.3987 101.276C49.1799 100.667 45.2799 96.9189 33.4581 85.0666C18.8941 70.4721 18.0104 69.5277 17.401 67.8214C15.116 61.6362 17.401 55.6033 23.0683 52.8002C25.262 51.7339 25.5362 51.6425 28.1566 51.6729C29.6799 51.7033 31.3254 51.8558 31.8129 52.0689L32.7268 52.4346L50.8862 34.2752L69.076 16.0854L68.6495 14.8362C67.9487 12.8557 68.2535 8.83384 69.2589 6.64009C70.2643 4.41588 72.641 2.03932 74.8956 0.972909C76.3277 0.302597 77.1197 0.150252 79.5268 0.0893149C81.5683 0.0283774 82.8174 0.150252 83.762 0.485409ZM76.7237 7.34088C74.8041 8.71196 74.1035 11.7588 75.2308 13.9526C75.566 14.562 82.2995 21.5394 90.2518 29.4308C101.738 40.8871 104.907 43.8729 105.852 44.1777C108.838 45.1221 112.159 43.1417 112.646 40.1252C113.103 37.3221 113.591 37.901 97.7166 21.9964C89.6424 13.8917 82.7566 7.12759 82.4214 6.94478C80.776 6.03071 78.3385 6.18307 76.7237 7.34088ZM50.2768 68.705L62.6166 81.0448L80.1362 63.5252L97.6558 46.0058L85.316 33.6658L72.976 21.326L55.4566 38.8456L37.937 56.3652L50.2768 68.705ZM25.262 58.955C24.0129 59.7471 22.8549 61.8496 22.8549 63.251C22.8854 65.2925 23.891 66.4502 38.5768 81.1058C51.4652 93.9027 53.3237 95.6698 54.451 95.9746C58.6862 97.0714 62.4035 92.5925 60.5143 88.6314C60.2402 88.0221 53.8416 81.38 45.4629 73.0621C34.3112 61.9408 30.6854 58.4675 29.8629 58.2237C28.4004 57.7971 26.5722 58.0714 25.262 58.955ZM83.4268 76.5354L86.8393 79.9783L91.7143 75.1033L96.5893 70.2283L93.1768 66.8158L89.7339 63.3729L84.8589 68.2479L79.9839 73.1229L83.4268 76.5354ZM115.023 108.192C139.642 132.842 139.977 133.146 142.567 133.146C145.157 133.146 147.96 131.379 149.026 129.064C149.727 127.54 149.757 124.981 149.148 123.457C148.813 122.665 141.592 115.261 124.986 98.6558L101.312 74.951L96.437 79.826L91.562 84.701L115.023 108.192Z" fill="#4ACA7D"/>
<path d="M80.1329 37.5641C81.169 38.082 82.0221 39.8189 81.7783 40.9766C81.6869 41.4641 81.1994 42.3172 80.6815 42.8352C79.8283 43.7493 79.7979 43.8102 80.1635 45.2118C80.8338 47.8931 80.1329 50.6047 78.1829 52.6462C76.9948 53.9258 75.9588 54.4743 74.0392 54.84C71.9979 55.236 70.0479 54.84 66.6048 53.3164C65.0815 52.6462 63.6494 52.0977 63.4361 52.0977C63.2229 52.0977 62.7048 52.4329 62.3088 52.8595C60.5417 54.5962 62.0954 57.6431 65.2948 58.6789C67.2142 59.2883 67.8236 59.7758 68.2502 61.086C68.6767 62.3658 68.0673 63.9806 66.9096 64.7727C65.9042 65.4127 63.9236 65.1993 61.6994 64.1633L60.1454 63.4627L59.1096 64.3766C58.226 65.1689 57.9517 65.2602 56.7025 65.1079C54.844 64.8945 53.9298 63.8587 53.9298 62.0002C53.9298 60.9337 54.1127 60.4158 54.8744 59.5931C55.7579 58.557 55.7885 58.4352 55.4533 57.3993C55.24 56.7289 55.1181 55.3883 55.2096 54.0783C55.4533 50.2087 57.7994 47.1008 61.2119 46.0954C63.5275 45.4252 65.569 45.7297 68.7986 47.1618C70.2611 47.832 71.7236 48.4414 72.0283 48.5633C72.79 48.807 74.0392 47.9845 74.0392 47.2227C74.0392 46.3391 72.2417 44.4806 70.7792 43.8408C69.1033 43.1095 68.3111 41.6775 68.7377 40.032C69.3167 37.747 71.6931 37.0462 74.2525 38.3258C75.3798 38.9047 75.5323 38.9352 75.8979 38.5087C76.9033 37.29 78.7619 36.8633 80.1329 37.5641Z" fill="#4ACA7D"/>
<path d="M6.56247 77.724C7.50705 78.242 21.9491 92.684 22.4366 93.5982C23.1375 94.9084 22.9546 96.1576 21.9796 97.2545C21.2179 98.1076 20.8827 98.2599 19.6946 98.2599H18.2929L10.2491 90.2161C5.19143 85.1584 2.14455 81.8982 2.05309 81.4107C1.53518 78.7903 4.3383 76.5357 6.56247 77.724Z" fill="#4ACA7D"/>
<path d="M21.2484 104.63C21.9797 105.27 22.1016 105.605 22.1016 106.946C22.1016 108.286 21.9797 108.621 21.2484 109.261L20.3953 109.992H11.0109H1.62656L0.803846 109.2C-0.323448 108.042 -0.323448 105.848 0.803846 104.691L1.62656 103.898H11.0109H20.3953L21.2484 104.63Z" fill="#4ACA7D"/>
<path d="M87.0492 121.388L87.9023 122.119L87.9937 128.7L88.0852 135.281H95.1844H102.284L103.045 136.043C104.081 137.079 104.203 138.023 104.203 145.641C104.203 153.258 104.081 154.202 103.045 155.238L102.284 156H51.9492H1.6148L0.792084 155.208L0 154.385V145.641V136.896L0.792084 136.073L1.6148 135.281H8.71416H15.8133L15.9046 128.7L15.996 122.119L16.8492 121.388L17.7023 120.656H51.9492H86.196L87.0492 121.388ZM22.2421 131.016V135.281H30.8954H39.579L40.4321 136.013C41.1633 136.652 41.2852 136.988 41.2852 138.328C41.2852 139.669 41.1633 140.004 40.4321 140.644L39.579 141.375H22.9733H6.39833V145.641V149.906H52.1017H97.8046V145.641V141.375H81.0773H64.3196L63.4665 140.644C62.7352 140.004 62.6133 139.669 62.6133 138.328C62.6133 136.988 62.7352 136.652 63.4665 136.013L64.3196 135.281H73.0031H81.6562V131.016V126.75H51.9492H22.2421V131.016Z" fill="#4ACA7D"/>
<path d="M54.1547 136.008C54.8859 136.648 55.0078 136.983 55.0078 138.324C55.0078 140.365 54.0024 141.37 51.9609 141.37C49.9197 141.37 48.9141 140.365 48.9141 138.324C48.9141 136.983 49.0359 136.648 49.7672 136.008C50.9555 135.003 52.9664 135.003 54.1547 136.008Z" fill="#4ACA7D"/>
</g>
</g>
<defs>
<clipPath id="clip0_7592_3228">
<rect width="156" height="156" fill="white" transform="matrix(-1 0 0 1 156 0)"/>
</clipPath>
</defs>
</svg>
