<svg width="177" height="195" viewBox="0 0 177 195" fill="none" xmlns="http://www.w3.org/2000/svg">
<path opacity="0.8" fill-rule="evenodd" clip-rule="evenodd" d="M47.1011 125.063C24.2392 128.399 0.253381 121.192 -17.1144 103.859C-18.098 102.877 -19.0603 101.863 -20 100.816L-1.2878 84.014C17.2667 104.677 49.0556 106.392 69.725 87.8483C69.7305 87.8434 69.736 87.8384 69.7415 87.8335C69.747 87.8285 69.7525 87.8236 69.758 87.8186C90.4113 69.2571 92.1155 37.4676 73.561 16.8042L92.2732 0.00174225C93.2129 1.04824 94.118 2.11377 94.9884 3.19691C110.36 22.3234 114.953 46.9437 109.184 69.316C132.046 65.9798 156.032 73.1867 173.4 90.5205C174.383 91.5021 175.346 92.5162 176.285 93.5627L157.573 110.365C139.014 89.6963 107.213 87.9862 86.5439 106.546C65.875 125.105 64.165 156.906 82.7244 177.575L64.0122 194.377C63.0725 193.331 62.1675 192.265 61.297 191.182C45.9257 172.056 41.3325 147.435 47.1011 125.063ZM48.3959 120.611C26.3115 124.446 2.88303 117.786 -13.9907 101.054L-1.48792 89.827C14.8922 105.495 38.9571 109.083 58.8533 99.9533C54.2494 106.351 50.7586 113.331 48.3959 120.611ZM73.3264 116.071C62.1154 134.874 63.1019 159.185 76.9235 177.151L64.4207 188.377C49.5948 169.807 45.4848 145.799 51.6659 124.253C59.1583 122.685 66.4715 119.963 73.3264 116.071ZM97.4322 94.4259C117.328 85.2958 141.393 88.8837 157.773 104.552L170.276 93.3254C153.402 76.5935 129.974 69.9327 107.89 73.7676C105.527 81.0487 102.036 88.0278 97.4322 94.4259ZM103.114 74.7664C99.2475 85.4286 92.7724 95.3196 83.7435 103.427C74.7147 111.534 64.1864 116.911 53.171 119.613C57.0355 108.957 63.5051 99.0717 72.5252 90.9672C72.5308 90.9622 72.5363 90.9572 72.5419 90.9522C81.5708 82.8448 92.099 77.4677 103.114 74.7664ZM104.62 70.126C110.801 48.5802 106.691 24.5725 91.8647 6.00184L79.3619 17.2286C93.1835 35.1945 94.17 59.5053 82.959 78.3077C89.8139 74.4166 97.1272 71.6943 104.62 70.126Z" fill="url(#paint0_linear_7592_3214)"/>
<defs>
<linearGradient id="paint0_linear_7592_3214" x1="36.1366" y1="50.4091" x2="120.149" y2="143.97" gradientUnits="userSpaceOnUse">
<stop stop-color="#893DF6"/>
<stop offset="1" stop-opacity="0"/>
</linearGradient>
</defs>
</svg>
