<svg width="178" height="186" viewBox="0 0 178 186" fill="none" xmlns="http://www.w3.org/2000/svg">
<g opacity="0.7">
<path fill-rule="evenodd" clip-rule="evenodd" d="M103.94 21.194C103.975 16.6427 102.795 13.6915 101.447 11.8792C100.099 10.0669 97.6119 8.08859 93.2426 6.81369C88.9352 5.55683 83.5475 5.23204 77.401 6.03231C65.149 7.62751 50.735 13.5755 37.2124 23.6344C23.6897 33.6934 13.8481 45.7881 8.79709 57.064C6.26316 62.7207 5.02494 67.9743 4.99007 72.4612C4.9547 77.0125 6.13418 79.9637 7.48227 81.776C8.83036 83.5883 11.3178 85.5666 15.687 86.8415C19.9944 88.0984 25.3822 88.4232 31.5287 87.6229C43.7807 86.0277 58.1946 80.0797 71.7173 70.0208C85.24 59.9618 95.0815 47.8671 100.133 36.5912C102.666 30.9345 103.905 25.6809 103.94 21.194ZM75.1678 74.6594C102.642 54.2226 115.645 25.1945 104.211 9.8234C92.7771 -5.54769 61.236 -1.44107 33.7619 18.9958C6.28777 39.4327 -6.71534 68.4607 4.71859 83.8318C16.1525 99.2029 47.6937 95.0963 75.1678 74.6594Z" fill="url(#paint0_linear_7592_3227)"/>
<path fill-rule="evenodd" clip-rule="evenodd" d="M117.742 39.7486C117.777 35.1972 116.597 32.246 115.249 30.4337C113.901 28.6214 111.414 26.6431 107.045 25.3682C102.737 24.1114 97.3494 23.7866 91.203 24.5868C78.9509 26.1821 64.537 32.13 51.0143 42.189C37.4917 52.2479 27.6501 64.3427 22.5991 75.6185C20.0651 81.2753 18.8269 86.5288 18.792 91.0157C18.7567 95.5671 19.9361 98.5183 21.2842 100.331C22.6323 102.143 25.1197 104.121 29.489 105.396C33.7964 106.653 39.1841 106.978 45.3306 106.177C57.5827 104.582 71.9966 98.6343 85.5193 88.5753C99.0419 78.5164 108.884 66.4216 113.935 55.1458C116.468 49.489 117.707 44.2355 117.742 39.7486ZM88.9698 93.214C116.444 72.7771 129.447 43.749 118.013 28.3779C106.579 13.0069 75.0379 17.1135 47.5638 37.5503C20.0897 57.9872 7.08663 87.0153 18.5206 102.386C29.9545 117.757 61.4957 113.651 88.9698 93.214Z" fill="url(#paint1_linear_7592_3227)"/>
<path fill-rule="evenodd" clip-rule="evenodd" d="M131.544 58.3031C131.579 53.7518 130.399 50.8006 129.051 48.9883C127.703 47.176 125.216 45.1977 120.847 43.9228C116.539 42.6659 111.151 42.3411 105.005 43.1414C92.7529 44.7366 78.339 50.6846 64.8163 60.7435C51.2936 70.8025 41.452 82.8972 36.401 94.1731C33.8671 99.8298 32.6289 105.083 32.594 109.57C32.5586 114.122 33.7381 117.073 35.0862 118.885C36.4343 120.697 38.9217 122.676 43.291 123.951C47.5984 125.207 52.9861 125.532 59.1326 124.732C71.3846 123.137 85.7986 117.189 99.3212 107.13C112.844 97.0709 122.685 84.9762 127.736 73.7003C130.27 68.0436 131.509 62.79 131.544 58.3031ZM102.772 111.769C130.246 91.3317 143.249 62.3036 131.815 46.9325C120.381 31.5614 88.8399 35.668 61.3658 56.1049C33.8917 76.5417 20.8886 105.57 32.3225 120.941C43.7565 136.312 75.2976 132.205 102.772 111.769Z" fill="url(#paint2_linear_7592_3227)"/>
<path fill-rule="evenodd" clip-rule="evenodd" d="M145.346 76.8577C145.381 72.3063 144.201 69.3551 142.853 67.5428C141.505 65.7305 139.018 63.7522 134.649 62.4773C130.341 61.2205 124.953 60.8957 118.807 61.6959C106.555 63.2911 92.1409 69.2391 78.6183 79.2981C65.0956 89.357 55.254 101.452 50.203 112.728C47.6691 118.384 46.4309 123.638 46.396 128.125C46.3606 132.676 47.5401 135.627 48.8882 137.44C50.2363 139.252 52.7237 141.23 57.0929 142.505C61.4004 143.762 66.7881 144.087 72.9346 143.287C85.1866 141.691 99.6006 135.743 113.123 125.684C126.646 115.625 136.487 103.531 141.538 92.2549C144.072 86.5981 145.311 81.3446 145.346 76.8577ZM116.574 130.323C144.048 109.886 157.051 80.8581 145.617 65.487C134.183 50.1159 102.642 54.2226 75.1678 74.6594C47.6937 95.0963 34.6906 124.124 46.1245 139.495C57.5584 154.867 89.0996 150.76 116.574 130.323Z" fill="url(#paint3_linear_7592_3227)"/>
<path fill-rule="evenodd" clip-rule="evenodd" d="M159.147 95.4122C159.183 90.8609 158.003 87.9097 156.655 86.0974C155.307 84.2851 152.82 82.3068 148.451 81.0319C144.143 79.775 138.755 79.4502 132.609 80.2505C120.357 81.8457 105.943 87.7936 92.4203 97.8526C78.8976 107.912 69.056 120.006 64.005 131.282C61.4711 136.939 60.2328 142.192 60.198 146.679C60.1626 151.231 61.3421 154.182 62.6902 155.994C64.0383 157.807 66.5257 159.785 70.8949 161.06C75.2023 162.317 80.5901 162.641 86.7365 161.841C98.9886 160.246 113.403 154.298 126.925 144.239C140.448 134.18 150.289 122.085 155.34 110.809C157.874 105.153 159.113 99.8991 159.147 95.4122ZM130.376 148.878C157.85 128.441 170.853 99.4127 159.419 84.0416C147.985 68.6705 116.444 72.7771 88.9698 93.214C61.4957 113.651 48.4926 142.679 59.9265 158.05C71.3604 173.421 102.902 169.314 130.376 148.878Z" fill="url(#paint4_linear_7592_3227)"/>
<path fill-rule="evenodd" clip-rule="evenodd" d="M172.949 113.967C172.985 109.415 171.805 106.464 170.457 104.652C169.109 102.84 166.622 100.861 162.253 99.5864C157.945 98.3295 152.557 98.0048 146.411 98.805C134.159 100.4 119.745 106.348 106.222 116.407C92.6996 126.466 82.858 138.561 77.807 149.837C75.273 155.493 74.0348 160.747 73.9999 165.234C73.9646 169.785 75.144 172.736 76.4921 174.549C77.8402 176.361 80.3276 178.339 84.6969 179.614C89.0043 180.871 94.392 181.196 100.539 180.396C112.791 178.8 127.204 172.852 140.727 162.794C154.25 152.735 164.091 140.64 169.142 129.364C171.676 123.707 172.915 118.454 172.949 113.967ZM144.178 167.432C171.652 146.995 184.655 117.967 173.221 102.596C161.787 87.225 130.246 91.3317 102.772 111.769C75.2976 132.205 62.2945 161.233 73.7285 176.605C85.1624 191.976 116.704 187.869 144.178 167.432Z" fill="url(#paint5_linear_7592_3227)"/>
</g>
<defs>
<linearGradient id="paint0_linear_7592_3227" x1="34.7156" y1="14.9821" x2="141.648" y2="169.186" gradientUnits="userSpaceOnUse">
<stop stop-opacity="0"/>
<stop offset="1" stop-color="#4ACA7D"/>
</linearGradient>
<linearGradient id="paint1_linear_7592_3227" x1="34.7156" y1="14.9821" x2="141.648" y2="169.186" gradientUnits="userSpaceOnUse">
<stop stop-opacity="0"/>
<stop offset="1" stop-color="#4ACA7D"/>
</linearGradient>
<linearGradient id="paint2_linear_7592_3227" x1="34.7156" y1="14.9821" x2="141.648" y2="169.186" gradientUnits="userSpaceOnUse">
<stop stop-opacity="0"/>
<stop offset="1" stop-color="#4ACA7D"/>
</linearGradient>
<linearGradient id="paint3_linear_7592_3227" x1="34.7156" y1="14.9821" x2="141.648" y2="169.186" gradientUnits="userSpaceOnUse">
<stop stop-opacity="0"/>
<stop offset="1" stop-color="#4ACA7D"/>
</linearGradient>
<linearGradient id="paint4_linear_7592_3227" x1="34.7156" y1="14.9821" x2="141.648" y2="169.186" gradientUnits="userSpaceOnUse">
<stop stop-opacity="0"/>
<stop offset="1" stop-color="#4ACA7D"/>
</linearGradient>
<linearGradient id="paint5_linear_7592_3227" x1="34.7156" y1="14.9821" x2="141.648" y2="169.186" gradientUnits="userSpaceOnUse">
<stop stop-opacity="0"/>
<stop offset="1" stop-color="#4ACA7D"/>
</linearGradient>
</defs>
</svg>
