<svg width="183" height="185" viewBox="0 0 183 185" fill="none" xmlns="http://www.w3.org/2000/svg">
<path fill-rule="evenodd" clip-rule="evenodd" d="M160.344 79.3611C164.763 77.6816 167.713 75.4952 169.569 73.5832C171.425 71.6712 173.522 68.657 175.069 64.1898C176.594 59.7858 177.289 54.7463 176.946 49.4376C176.261 38.8554 171.499 27.9372 162.681 19.3786C153.863 10.82 142.808 6.38667 132.21 6.01762C126.893 5.83248 121.877 6.67827 117.52 8.334C113.101 10.0135 110.151 12.1999 108.295 14.1119C106.44 16.0239 104.342 19.0381 102.795 23.5053C101.27 27.9093 100.575 32.9487 100.918 38.2575C101.604 48.8397 106.365 59.7579 115.183 68.3165C124.001 76.8751 135.056 81.3084 145.654 81.6775C150.971 81.8626 155.987 81.0168 160.344 79.3611ZM110.433 73.2103C128.348 90.5989 155.631 91.5489 171.371 75.3323C187.111 59.1157 185.347 31.8734 167.431 14.4848C149.516 -2.90378 122.233 -3.85385 106.493 12.3628C90.7535 28.5794 92.5174 55.8217 110.433 73.2103Z" fill="url(#paint0_linear_9405_518)"/>
<path fill-rule="evenodd" clip-rule="evenodd" d="M141.344 98.9363C145.763 97.2568 148.714 95.0703 150.569 93.1584C152.425 91.2464 154.523 88.2321 156.069 83.7649C157.594 79.3609 158.29 74.3215 157.946 69.0127C157.261 58.4306 152.5 47.5124 143.682 38.9538C134.864 30.3952 123.808 25.9618 113.211 25.5928C107.894 25.4077 102.877 26.2534 98.5209 27.9092C94.1019 29.5887 91.1516 31.7751 89.2959 33.6871C87.4401 35.5991 85.3427 38.6133 83.7959 43.0805C82.2709 47.4845 81.5752 52.5239 81.9189 57.8327C82.6041 68.4149 87.3654 79.3331 96.1834 87.8917C105.001 96.4503 116.057 100.884 126.655 101.253C131.971 101.438 136.988 100.592 141.344 98.9363ZM91.4335 92.7855C109.349 110.174 136.632 111.124 152.372 94.9075C168.111 78.6909 166.347 51.4485 148.432 34.06C130.516 16.6714 103.233 15.7213 87.4937 31.9379C71.7541 48.1545 73.518 75.3969 91.4335 92.7855Z" fill="url(#paint1_linear_9405_518)"/>
<path fill-rule="evenodd" clip-rule="evenodd" d="M122.345 118.511C126.764 116.832 129.714 114.646 131.57 112.734C133.426 110.822 135.523 107.807 137.07 103.34C138.595 98.9361 139.291 93.8967 138.947 88.5879C138.262 78.0057 133.5 67.0875 124.682 58.5289C115.865 49.9703 104.809 45.537 94.2111 45.168C88.8945 44.9828 83.8781 45.8286 79.5216 47.4843C75.1025 49.1638 72.1522 51.3503 70.2965 53.2622C68.4407 55.1742 66.3433 58.1885 64.7965 62.6557C63.2715 67.0597 62.5758 72.0991 62.9195 77.4078C63.6047 87.99 68.366 98.9082 77.184 107.467C86.002 116.025 97.0574 120.459 107.655 120.828C112.972 121.013 117.988 120.167 122.345 118.511ZM72.4341 112.361C90.3497 129.749 117.633 130.699 133.372 114.483C149.112 98.2661 147.348 71.0237 129.432 53.6351C111.517 36.2466 84.2339 35.2965 68.4943 51.5131C52.7547 67.7297 54.5186 94.9721 72.4341 112.361Z" fill="url(#paint2_linear_9405_518)"/>
<path fill-rule="evenodd" clip-rule="evenodd" d="M103.346 138.087C107.765 136.407 110.715 134.221 112.571 132.309C114.426 130.397 116.524 127.382 118.071 122.915C119.596 118.511 120.291 113.472 119.948 108.163C119.262 97.5809 114.501 86.6627 105.683 78.1041C96.8651 69.5455 85.8097 65.1122 75.2117 64.7431C69.8951 64.558 64.8787 65.4038 60.5222 67.0595C56.1031 68.739 53.1528 70.9254 51.2971 72.8374C49.4413 74.7494 47.3439 77.7636 45.7971 82.2308C44.2721 86.6349 43.5764 91.6743 43.9201 96.983C44.6053 107.565 49.3666 118.483 58.1846 127.042C67.0026 135.601 78.058 140.034 88.6559 140.403C93.9726 140.588 98.989 139.742 103.346 138.087ZM53.4347 131.936C71.3503 149.324 98.6332 150.274 114.373 134.058C130.112 117.841 128.348 90.5989 110.433 73.2103C92.5174 55.8217 65.2345 54.8717 49.4949 71.0883C33.7553 87.3049 35.5192 114.547 53.4347 131.936Z" fill="url(#paint3_linear_9405_518)"/>
<path fill-rule="evenodd" clip-rule="evenodd" d="M84.3461 157.662C88.7652 155.982 91.7155 153.796 93.5712 151.884C95.4269 149.972 97.5244 146.958 99.0712 142.49C100.596 138.086 101.292 133.047 100.948 127.738C100.263 117.156 95.5016 106.238 86.6837 97.6793C77.8657 89.1207 66.8103 84.6874 56.2123 84.3183C50.8957 84.1332 45.8793 84.9789 41.5228 86.6347C37.1037 88.3142 34.1534 90.5006 32.2977 92.4126C30.4419 94.3246 28.3445 97.3388 26.7977 101.806C25.2727 106.21 24.577 111.249 24.9207 116.558C25.6059 127.14 30.3672 138.059 39.1852 146.617C48.0032 155.176 59.0586 159.609 69.6565 159.978C74.9732 160.163 79.9896 159.317 84.3461 157.662ZM34.4353 151.511C52.3509 168.9 79.6338 169.85 95.3734 153.633C111.113 137.416 109.349 110.174 91.4335 92.7855C73.518 75.3969 46.2351 74.4468 30.4955 90.6634C14.7559 106.88 16.5198 134.122 34.4353 151.511Z" fill="url(#paint4_linear_9405_518)"/>
<path fill-rule="evenodd" clip-rule="evenodd" d="M65.3467 177.237C69.7658 175.557 72.7161 173.371 74.5718 171.459C76.4276 169.547 78.525 166.533 80.0718 162.066C81.5968 157.662 82.2925 152.622 81.9487 147.313C81.2635 136.731 76.5023 125.813 67.6843 117.254C58.8663 108.696 47.8109 104.263 37.2129 103.893C31.8963 103.708 26.8799 104.554 22.5234 106.21C18.1043 107.889 15.154 110.076 13.2983 111.988C11.4425 113.9 9.3451 116.914 7.79826 121.381C6.2733 125.785 5.57761 130.825 5.92134 136.133C6.60653 146.716 11.3678 157.634 20.1858 166.192C29.0038 174.751 40.0592 179.184 50.6571 179.553C55.9738 179.738 60.9902 178.893 65.3467 177.237ZM15.4359 171.086C33.3515 188.475 60.6343 189.425 76.374 173.208C92.1136 156.992 90.3497 129.749 72.4341 112.361C54.5186 94.9721 27.2357 94.022 11.4961 110.239C-4.24351 126.455 -2.47958 153.698 15.4359 171.086Z" fill="url(#paint5_linear_9405_518)"/>
<defs>
<linearGradient id="paint0_linear_9405_518" x1="167.431" y1="14.4848" x2="15.4359" y2="171.086" gradientUnits="userSpaceOnUse">
<stop stop-color="#4ACA7D"/>
<stop offset="1" stop-color="#141414" stop-opacity="0"/>
</linearGradient>
<linearGradient id="paint1_linear_9405_518" x1="167.431" y1="14.4848" x2="15.4359" y2="171.086" gradientUnits="userSpaceOnUse">
<stop stop-color="#4ACA7D"/>
<stop offset="1" stop-color="#141414" stop-opacity="0"/>
</linearGradient>
<linearGradient id="paint2_linear_9405_518" x1="167.431" y1="14.4848" x2="15.4359" y2="171.086" gradientUnits="userSpaceOnUse">
<stop stop-color="#4ACA7D"/>
<stop offset="1" stop-color="#141414" stop-opacity="0"/>
</linearGradient>
<linearGradient id="paint3_linear_9405_518" x1="167.431" y1="14.4848" x2="15.4359" y2="171.086" gradientUnits="userSpaceOnUse">
<stop stop-color="#4ACA7D"/>
<stop offset="1" stop-color="#141414" stop-opacity="0"/>
</linearGradient>
<linearGradient id="paint4_linear_9405_518" x1="167.431" y1="14.4848" x2="15.4359" y2="171.086" gradientUnits="userSpaceOnUse">
<stop stop-color="#4ACA7D"/>
<stop offset="1" stop-color="#141414" stop-opacity="0"/>
</linearGradient>
<linearGradient id="paint5_linear_9405_518" x1="167.431" y1="14.4848" x2="15.4359" y2="171.086" gradientUnits="userSpaceOnUse">
<stop stop-color="#4ACA7D"/>
<stop offset="1" stop-color="#141414" stop-opacity="0"/>
</linearGradient>
</defs>
</svg>
