<svg width="55" height="54" viewBox="0 0 55 54" fill="none" xmlns="http://www.w3.org/2000/svg">
<g clip-path="url(#clip0_7346_487)">
<path d="M12.9217 18.3866C12.5104 17.9753 11.8417 17.9753 11.4305 18.3866C11.0181 18.799 11.0181 19.4666 11.4305 19.8779C11.8418 20.2903 12.5105 20.2903 12.9217 19.8779C13.334 19.4666 13.334 18.799 12.9217 18.3866ZM27.2046 47.2189C27.6696 46.5891 27.9209 45.8302 27.9209 45.0323C27.9209 42.997 26.2651 41.341 24.2296 41.341H6.30057C5.31412 41.341 4.38716 41.725 3.69032 42.422C2.99318 43.1189 2.60927 44.0459 2.60927 45.0323C2.60856 45.819 2.86052 46.585 3.32804 47.2177C1.64866 48.1006 0.5 49.862 0.5 51.8875V52.9422C0.5 53.5247 0.972289 53.9969 1.55469 53.9969H28.9755C29.5579 53.9969 30.0302 53.5247 30.0302 52.9422V51.8875C30.0302 49.8629 28.8827 48.1023 27.2046 47.2189ZM5.18176 43.9133C5.32835 43.766 5.50272 43.6492 5.69477 43.5697C5.88681 43.4902 6.09272 43.4496 6.30057 43.4502H24.2296C25.102 43.4502 25.8116 44.1599 25.8116 45.0321C25.8116 45.4551 25.647 45.8524 25.3483 46.1511C25.2017 46.2984 25.0274 46.4152 24.8353 46.4947C24.6433 46.5742 24.4374 46.6148 24.2295 46.6142H6.30057C5.42824 46.6142 4.71864 45.9045 4.71864 45.0322C4.71864 44.6094 4.88307 44.212 5.18176 43.9133ZM2.60927 51.8875C2.60927 50.1429 4.02867 48.7235 5.77323 48.7235H24.757C26.5015 48.7235 27.9209 50.1429 27.9209 51.8875H2.60927Z" fill="#4ACA7D"/>
<path d="M53.5162 44.3098C53.158 43.7548 52.7307 43.2639 52.2458 42.8509L47.3178 38.5527C47.2787 38.4939 47.2339 38.4391 47.184 38.3891C47.1007 38.3062 47.004 38.2378 46.8981 38.1869L43.9179 35.5876L30.1236 23.5545C30.6883 22.9642 30.9992 22.1923 30.9992 21.3714C30.9992 20.5258 30.6701 19.7311 30.0718 19.1329C29.8177 18.879 29.5219 18.6708 29.1973 18.5173L30.4735 17.2411C30.8291 17.3359 31.1955 17.3841 31.5635 17.3844C32.6436 17.3843 33.7238 16.9732 34.5461 16.151C35.3432 15.3539 35.7821 14.2945 35.7821 13.1678C35.7821 12.0411 35.3432 10.9816 34.5462 10.1846L25.5973 1.23599C24.8003 0.438961 23.7408 0 22.6137 0C21.4872 0 20.428 0.438961 19.6311 1.23599C18.5296 2.3375 18.167 3.9015 18.541 5.30866L5.80824 18.0413C5.45202 17.9464 5.08496 17.8984 4.71632 17.8984C3.58907 17.8984 2.53006 18.337 1.73367 19.1333C0.0887773 20.7782 0.0887773 23.4547 1.73367 25.0997L10.6824 34.0485C11.5049 34.8709 12.5852 35.2821 13.6656 35.2821C14.746 35.2821 15.8263 34.8709 16.6488 34.0485C17.7504 32.9469 18.113 31.383 17.739 29.9758L19.0125 28.7022C19.1678 29.0259 19.377 29.3209 19.6312 29.5745C20.2288 30.1721 21.0233 30.5012 21.8687 30.5012C22.6887 30.5012 23.4603 30.1909 24.0515 29.6268L38.7439 46.5075C38.7844 46.5708 38.8317 46.631 38.8869 46.6863C38.9058 46.7051 38.9259 46.7223 38.9458 46.7394L43.3239 51.7697C43.434 51.8995 43.5494 52.0248 43.6698 52.1452C44.8723 53.3473 46.4605 53.9996 48.128 53.9996C48.4219 53.9996 48.7186 53.9793 49.0157 53.9382C51.0016 53.6633 52.7179 52.4753 53.7243 50.6784C54.8267 48.7089 54.7447 46.2086 53.5162 44.3098ZM21.1227 2.72753C21.3181 2.53103 21.5504 2.37522 21.8064 2.26911C22.0623 2.16301 22.3368 2.10871 22.6138 2.10938C22.8911 2.10863 23.1657 2.16288 23.4218 2.26898C23.6779 2.37509 23.9104 2.53095 24.1059 2.72753L33.0547 11.6762C33.2513 11.8717 33.4071 12.1041 33.5132 12.3602C33.6192 12.6162 33.6735 12.8907 33.6728 13.1679C33.6735 13.445 33.6192 13.7196 33.5131 13.9756C33.407 14.2317 33.2512 14.4641 33.0546 14.6595C32.2325 15.4819 30.8945 15.4819 30.0724 14.6595L21.1233 5.71039L21.1227 5.70987C20.3004 4.88763 20.3004 3.54976 21.1227 2.72753ZM15.1573 32.5569C14.3349 33.3794 12.9964 33.3795 12.1739 32.5569L3.22521 23.6082C2.40266 22.7857 2.40266 21.4475 3.22521 20.6248C3.62304 20.2269 4.1527 20.0077 4.71632 20.0077C5.27984 20.0077 5.80919 20.2268 6.20691 20.6244L15.1572 29.5747C15.9796 30.3968 15.9797 31.7348 15.1573 32.5569ZM19.5978 25.134L16.6487 28.0832L7.69909 19.1335L19.6311 7.2013L28.5806 16.151L25.6262 19.1055C25.6166 19.1145 25.6073 19.1234 25.5971 19.1334L19.6341 25.0965C19.6218 25.1086 19.6099 25.1213 19.5978 25.134ZM23.3636 27.3342L23.3574 27.3405L22.6147 28.0832C22.5169 28.1814 22.4006 28.2593 22.2726 28.3123C22.1445 28.3653 22.0072 28.3924 21.8686 28.392C21.73 28.3924 21.5927 28.3653 21.4647 28.3123C21.3366 28.2592 21.2204 28.1813 21.1226 28.0831C21.0243 27.9852 20.9463 27.8689 20.8932 27.7407C20.8401 27.6126 20.813 27.4752 20.8134 27.3364C20.8134 27.0603 20.9188 26.8006 21.11 26.6046L27.1007 20.6139C27.5113 20.2146 28.1751 20.2195 28.5808 20.6248C28.6792 20.7227 28.7571 20.839 28.8102 20.9672C28.8633 21.0953 28.8904 21.2327 28.89 21.3714C28.8904 21.51 28.8633 21.6473 28.8102 21.7753C28.7572 21.9033 28.6791 22.0194 28.5807 22.117L27.8424 22.8554C27.8373 22.8604 27.8322 22.8654 27.8273 22.8705L23.3636 27.3342ZM25.5477 28.1332L28.6301 25.0507L41.681 36.4345L36.9187 41.1969L25.5477 28.1332ZM38.3068 42.7918L43.2742 37.8243L44.8675 39.214L39.6948 44.3868L38.3068 42.7918ZM51.884 49.6479C51.2033 50.8633 50.0525 51.6653 48.7266 51.8489C47.4039 52.032 46.1042 51.5963 45.1611 50.6536C45.0805 50.5732 45.0034 50.4894 44.93 50.4025L44.9198 50.3905L41.0828 45.9817L46.4608 40.6037L50.8641 44.4445L50.8742 44.4533C51.2038 44.7335 51.4963 45.0701 51.7444 45.4546C52.542 46.687 52.5979 48.3724 51.884 49.6479Z" fill="#4ACA7D"/>
<path d="M20.3768 10.93C19.9649 10.5181 19.2972 10.5181 18.8853 10.93L14.4105 15.4048C13.9986 15.8167 13.9986 16.4845 14.4105 16.8962C14.5083 16.9943 14.6245 17.0721 14.7525 17.1251C14.8805 17.1781 15.0177 17.2053 15.1562 17.2052C15.2948 17.2053 15.4319 17.1781 15.5599 17.1251C15.6879 17.0721 15.8042 16.9943 15.902 16.8962L20.3768 12.4214C20.7887 12.0097 20.7887 11.3419 20.3768 10.93Z" fill="#4ACA7D"/>
</g>
<defs>
<clipPath id="clip0_7346_487">
<rect width="54" height="54" fill="white" transform="translate(0.5)"/>
</clipPath>
</defs>
</svg>
