<svg width="57" height="57" viewBox="0 0 57 57" fill="none" xmlns="http://www.w3.org/2000/svg">
<path d="M32.2968 0H13.2969C10.6777 0 8.54688 2.13082 8.54688 4.75004V38.95C8.54688 41.5691 10.6777 43.7001 13.2969 43.7001H30.3969V41.8H13.2969C11.7256 41.8 10.4469 40.5213 10.4469 38.95V4.75004C10.4469 3.17875 11.7256 1.90004 13.2969 1.90004H32.2969C33.8682 1.90004 35.1469 3.17875 35.1469 4.75004V32.3001H37.0469V4.75004C37.0469 2.13082 34.9161 0 32.2968 0Z" fill="#4ACA7D"/>
<path d="M46.1551 25.3033L36.8356 13.6562L35.3507 14.8438L44.6702 26.4898C45.8796 28.0003 46.5446 29.8985 46.5437 31.8336V55.099H32.6452C27.7376 55.099 23.7438 51.1061 23.7438 46.1976V42.7491H21.8438V46.1976C21.8438 52.1531 26.6898 56.9991 32.6452 56.9991H47.4937C47.6185 56.9992 47.7421 56.9747 47.8574 56.927C47.9727 56.8793 48.0775 56.8093 48.1657 56.7211C48.254 56.6329 48.3239 56.5281 48.3716 56.4128C48.4193 56.2975 48.4438 56.1739 48.4437 56.0491V31.8346C48.4447 29.471 47.6325 27.151 46.1551 25.3033Z" fill="#4ACA7D"/>
<path d="M24.6896 22.4056C25.3565 22.4246 25.9769 22.7019 26.4338 23.1864L39.2009 36.7524L40.5851 35.45L27.8161 21.883C27.0095 21.0289 25.9179 20.5397 24.7437 20.5064C23.5572 20.4666 22.4524 20.8988 21.6087 21.6959C21.5983 21.7063 21.5222 21.7785 21.5128 21.7889C19.8893 23.4172 19.7799 25.9728 21.2611 27.7379L29.4434 37.3994V40.3387C29.4424 45.5883 32.7438 50.3507 37.66 52.1918L38.3269 50.4124C34.1487 48.8478 31.3425 44.7998 31.3434 40.3387V37.0517C31.3432 36.8267 31.2635 36.609 31.1183 36.437L22.7137 26.5124C21.8729 25.5111 21.9347 24.0566 22.9037 23.0867C23.3881 22.6288 24.0208 22.4017 24.6896 22.4056Z" fill="#4ACA7D"/>
<path d="M29.4468 1.89929H31.3468V25.6493H29.4468V1.89929ZM24.6969 31.3493H26.5969V42.7493H24.6969V31.3493ZM24.6969 0.949219H26.5969V21.8492H24.6969V0.949219ZM13.2969 4.74929H15.1969V17.0993H13.2969V4.74929ZM18.0468 4.74929H19.9468V12.3493H18.0468V4.74929ZM19.9468 31.3493H14.2468C14.1221 31.3492 13.9985 31.3738 13.8833 31.4215C13.768 31.4692 13.6632 31.5392 13.575 31.6274C13.4868 31.7156 13.4168 31.8204 13.3691 31.9356C13.3214 32.0509 13.2968 32.1745 13.2969 32.2992V37.9992C13.2968 38.124 13.3214 38.2475 13.3691 38.3628C13.4168 38.4781 13.4868 38.5828 13.575 38.671C13.6632 38.7593 13.768 38.8292 13.8833 38.877C13.9985 38.9247 14.1221 38.9492 14.2468 38.9492H19.9468C20.0716 38.9492 20.1951 38.9247 20.3104 38.877C20.4257 38.8292 20.5304 38.7593 20.6187 38.671C20.7069 38.5828 20.7769 38.4781 20.8246 38.3628C20.8723 38.2475 20.8968 38.124 20.8968 37.9992V32.2992C20.8968 32.1745 20.8723 32.0509 20.8246 31.9356C20.7769 31.8204 20.7069 31.7156 20.6187 31.6274C20.5304 31.5392 20.4257 31.4692 20.3104 31.4215C20.1951 31.3738 20.0716 31.3492 19.9468 31.3493ZM18.9969 37.0493H15.1969V33.2493H18.9969V37.0493Z" fill="#4ACA7D"/>
</svg>
