<svg width="73" height="29" viewBox="0 0 73 29" fill="none" xmlns="http://www.w3.org/2000/svg">
<path d="M30.5 11.2578H35.3001V13.6003H30.5V11.2578Z" fill="#4ACA7D"/>
<path d="M71.4752 7.7565L63.3232 6.62049C61.8369 5.72949 60.294 4.93167 58.7038 4.23184C53.4513 1.91035 47.7505 0.71251 41.9844 0.718774H40.5682C33.7627 0.723634 27.0666 2.38983 21.0898 5.56559L16.9758 7.75553C12.1598 7.8087 7.43716 9.05795 3.25307 11.3855C2.41777 11.8529 1.72348 12.5269 1.24015 13.3396C0.756824 14.1522 0.501533 15.0748 0.5 16.0144L0.5 22.9678C0.499984 23.1217 0.531021 23.274 0.591339 23.4161C0.651657 23.5582 0.740074 23.6873 0.85154 23.7961C0.963007 23.9048 1.09534 23.9911 1.24098 24.0499C1.38661 24.1088 1.5427 24.139 1.70033 24.139H5.72986C7.04045 27.7875 11.134 29.7087 14.873 28.4298C15.8889 28.0824 16.8117 27.5163 17.5729 26.7736C18.3342 26.0308 18.9143 25.1303 19.2703 24.139H51.3331C52.6437 27.7875 56.7373 29.7087 60.4763 28.4298C61.4922 28.0823 62.4149 27.5162 63.1761 26.7735C63.9373 26.0307 64.5175 25.1303 64.8736 24.139H65.3042C65.4571 24.139 65.6085 24.1109 65.7505 24.0557L69.6377 22.5337C70.4859 22.2059 71.2132 21.6363 71.7247 20.8991C72.2362 20.162 72.5081 19.2915 72.505 18.4012V8.91569C72.5049 8.63391 72.4007 8.36161 72.2116 8.14868C72.0225 7.93576 71.761 7.7966 71.4752 7.7565ZM17.2039 22.734C16.673 25.2684 14.1372 26.9033 11.5398 26.3853C8.94209 25.8674 7.26659 23.393 7.79738 20.8581C8.32867 18.3235 10.8645 16.6887 13.4619 17.2067C15.6968 17.6523 17.3014 19.571 17.3009 21.7972C17.3008 22.1119 17.2684 22.4257 17.2039 22.734ZM38.9025 21.7972H19.7011C19.7011 17.9166 16.4776 14.7708 12.5008 14.7708C8.52393 14.7708 5.30008 17.9167 5.30008 21.7972H2.90017V16.0145C2.9008 15.4875 3.04395 14.9699 3.31515 14.5141C3.58636 14.0583 3.97601 13.6804 4.44477 13.4185C8.3607 11.2367 12.7917 10.0885 17.301 10.087H38.9027L38.9025 21.7972ZM38.9025 7.74491H22.0079L22.2393 7.62159C27.3697 4.90084 33.0689 3.3585 38.9027 3.11205L38.9025 7.74491ZM41.3027 3.06058H41.9819C46.8181 3.05529 51.6108 3.95127 56.1025 5.70038L54.0071 7.74504H41.3026L41.3027 3.06058ZM62.8071 22.734C62.2763 25.2684 59.7405 26.9033 57.1426 26.3853C54.5452 25.8674 52.8698 23.393 53.4007 20.8581C53.9315 18.3235 56.4678 16.6887 59.0651 17.2067C61.3002 17.6523 62.9047 19.571 62.9042 21.7972C62.9041 22.1119 62.8716 22.4257 62.8071 22.734ZM70.1048 11.2576H66.5046V13.6H70.1048V18.4012C70.1063 18.8228 69.9775 19.235 69.7352 19.584C69.4928 19.933 69.1483 20.2026 68.7465 20.3576L65.3042 21.7066C65.3042 21.5989 65.2901 21.4921 65.2829 21.3845C65.2755 21.2767 65.273 21.1504 65.2614 21.0332C65.2491 20.9161 65.2251 20.7988 65.2061 20.682C65.1866 20.5649 65.1724 20.4476 65.1486 20.3413C65.1246 20.2346 65.0895 20.1165 65.0582 20.005C65.027 19.894 65.003 19.7816 64.967 19.6724C64.9312 19.5638 64.8877 19.4594 64.8472 19.3527C64.8062 19.2464 64.7691 19.1363 64.7272 19.0306C64.6851 18.9253 64.6284 18.8294 64.5782 18.7298C64.5278 18.6303 64.4786 18.5213 64.4224 18.4206C64.3658 18.3201 64.3023 18.2344 64.248 18.1409C64.1943 18.047 64.1284 17.9404 64.06 17.8445C63.9913 17.7484 63.9278 17.6725 63.8618 17.5859C63.7959 17.4992 63.7211 17.3972 63.6445 17.307C63.5679 17.217 63.4961 17.1465 63.4214 17.0726C63.3471 16.9993 63.2641 16.8998 63.1816 16.8177C63.0986 16.7358 63.0171 16.671 62.9345 16.5986C62.8515 16.5261 62.7626 16.4404 62.6713 16.3641C62.5804 16.2884 62.4877 16.2297 62.3969 16.163C62.3057 16.0964 62.2143 16.0249 62.1185 15.9624C62.0223 15.9005 61.9144 15.8457 61.8114 15.78C61.7079 15.7141 61.6239 15.6627 61.5267 15.6127C61.4295 15.5622 61.3085 15.5093 61.198 15.4578C61.0877 15.4063 61.0013 15.3606 60.8992 15.3187C60.7972 15.2763 60.6589 15.232 60.5393 15.1901C60.4193 15.1476 60.341 15.1148 60.239 15.0833C60.1023 15.0423 59.9621 15.0128 59.8225 14.9789C59.7312 14.9581 59.6437 14.9299 59.5515 14.9113C59.404 14.8818 59.2527 14.8656 59.1027 14.8441C59.0139 14.8327 58.9289 14.8136 58.84 14.8056C58.5968 14.7816 58.3525 14.7695 58.108 14.7693C54.1327 14.773 50.9112 17.9165 50.9072 21.7956H41.3031V10.0866H54.5037C54.6613 10.0866 54.8173 10.0564 54.9628 9.99752C55.1084 9.93866 55.2406 9.85237 55.3519 9.74358L58.464 6.70685C59.7703 7.31345 61.0404 7.99145 62.2684 8.7376C62.41 8.82397 62.5685 8.88063 62.7338 8.90398L70.105 9.93082L70.1048 11.2576Z" fill="#4ACA7D"/>
</svg>
