<svg width="224" height="60" viewBox="0 0 224 60" fill="none" xmlns="http://www.w3.org/2000/svg">
<g clip-path="url(#clip0_9302_584)">
<path d="M2.94531 31.9231V28.0855C2.98948 27.4134 3.05922 26.7488 3.15075 26.0915V26.091C3.42331 24.1473 3.89434 22.2693 4.54436 20.4759V20.4753C4.83377 19.6768 5.15805 18.8963 5.51575 18.1335C6.34186 16.375 7.34522 14.7158 8.50259 13.1795V13.1789C8.62405 13.0176 8.74784 12.8581 8.8722 12.7003C8.87278 12.6989 8.87424 12.6983 8.87424 12.6974C9.50886 11.8925 10.1868 11.1234 10.9045 10.3931V10.6683L10.9792 10.5936L13.7963 18.1335L13.9977 18.6723L14.0404 18.7876L14.0971 18.9384L16.7695 26.0913L17.1013 26.9807L18.8651 31.7008V4.72022C19.7122 4.31632 20.583 3.95513 21.4745 3.63869C23.1875 3.02819 24.9765 2.57954 26.824 2.3125V57.6964C24.9762 57.4297 23.1872 56.981 21.4745 56.3702H21.4739C20.5821 56.0538 19.7122 55.6926 18.8651 55.2887L16.7329 49.9636L16.7021 49.8869L13.5467 42.0061L13.4839 41.8504L12.6936 39.8753L11.0861 35.8616L10.9045 35.4159V49.3415L8.87424 47.3126C8.74842 47.1534 8.62463 46.9927 8.50259 46.8306C7.37399 45.3327 6.39126 43.7173 5.57852 42.007V42.0064C5.19554 41.2024 4.84975 40.3777 4.54436 39.5339C3.90916 37.7803 3.44423 35.9456 3.16964 34.0487C3.06823 33.3487 2.99355 32.6394 2.94531 31.9234V31.9231Z" fill="#893DF6"/>
<path d="M39.242 3.49311L46.7275 19.0442L50.2019 10.4518C50.8249 10.879 52.286 12.7273 53.3126 14.1942C54.6364 16.0852 55.5567 18.0039 55.5567 18.0039L51.2239 28.3859L56.5606 39.5048C55.3957 42.9717 52.6326 46.8018 52.6326 46.8018L47.662 36.9228L39.6653 56.3708C38.1764 57.0226 34.3164 57.6973 34.3164 57.6973V49.6869L43.1383 27.9062L34.3164 10.3228V2.3125L36.7718 2.81287L39.2423 3.49282L39.242 3.49311Z" fill="#4ACA7D"/>
<path d="M37 28L31.5 17V41L37 28Z" fill="#FFB434" stroke="#FFB434"/>
</g>
<path d="M74.54 44V18.24H80.06L91.02 33.64V18.24H97.5V44H91.94L80.98 28.64V44H74.54ZM101.836 22.04V17.2H108.836V22.04H101.836ZM102.356 44V29.8H99.5556L100.116 25.04H108.796V44H102.356ZM118.739 44.4C116.659 44.4 115.166 43.9467 114.259 43.04C113.353 42.1333 112.899 40.68 112.899 38.68V17.04H119.339V38.04C119.339 38.6533 119.459 39.08 119.699 39.32C119.966 39.5333 120.353 39.64 120.859 39.64C121.579 39.64 122.219 39.5467 122.779 39.36V43.72C122.166 43.96 121.553 44.1333 120.939 44.24C120.353 44.3467 119.619 44.4 118.739 44.4ZM131.124 44.4C129.924 44.4 128.804 44.1867 127.764 43.76C126.751 43.3333 125.937 42.68 125.324 41.8C124.711 40.8933 124.404 39.7733 124.404 38.44C124.404 36.4933 125.057 34.9733 126.364 33.88C127.697 32.76 129.684 32.2 132.324 32.2H137.604V31.76C137.604 30.8 137.284 30.12 136.644 29.72C136.004 29.2933 134.804 29.08 133.044 29.08C130.884 29.08 128.764 29.4133 126.684 30.08V25.92C127.617 25.5467 128.751 25.24 130.084 25C131.444 24.76 132.871 24.64 134.364 24.64C137.297 24.64 139.591 25.24 141.244 26.44C142.924 27.64 143.764 29.5467 143.764 32.16V44H138.124L137.804 42.4C137.111 43.04 136.217 43.5333 135.124 43.88C134.057 44.2267 132.724 44.4 131.124 44.4ZM133.164 40.44C134.177 40.44 135.057 40.2667 135.804 39.92C136.551 39.5733 137.151 39.1333 137.604 38.6V35.92H133.044C131.151 35.92 130.204 36.68 130.204 38.2C130.204 38.8933 130.444 39.44 130.924 39.84C131.404 40.24 132.151 40.44 133.164 40.44ZM147.626 44V25.04H153.586L153.786 26.72C154.639 26.1067 155.599 25.6133 156.666 25.24C157.733 24.84 158.879 24.64 160.106 24.64C161.386 24.64 162.386 24.84 163.106 25.24C163.826 25.6133 164.386 26.1467 164.786 26.84C165.666 26.2 166.653 25.68 167.746 25.28C168.866 24.8533 170.173 24.64 171.666 24.64C173.879 24.64 175.506 25.2133 176.546 26.36C177.586 27.5067 178.106 29.2533 178.106 31.6V44H171.746V32.36C171.746 31.32 171.519 30.5733 171.066 30.12C170.639 29.64 169.933 29.4 168.946 29.4C168.333 29.4 167.733 29.5333 167.146 29.8C166.559 30.04 166.066 30.3867 165.666 30.84C165.719 31.1333 165.746 31.4133 165.746 31.68C165.773 31.9467 165.786 32.2667 165.786 32.64V44H159.786V32.28C159.786 31.32 159.613 30.6 159.266 30.12C158.946 29.64 158.319 29.4 157.386 29.4C156.719 29.4 156.093 29.5733 155.506 29.92C154.919 30.2667 154.386 30.6667 153.906 31.12V44H147.626ZM191.927 44.4C188.62 44.4 185.967 43.5867 183.967 41.96C181.967 40.3067 180.967 37.8267 180.967 34.52C180.967 31.5067 181.793 29.1067 183.447 27.32C185.1 25.5333 187.58 24.64 190.887 24.64C193.9 24.64 196.233 25.4133 197.887 26.96C199.54 28.5067 200.367 30.5867 200.367 33.2V36.6H186.927C187.22 37.8533 187.9 38.7333 188.967 39.24C190.06 39.72 191.54 39.96 193.407 39.96C194.447 39.96 195.5 39.8667 196.567 39.68C197.66 39.4933 198.567 39.2533 199.287 38.96V43.16C198.38 43.5867 197.3 43.8933 196.047 44.08C194.793 44.2933 193.42 44.4 191.927 44.4ZM186.927 32.88H194.767V32.04C194.767 31.1067 194.487 30.3733 193.927 29.84C193.367 29.28 192.42 29 191.087 29C189.54 29 188.46 29.32 187.847 29.96C187.233 30.5733 186.927 31.5467 186.927 32.88ZM200.845 44L208.125 34.36L201.125 25.04H208.125L211.645 29.8L215.165 25.04H222.165L215.165 34.36L222.445 44H215.405L211.645 39L207.885 44H200.845Z" fill="#121212"/>
<defs>
<clipPath id="clip0_9302_584">
<rect width="60" height="60" fill="white" transform="translate(0.5)"/>
</clipPath>
</defs>
</svg>
