<svg width="40" height="36" viewBox="0 0 40 36" fill="none" xmlns="http://www.w3.org/2000/svg">
<path d="M25 20.5H35C35.663 20.5 36.2989 20.7634 36.7678 21.2322C37.2366 21.7011 37.5 22.337 37.5 23V30.5C37.5 31.163 37.2366 31.7989 36.7678 32.2678C36.2989 32.7366 35.663 33 35 33H27.5C26.837 33 26.2011 32.7366 25.7322 32.2678C25.2634 31.7989 25 31.163 25 30.5V15.5C25 8.8325 28.3325 4.6675 35 3M2.5 20.5H12.5C13.163 20.5 13.7989 20.7634 14.2678 21.2322C14.7366 21.7011 15 22.337 15 23V30.5C15 31.163 14.7366 31.7989 14.2678 32.2678C13.7989 32.7366 13.163 33 12.5 33H5C4.33696 33 3.70107 32.7366 3.23223 32.2678C2.76339 31.7989 2.5 31.163 2.5 30.5V15.5C2.5 8.8325 5.8325 4.6675 12.5 3" stroke="#893DF6" stroke-width="5" stroke-linecap="round" stroke-linejoin="round"/>
</svg>
