<svg width="60" height="59" viewBox="0 0 60 59" fill="none" xmlns="http://www.w3.org/2000/svg">
<path d="M13.4934 33.2882C11.6018 33.0112 9.69715 32.8311 7.78701 32.7486C6.94942 32.6969 5.84539 33.1321 5.65419 35.2364C5.61852 35.7656 5.66977 36.297 5.80592 36.8097C5.93279 37.3451 6.21883 37.8299 6.62663 38.2008C7.03444 38.5716 7.54504 38.8112 8.09169 38.8882L16.2566 40.0338C16.2973 40.0405 16.3386 40.0438 16.3799 40.0437C16.5394 40.0438 16.6962 40.0029 16.8352 39.9248C16.9741 39.8468 17.0904 39.7343 17.1728 39.5982C17.2552 39.4622 17.301 39.3072 17.3055 39.1483C17.3101 38.9895 17.2734 38.8321 17.199 38.6916C14.5136 33.6016 13.8252 33.3902 13.4934 33.2882ZM8.34951 37.0629C8.17015 37.0356 8.00314 36.9553 7.87009 36.8323C7.73705 36.7094 7.64408 36.5495 7.60321 36.3734C7.51714 36.0576 7.48135 35.7304 7.49712 35.4036C7.50005 35.1237 7.56358 34.8479 7.68339 34.5948H7.70929C9.81867 34.7263 12.1908 34.9168 12.8335 35.0299C13.528 35.9559 14.1491 36.9344 14.6912 37.9565L8.34951 37.0629ZM51.4141 32.7486C49.5039 32.8311 47.5993 33.0112 45.7076 33.2882C45.3758 33.3902 44.6863 33.6016 41.9971 38.6965C41.9227 38.8371 41.886 38.9944 41.8906 39.1532C41.8952 39.3121 41.9409 39.4671 42.0233 39.6031C42.1057 39.7392 42.2221 39.8517 42.361 39.9297C42.4999 40.0078 42.6567 40.0487 42.8162 40.0486C42.8575 40.0487 42.8988 40.0455 42.9396 40.0387L51.1044 38.8932C51.6511 38.8161 52.1617 38.5765 52.5695 38.2057C52.9773 37.8349 53.2633 37.3501 53.3902 36.8146C53.526 36.3018 53.5772 35.7705 53.5419 35.2413C53.3544 33.1321 52.2442 32.6982 51.4141 32.7486ZM51.5979 36.3734C51.557 36.5495 51.464 36.7094 51.331 36.8323C51.1979 36.9553 51.0309 37.0356 50.8516 37.0629L44.5099 37.9529C45.0523 36.9312 45.673 35.9528 46.3664 35.0262C47.0201 34.9119 49.3947 34.7214 51.5029 34.5911C51.6374 34.8408 51.7065 35.1202 51.7039 35.4036C51.7198 35.7304 51.684 36.0576 51.5979 36.3734ZM42.4079 34.1461C42.3147 34.0135 42.1881 33.9075 42.0409 33.8389C41.8937 33.7703 41.731 33.7415 41.5691 33.7552C41.484 33.7626 32.986 34.4927 29.6036 34.4927C26.2212 34.4927 17.722 33.7552 17.6382 33.7552C17.4762 33.741 17.3133 33.7697 17.1659 33.8383C17.0186 33.9068 16.8921 34.013 16.7991 34.1459C16.7061 34.2788 16.65 34.4339 16.6364 34.5954C16.6228 34.7568 16.6522 34.919 16.7216 35.0655L19.1579 40.217C19.2291 40.3667 19.3394 40.4946 19.4772 40.5874C19.615 40.6801 19.7752 40.7343 19.9412 40.7443L29.5987 41.295L39.271 40.7443C39.437 40.7346 39.5974 40.6805 39.7352 40.5877C39.873 40.4949 39.9832 40.3668 40.0543 40.217L42.4905 35.0655C42.5595 34.9187 42.5881 34.7562 42.5736 34.5947C42.5591 34.4332 42.5019 34.2785 42.4079 34.1461ZM38.611 38.9399L29.6011 39.4586L20.5962 38.9399L19.0777 35.7293C21.741 35.9456 27.0206 36.3439 29.6049 36.3439C32.1891 36.3439 37.47 35.9456 40.1345 35.7293L38.611 38.9399ZM34.919 6.14079L36.2833 6.64966C36.7294 6.81583 37.1345 7.07539 37.4714 7.41084C37.8082 7.74629 38.069 8.14981 38.236 8.5942L38.7467 9.95858C38.8133 10.133 38.9316 10.2831 39.0858 10.3891C39.24 10.495 39.4229 10.5517 39.6102 10.5517C39.7975 10.5517 39.9804 10.495 40.1346 10.3891C40.2888 10.2831 40.407 10.133 40.4737 9.95858L40.9844 8.59912C41.1516 8.15505 41.4123 7.75178 41.7489 7.41639C42.0855 7.081 42.4902 6.82125 42.9359 6.65458L44.3002 6.14571C44.4752 6.07931 44.6259 5.96147 44.7322 5.80781C44.8385 5.65415 44.8954 5.47192 44.8954 5.28529C44.8954 5.09866 44.8385 4.91643 44.7322 4.76277C44.6259 4.60911 44.4752 4.49127 44.3002 4.42487L42.9359 3.916C42.4899 3.74955 42.0849 3.48973 41.7483 3.15407C41.4116 2.81841 41.1511 2.41472 40.9844 1.97023L40.4786 0.600934C40.412 0.426511 40.2937 0.276386 40.1395 0.17046C39.9853 0.0645349 39.8024 0.0078125 39.6151 0.0078125C39.4278 0.0078125 39.245 0.0645349 39.0907 0.17046C38.9365 0.276386 38.8183 0.426511 38.7516 0.600934L38.236 1.96039C38.0693 2.40489 37.8088 2.80858 37.4721 3.14424C37.1355 3.4799 36.7305 3.73971 36.2845 3.90616L34.9202 4.41504C34.7452 4.48143 34.5945 4.59927 34.4882 4.75294C34.3819 4.9066 34.325 5.08882 34.325 5.27546C34.325 5.46209 34.3819 5.64431 34.4882 5.79798C34.5945 5.95164 34.7452 6.06948 34.9202 6.13587L34.919 6.14079ZM39.6127 3.36164C40.0703 4.15978 40.7338 4.82141 41.5345 5.27791C40.7336 5.73408 40.0699 6.39579 39.6127 7.19418C39.1543 6.39618 38.4904 5.73463 37.6896 5.27791C38.4904 4.8212 39.1543 4.15965 39.6127 3.36164ZM45.3203 11.8626L46.354 12.2485C46.6621 12.3637 46.9418 12.5434 47.1744 12.7753C47.4069 13.0073 47.5869 13.2862 47.7023 13.5932L48.0896 14.6233C48.1556 14.7992 48.274 14.9508 48.4289 15.0579C48.5837 15.1649 48.7677 15.2223 48.9562 15.2223C49.1447 15.2223 49.3287 15.1649 49.4835 15.0579C49.6384 14.9508 49.7568 14.7992 49.8228 14.6233L50.2089 13.5932C50.3244 13.2861 50.5047 13.0071 50.7374 12.7752C50.9702 12.5433 51.2501 12.3637 51.5584 12.2485L52.5921 11.8626C52.7666 11.7957 52.9167 11.6776 53.0226 11.524C53.1285 11.3704 53.1851 11.1885 53.1851 11.0021C53.1851 10.8158 53.1285 10.6338 53.0226 10.4802C52.9167 10.3266 52.7666 10.2086 52.5921 10.1417L51.5584 9.75085C51.2504 9.63652 50.9706 9.45748 50.7382 9.22587C50.5058 8.99427 50.3261 8.71554 50.2113 8.4086L49.8228 7.37733C49.7568 7.20141 49.6384 7.04978 49.4835 6.94273C49.3287 6.83568 49.1447 6.77832 48.9562 6.77832C48.7677 6.77832 48.5837 6.83568 48.4289 6.94273C48.274 7.04978 48.1556 7.20141 48.0896 7.37733L47.7023 8.4086C47.5869 8.71552 47.4069 8.99425 47.1743 9.22599C46.9418 9.45774 46.662 9.63713 46.354 9.75208L45.3191 10.138C45.144 10.2044 44.9934 10.3223 44.8871 10.4759C44.7808 10.6296 44.7238 10.8118 44.7238 10.9985C44.7238 11.1851 44.7808 11.3673 44.8871 11.521C44.9934 11.6746 45.144 11.7925 45.3191 11.8589L45.3203 11.8626ZM48.9556 9.95858C49.2371 10.3633 49.5894 10.7142 49.9955 10.9948C49.5902 11.2759 49.2382 11.6263 48.9556 12.0297C48.6738 11.626 48.3221 11.2756 47.9169 10.9948C48.3227 10.7142 48.6745 10.3632 48.9556 9.95858ZM51.0995 6.14079L52.1332 6.52675C52.4411 6.64156 52.7208 6.82077 52.9533 7.05229C53.1859 7.28382 53.366 7.5623 53.4815 7.869L53.8688 8.89904C53.9348 9.07496 54.0532 9.22659 54.2081 9.33364C54.3629 9.44069 54.5469 9.49805 54.7354 9.49805C54.9239 9.49805 55.1079 9.44069 55.2627 9.33364C55.4176 9.22659 55.536 9.07496 55.602 8.89904L55.9893 7.869C56.1044 7.56212 56.2842 7.2834 56.5166 7.05164C56.7489 6.81988 57.0285 6.64047 57.3363 6.52552L58.3713 6.13956C58.5463 6.07316 58.697 5.95532 58.8033 5.80166C58.9096 5.648 58.9665 5.46578 58.9665 5.27914C58.9665 5.09251 58.9096 4.91028 58.8033 4.75662C58.697 4.60296 58.5463 4.48512 58.3713 4.41873L57.3376 4.03154C57.0298 3.91679 56.7503 3.73759 56.5179 3.50604C56.2855 3.2745 56.1057 2.99598 55.9905 2.68929L55.6032 1.65802C55.5372 1.4821 55.4188 1.33047 55.264 1.22342C55.1091 1.11637 54.9251 1.059 54.7366 1.059C54.5482 1.059 54.3642 1.11637 54.2093 1.22342C54.0544 1.33047 53.9361 1.4821 53.8701 1.65802L53.4827 2.68929C53.3674 2.99606 53.1873 3.27462 52.9547 3.50616C52.7221 3.73771 52.4424 3.91686 52.1345 4.03154L51.0995 4.41873C50.9245 4.48512 50.7738 4.60296 50.6675 4.75662C50.5612 4.91028 50.5043 5.09251 50.5043 5.27914C50.5043 5.46578 50.5612 5.648 50.6675 5.80166C50.7738 5.95532 50.9245 6.07439 51.0995 6.14079ZM54.7348 4.24296C55.0172 4.64614 55.3688 4.9965 55.7734 5.27791C55.3688 5.55933 55.0172 5.90969 54.7348 6.31287C54.453 5.90917 54.1013 5.55871 53.6961 5.27791C54.101 4.99679 54.4527 4.64639 54.7348 4.24296ZM56.5062 52.0834C56.2608 52.0834 56.0255 52.1805 55.852 52.3534C55.6785 52.5263 55.581 52.7607 55.581 53.0052V56.8329C55.581 56.9192 55.5466 57.0021 55.4853 57.0632C55.424 57.1243 55.3408 57.1586 55.2541 57.1586H50.4482C50.3615 57.1586 50.2783 57.1243 50.217 57.0632C50.1557 57.0021 50.1213 56.9192 50.1213 56.8329V55.2546C50.1213 55.0101 50.0238 54.7756 49.8503 54.6027C49.6768 54.4299 49.4415 54.3327 49.1961 54.3327C48.9508 54.3327 48.7154 54.4299 48.5419 54.6027C48.3684 54.7756 48.271 55.0101 48.271 55.2546V56.8329C48.2716 57.408 48.5012 57.9595 48.9094 58.3662C49.3176 58.7729 49.871 59.0017 50.4482 59.0023H55.259C55.8363 59.0017 56.3897 58.7729 56.7979 58.3662C57.206 57.9595 57.4356 57.408 57.4363 56.8329V53.0052C57.4363 52.8838 57.4122 52.7635 57.3654 52.6513C57.3186 52.5391 57.25 52.4373 57.1635 52.3516C57.0771 52.266 56.9745 52.1982 56.8617 52.1521C56.7489 52.1061 56.6281 52.0827 56.5062 52.0834ZM9.94079 54.3315C9.69542 54.3315 9.4601 54.4286 9.2866 54.6015C9.1131 54.7744 9.01562 55.0089 9.01562 55.2534V56.8316C9.01563 56.9178 8.98135 57.0005 8.92032 57.0615C8.85928 57.1226 8.77645 57.157 8.68997 57.1574H3.87911C3.79263 57.157 3.7098 57.1226 3.64876 57.0615C3.58772 57.0005 3.55345 56.9178 3.55345 56.8316V53.0052C3.55345 52.7607 3.45598 52.5263 3.28248 52.3534C3.10898 52.1805 2.87366 52.0834 2.62829 52.0834C2.38292 52.0834 2.1476 52.1805 1.9741 52.3534C1.8006 52.5263 1.70312 52.7607 1.70312 53.0052V56.8329C1.70345 57.4075 1.93243 57.9586 2.33987 58.3652C2.74731 58.7719 3.29995 59.001 3.87664 59.0023H8.6875C9.26462 59.0017 9.8179 58.7729 10.2259 58.3661C10.6338 57.9594 10.8632 57.4079 10.8635 56.8329V55.2546C10.8638 55.0103 10.7668 54.7759 10.5938 54.6028C10.4208 54.4297 10.1859 54.3322 9.94079 54.3315Z" fill="#121212"/>
<path d="M57.2706 23.1795L54.1867 22.6485C53.7361 22.5656 53.2707 22.6382 52.867 22.8543C52.4634 23.0703 52.1457 23.417 51.9663 23.8371L51.7998 24.2058L49.6139 19.0679C49.1198 17.8898 48.3312 16.8574 47.3232 16.0691C46.3152 15.2807 45.1215 14.7627 43.8557 14.5642C39.139 13.8507 34.3739 13.5031 29.6032 13.5244C24.8325 13.5035 20.0674 13.8516 15.3507 14.5655C14.0851 14.7638 12.8914 15.2816 11.8834 16.0698C10.8755 16.8579 10.0868 17.8901 9.59252 19.0679L7.39926 24.2107L7.24383 23.8494C7.0658 23.4275 6.74891 23.0786 6.34533 22.8601C5.94175 22.6416 5.47554 22.5665 5.02344 22.6472L1.93956 23.1795C1.43909 23.2622 0.984346 23.5192 0.656328 23.9048C0.328309 24.2904 0.148324 24.7795 0.148438 25.285V25.8885C0.1489 26.3751 0.315488 26.8471 0.620821 27.2269C0.926154 27.6066 1.35206 27.8715 1.82854 27.9781L4.75699 28.637L3.45929 30.6098C2.33486 32.3144 1.73659 34.3101 1.73849 36.35V46.8348C1.73849 50.7915 4.50411 53.3494 8.78701 53.3494H50.4194C54.7023 53.3494 57.4679 50.7927 57.4679 46.8348V36.3451C57.4698 34.3052 56.8716 32.3095 55.7471 30.6049L54.4494 28.6382L57.368 27.9818C57.8459 27.8765 58.2735 27.6122 58.5804 27.2324C58.8874 26.8526 59.0554 26.3799 59.0567 25.8922V25.2887C59.0582 24.7832 58.8794 24.2937 58.5522 23.9074C58.2251 23.521 57.7709 23.2631 57.2706 23.1795ZM2.22697 26.1737C2.16204 26.1592 2.10403 26.123 2.06254 26.0711C2.02105 26.0193 1.99855 25.9549 1.99877 25.8885V25.285C1.99776 25.2154 2.02226 25.1478 2.06767 25.0948C2.11308 25.0419 2.17629 25.0073 2.24548 24.9974L5.34293 24.4639C5.38638 24.4561 5.43119 24.4643 5.46906 24.4869C5.50694 24.5095 5.53531 24.545 5.54893 24.5869L6.3051 26.2905L5.84375 26.9911L2.22697 26.1737ZM55.6176 43.9708H5.9338C5.68843 43.9708 5.45311 44.0679 5.27961 44.2408C5.10611 44.4137 5.00864 44.6482 5.00864 44.8927C5.00864 45.1372 5.10611 45.3717 5.27961 45.5446C5.45311 45.7174 5.68843 45.8146 5.9338 45.8146H55.6176V46.8348C55.6176 49.7577 53.6748 51.5056 50.4194 51.5056H8.78701C5.53166 51.5056 3.58882 49.759 3.58882 46.8348V36.3451C3.58752 34.6644 4.08025 33.0201 5.00617 31.6152L7.92229 27.1829H48.2854C48.5307 27.1829 48.7661 27.0857 48.9396 26.9128C49.1131 26.74 49.2105 26.5055 49.2105 26.261C49.2105 26.0165 49.1131 25.782 48.9396 25.6091C48.7661 25.4362 48.5307 25.3391 48.2854 25.3391H8.93257L11.2961 19.7931C11.668 18.9033 12.2627 18.1233 13.0233 17.5277C13.7839 16.9321 14.685 16.5406 15.6406 16.3908C20.2611 15.6895 24.9294 15.3475 29.6032 15.3681C34.2769 15.3463 38.9452 15.687 43.5658 16.3871C44.5218 16.5373 45.4232 16.9293 46.1838 17.5256C46.9444 18.1219 47.5389 18.9026 47.9104 19.7931L50.6143 26.1442C50.6353 26.195 50.6613 26.2436 50.692 26.2893L54.2002 31.6201C55.1262 33.025 55.6189 34.6693 55.6176 36.35V43.9708ZM57.2064 25.8885C57.2064 25.9562 57.1829 26.0217 57.14 26.0741C57.0971 26.1265 57.0373 26.1626 56.9708 26.1762L53.3664 26.9874L52.905 26.2868L53.6661 24.566C53.6832 24.5287 53.7122 24.4981 53.7486 24.479C53.785 24.4599 53.8267 24.4533 53.8672 24.4603L56.9585 24.9937C57.0277 25.0036 57.0909 25.0382 57.1363 25.0911C57.1817 25.1441 57.2062 25.2117 57.2052 25.2813L57.2064 25.8885Z" fill="#121212"/>
</svg>
