<svg width="78" height="48" viewBox="0 0 78 48" fill="none" xmlns="http://www.w3.org/2000/svg">
<path d="M64.0473 20.1731C63.5137 20.1764 62.9807 20.2134 62.4513 20.2838L62.244 19.7726H67.4008C67.9222 19.7723 68.4352 19.637 68.893 19.3789C69.3508 19.1207 69.7388 18.7481 70.0216 18.295C70.3043 17.8418 70.4729 17.3226 70.5118 16.7848C70.5507 16.2469 70.4587 15.7076 70.2443 15.2159C67.1639 8.18138 62.4389 2.94179 56.9395 0.461841C56.6888 0.349114 56.4076 0.332507 56.1461 0.414999C55.8847 0.497491 55.6602 0.673681 55.5131 0.911939C55.3659 1.1502 55.3057 1.43492 55.3431 1.71499C55.3806 1.99507 55.5134 2.25215 55.7176 2.44009C58.8971 5.35928 58.7573 7.63352 58.5499 8.47397C58.4921 8.71138 58.4038 8.9397 58.2874 9.15285L56.6153 7.23706C56.4464 7.04389 56.2208 6.91344 55.9733 6.86573C55.7257 6.81802 55.4699 6.8557 55.2451 6.97297L53.0702 8.1101C52.7132 7.53863 52.4129 6.93135 52.1738 6.29749C52.0659 6.01419 51.8568 5.78471 51.5897 5.65662C47.9653 4.13593 45.4466 1.98185 40.6652 1.98185C38.5848 1.98147 36.5277 2.43471 34.6281 3.31201C32.7284 4.18932 31.0288 5.47099 29.6402 7.07345C27.7666 8.13182 22.6924 7.47127 18.7628 6.9207L16.4777 3.69059C16.3022 3.44178 16.0401 3.27332 15.7467 3.22081L8.33106 1.88952C7.7408 1.78384 7.1336 1.85638 6.58216 2.09845C6.03072 2.34052 5.5584 2.74187 5.22175 3.25445C4.8851 3.76702 4.69838 4.36911 4.68395 4.98862C4.66952 5.60814 4.82798 6.21883 5.14037 6.74758L8.69725 12.7828C8.81371 12.9801 8.98312 13.1382 9.18484 13.2377L28.8264 22.8893C29.2006 23.0746 29.528 23.3474 29.7826 23.6862C30.0372 24.0251 30.212 24.4206 30.2933 24.8414C30.3745 25.2623 30.3599 25.6969 30.2507 26.1109C30.1414 26.5249 29.9405 26.9069 29.6638 27.2267L28.5357 28.5301C28.4288 28.6552 28.3489 28.8024 28.3014 28.9619L26.3937 29.0691C25.2919 26.0554 23.2033 23.537 20.4914 21.9522C17.7796 20.3674 14.6164 19.8168 11.5525 20.3961C8.48864 20.9755 5.71824 22.6481 3.72367 25.1228C1.7291 27.5974 0.636719 30.7174 0.636719 33.9394C0.636719 37.1614 1.7291 40.2814 3.72367 42.7561C5.71824 45.2308 8.48864 46.9034 11.5525 47.4827C14.6164 48.062 17.7796 47.5114 20.4914 45.9266C23.2033 44.3419 25.2919 41.8234 26.3937 38.8097L28.2653 38.9149C28.3121 39.1887 28.4505 39.4368 28.6562 39.6158C28.862 39.7947 29.122 39.8932 29.3908 39.8939H42.693C44.6591 39.8919 46.5442 39.083 47.9345 37.6448C49.3248 36.2066 50.1067 34.2565 50.1086 32.2225C50.1085 30.3241 50.5283 28.4508 51.3358 26.746C52.2991 24.731 53.7666 23.0198 55.5857 21.7902L56.0536 22.9443C53.5318 24.9097 51.7681 27.7391 51.0779 30.9264C50.3877 34.1136 50.8161 37.451 52.2865 40.3415C53.7568 43.232 56.1731 45.4871 59.1034 46.7036C62.0336 47.9201 65.2866 48.0186 68.2806 46.9814C71.2746 45.9442 73.8143 43.8391 75.4455 41.0425C77.0767 38.2459 77.693 34.9402 77.1842 31.7166C76.6753 28.493 75.0746 25.5618 72.6682 23.4472C70.2618 21.3326 67.2067 20.1725 64.0493 20.1745L64.0473 20.1731ZM13.9492 45.3324C11.9714 45.3341 10.0297 44.7847 8.32802 43.742C6.62634 42.6993 5.22754 41.2018 4.27856 39.4067C3.32958 37.6116 2.86545 35.5852 2.93495 33.5405C3.00444 31.4958 3.60499 29.5081 4.6735 27.7864C5.74201 26.0647 7.23903 24.6725 9.00729 23.756C10.7756 22.8395 12.7498 22.4326 14.7226 22.578C16.6954 22.7234 18.5939 23.4157 20.2187 24.5823C21.8435 25.7489 23.1346 27.3466 23.9564 29.2076L21.4429 29.3495C20.674 28.0012 19.5783 26.8839 18.264 26.1079C16.9497 25.332 15.4625 24.9243 13.9492 24.9253C12.8033 24.9136 11.667 25.1415 10.6083 25.5953C9.54962 26.0491 8.59046 26.7195 7.78834 27.5661C6.9146 28.4702 6.2368 29.5563 5.79996 30.7522C5.36313 31.9481 5.17725 33.2265 5.25468 34.5024C5.3321 35.7783 5.67106 37.0226 6.24905 38.1526C6.82703 39.2826 7.6308 40.2725 8.60699 41.0565C9.58317 41.8405 10.7094 42.4006 11.9109 42.6997C13.1125 42.9989 14.3618 43.0301 15.5759 42.7914C16.79 42.5527 17.9411 42.0495 18.9527 41.3153C19.9644 40.581 20.8135 39.6325 21.4436 38.5327L23.9564 38.6739C23.0721 40.6526 21.6613 42.3297 19.889 43.5089C18.1167 44.6881 16.0564 45.3206 13.9492 45.3324ZM17.6045 28.49L16.502 29.6272L15.0977 29.7066V27.4106C15.9989 27.5787 16.8542 27.947 17.6045 28.49ZM10.2808 35.1288C10.3464 35.3575 10.4312 35.5799 10.5341 35.7934L8.67691 37.7147C8.15542 36.9397 7.80113 36.0578 7.63806 35.1288H10.2808ZM7.63806 32.7527C7.80192 31.8235 8.15712 30.9416 8.67953 30.1669L10.5367 32.0881C10.4337 32.3016 10.3489 32.524 10.2834 32.7527H7.63806ZM12.1052 37.5287C12.3263 37.6618 12.5592 37.7728 12.8008 37.8599V40.4696C11.9021 40.3025 11.0489 39.9364 10.2998 39.3962L12.1052 37.5287ZM10.2998 28.486C11.0488 27.9454 11.902 27.5788 12.8008 27.4113V30.0216C12.5594 30.1092 12.3266 30.2206 12.1058 30.3543L10.2998 28.486ZM15.0977 40.4709V38.1756L16.5014 38.2544L17.6045 39.3922C16.854 39.9347 15.9988 40.3027 15.0977 40.4709ZM28.2423 36.5334L14.0299 35.7364C13.5897 35.7083 13.1763 35.5083 12.8733 35.1767C12.5703 34.8452 12.4004 34.4069 12.398 33.9507C12.3955 33.4944 12.5608 33.0542 12.8602 32.7193C13.1597 32.3843 13.571 32.1796 14.0109 32.1465L28.2423 31.3454V36.5334ZM64.8729 32.3923L64.8913 32.4371C64.8965 32.5049 65.604 33.7833 64.3827 34.306C64.1016 34.4229 63.7873 34.4203 63.5081 34.299C63.2288 34.1776 63.0071 33.9471 62.891 33.6577C61.1366 29.3317 59.3822 25.0056 57.6279 20.6795L57.6509 20.6687C58.3606 20.3726 59.0964 20.1484 59.848 19.9993C61.6081 24.3455 62.9357 27.6191 64.8729 32.3977V32.3923ZM61.0483 35.1288C61.0772 35.1763 61.1139 35.2171 61.1434 35.2646L58.7737 37.7126C58.2524 36.9399 57.8983 36.06 57.7355 35.1329L61.0483 35.1288ZM57.7355 32.7527C57.8982 31.8257 58.2521 30.9458 58.7731 30.173L59.1333 30.5457L60.0291 32.7534L57.7355 32.7527ZM62.8982 36.8077V40.4736C61.9986 40.3051 61.1448 39.9373 60.3953 39.3956L62.8982 36.8077ZM55.4984 9.50044L56.2524 10.3647C55.7182 10.3516 55.1978 10.1872 54.7476 9.88944L55.4984 9.50044ZM29.2005 9.73941C29.2212 10.0998 29.215 10.4614 29.1821 10.8209C29.1217 11.0199 28.9997 11.1928 28.8349 11.313C28.7201 11.3954 28.5863 11.4451 28.447 11.457C28.3078 11.4689 28.1679 11.4427 28.0415 11.3809L25.0772 9.98923C26.4563 10.0889 27.8421 10.0049 29.2005 9.73941ZM49.2752 25.6931C48.3106 27.7262 47.8099 29.9612 47.8117 32.2259C47.81 33.6298 47.2701 34.9756 46.3106 35.9683C45.351 36.9609 44.05 37.5194 42.693 37.5212H35.6744C37.4861 36.4972 39.032 35.0358 40.1807 33.2612C41.3295 31.4867 42.047 29.4514 42.2723 27.3285C42.3455 26.7252 42.6015 26.1613 43.0037 25.7179C43.4058 25.2744 43.9334 24.9741 44.5108 24.8601C46.5032 24.4331 48.8755 23.7433 50.8219 23.131C50.2254 23.929 49.7072 24.7866 49.2752 25.691V25.6931ZM53.6215 19.7189C50.4802 20.8335 47.2839 21.7749 44.0462 22.539C42.9934 22.7533 42.0335 23.3077 41.3046 24.1222C40.5757 24.9368 40.1154 25.9695 39.9899 27.0719C39.4025 32.4561 35.6107 35.6611 30.5812 37.1702L30.5392 37.1811V29.7813L31.3746 28.8166C31.8906 28.2216 32.2653 27.5102 32.4689 26.7392C32.6726 25.9681 32.6995 25.1585 32.5477 24.3747C32.3959 23.5909 32.0695 22.8546 31.5943 22.2242C31.1192 21.5939 30.5085 21.0868 29.8108 20.7434L10.479 11.2391L7.09862 5.5032C7.01655 5.36418 6.97496 5.20364 6.97883 5.0408C6.9827 4.87796 7.03186 4.71972 7.12043 4.58504C7.209 4.45036 7.33322 4.34495 7.47822 4.28143C7.62322 4.21792 7.78284 4.19898 7.93797 4.22691L14.8942 5.47536L17.1911 8.72652C17.3114 8.88786 17.4661 9.01821 17.6432 9.10737L27.0933 13.5425C27.6258 13.7875 28.2137 13.8745 28.7913 13.7938C29.3688 13.7131 29.9134 13.4679 30.364 13.0856C30.721 12.7874 31.0083 12.4097 31.2045 11.9807C31.4007 11.5516 31.5008 11.0823 31.4973 10.6077V8.48348C32.669 7.18032 34.0879 6.14113 35.6653 5.43082C37.2427 4.72051 38.9448 4.35435 40.6652 4.35521C44.7418 4.35521 46.8903 6.20991 50.2169 7.61384C50.4428 8.15666 50.706 8.68209 51.0044 9.18612L49.7542 9.83988C49.616 9.90796 49.4923 10.0039 49.3905 10.1222C49.2886 10.2404 49.2106 10.3785 49.1611 10.5284C49.1116 10.6782 49.0916 10.8368 49.1022 10.9948C49.1128 11.1528 49.1538 11.307 49.2229 11.4483C49.2919 11.5897 49.3876 11.7153 49.5042 11.8179C49.6209 11.9204 49.7562 11.9978 49.9022 12.0455C50.0482 12.0932 50.2019 12.1102 50.3543 12.0955C50.5068 12.0808 50.6548 12.0347 50.7898 11.96L52.4836 11.0775C53.1034 11.7279 53.8691 12.2099 54.7124 12.4805C55.5557 12.7512 56.4506 12.8021 57.3175 12.6287C57.8611 12.4955 58.3762 12.2593 58.8367 11.9322C58.8485 11.9254 58.8597 11.9166 58.8715 11.9091C59.8176 11.2303 60.4937 10.2197 60.7746 9.0646C61.043 7.91656 60.987 6.71292 60.6132 5.59688C63.8691 8.49639 66.447 12.122 68.1528 16.201C68.2083 16.3307 68.2315 16.4727 68.2206 16.6141C68.2096 16.7556 68.1647 16.8919 68.09 17.0108C68.0153 17.1298 67.913 17.2276 67.7926 17.2954C67.6721 17.3632 67.5373 17.3989 67.4001 17.3992H62.1436C58.4994 17.3965 57.2223 18.4691 53.6215 19.7135V19.7189ZM64.0473 45.3324C61.7873 45.3328 59.5819 44.6137 57.7305 43.2727C55.8791 41.9317 54.4716 40.0338 53.6989 37.8367C52.9262 35.6396 52.8259 33.2497 53.4115 30.9916C53.9971 28.7334 55.2403 26.7164 56.9723 25.2145L57.9153 27.5396C57.8868 27.5671 57.8598 27.5964 57.8346 27.6272L57.8149 27.6496C56.224 29.3298 55.333 31.5881 55.333 33.9401C55.333 36.2921 56.224 38.5504 57.8149 40.2306C57.8307 40.2503 57.8484 40.2693 57.8655 40.2883C57.8825 40.3073 57.8924 40.3175 57.9068 40.3317C59.5409 42.0154 61.7541 42.9593 64.0604 42.9562C66.3668 42.9532 68.5776 42.0034 70.2076 40.3155C71.0181 39.48 71.6609 38.487 72.099 37.3935C72.5371 36.3001 72.7619 35.1278 72.7604 33.9442C72.7677 32.7594 72.5454 31.5852 72.1067 30.4908C71.6681 29.3963 71.0218 28.404 70.2062 27.5722C68.6406 25.9634 66.5449 25.0261 64.3394 24.9483L63.3812 22.5858C63.6017 22.5723 63.8203 22.5533 64.0454 22.5533C66.9659 22.5533 69.7668 23.7534 71.8319 25.8898C73.8971 28.0261 75.0573 30.9236 75.0573 33.9448C75.0573 36.9661 73.8971 39.8636 71.8319 41.9999C69.7668 44.1363 66.9659 45.3364 64.0454 45.3364L64.0473 45.3324ZM67.3562 32.7527C67.337 32.5941 67.3079 32.437 67.2689 32.2823L69.317 30.1662C69.8388 30.9414 70.1935 31.8234 70.3572 32.7527H67.3562ZM70.3585 35.1288C70.1956 36.0579 69.8413 36.9398 69.3197 37.7147L66.8331 35.1431L66.8417 35.1288H70.3585ZM66.3429 29.8818L65.3533 27.4378C66.1945 27.6181 66.9916 27.9733 67.6961 28.4819L66.3429 29.8818ZM67.6967 39.3962C66.9476 39.9363 66.0945 40.3024 65.1958 40.4696V36.809L67.6967 39.3962Z" fill="black"/>
</svg>
