<svg width="78" height="54" viewBox="0 0 78 54" fill="none" xmlns="http://www.w3.org/2000/svg">
<path d="M62.7121 23.8487C61.5814 23.8492 60.4543 23.9766 59.3521 24.2286L59.0239 23.5205C59.7277 23.1201 60.2476 22.4608 60.4729 21.683C61.5851 22.6399 63.0037 23.1659 64.4708 23.1655H65.2728C65.4236 23.1656 65.573 23.136 65.7123 23.0783C65.8517 23.0206 65.9784 22.936 66.085 22.8293C66.1917 22.7227 66.2763 22.596 66.3339 22.4567C66.3916 22.3173 66.4213 22.1679 66.4212 22.0171V11.9935C66.4213 11.8427 66.3916 11.6933 66.3339 11.5539C66.2763 11.4146 66.1917 11.2879 66.085 11.1813C65.9784 11.0746 65.8517 10.99 65.7123 10.9323C65.573 10.8746 65.4236 10.845 65.2728 10.8451H64.4708C63.6021 10.8459 62.7434 11.031 61.9515 11.3883C61.1596 11.7455 60.4526 12.2667 59.8771 12.9175C59.4634 12.2785 58.8956 11.7537 58.226 11.3916C57.5564 11.0294 56.8065 10.8415 56.0452 10.8451H53.1184L51.1975 6.72842C51.5816 5.68463 51.5976 4.54093 51.2428 3.4868C50.888 2.43268 50.1837 1.53142 49.2466 0.932339C48.3095 0.333259 47.1959 0.0723214 46.0902 0.192762C44.9845 0.313202 43.9531 0.80779 43.167 1.59458L37.1577 1.58211C36.2439 1.58211 35.3676 1.9451 34.7215 2.59122C34.0754 3.23734 33.7124 4.11367 33.7124 5.02742C33.7124 5.94118 34.0754 6.81751 34.7215 7.46363C35.3676 8.10975 36.2439 8.47274 37.1577 8.47274L43.1466 8.48455C43.6557 8.99725 44.272 9.39081 44.9513 9.63692L46.0715 12.0447C45.0977 12.5758 44.275 13.3459 43.6808 14.2825C42.871 13.5487 41.8172 13.1422 40.7244 13.142H40.2066C37.2897 13.1438 34.4191 13.8711 31.8532 15.2584H25.693C19.7214 15.2583 13.7787 14.4276 8.03594 12.7902L6.11773 12.2383C5.72009 12.1247 5.3038 12.0913 4.89315 12.1402C4.48249 12.1891 4.08567 12.3193 3.72584 12.5231C3.366 12.7269 3.05034 13.0004 2.79726 13.3275C2.54418 13.6545 2.35874 14.0287 2.25176 14.4282C1.98926 15.425 1.65326 16.7946 1.25295 18.5029C1.10135 19.1527 1.09847 19.8284 1.24453 20.4795C1.39059 21.1305 1.68181 21.7402 2.09647 22.263C2.51112 22.7858 3.0385 23.2082 3.63923 23.4987C4.23996 23.7892 4.89855 23.9402 5.56582 23.9405H13.6567C10.3224 24.2978 7.20348 25.7604 4.79661 28.0955C2.38975 30.4305 0.833343 33.5037 0.375237 36.8257C-0.0828692 40.1476 0.583667 43.5274 2.26871 46.4267C3.95374 49.326 6.56039 51.5782 9.67357 52.8246C12.7867 54.071 16.2274 54.2399 19.4478 53.3045C22.6681 52.3691 25.4828 50.3832 27.4438 47.6629C29.4048 44.9426 30.3992 41.6444 30.2688 38.2935C30.1383 34.9427 28.8905 31.7318 26.724 29.1722L27.396 28.2626L33.1342 39.0737C33.8188 40.3627 34.8094 41.4639 36.019 42.2807C37.2286 43.0974 38.6203 43.6046 40.0718 43.7578C41.5232 43.9109 42.9901 43.7054 44.3436 43.1592C45.697 42.613 46.8957 41.7428 47.8342 40.625C48.1795 43.4914 49.3456 46.197 51.1921 48.4163C53.0386 50.6357 55.4869 52.2744 58.2426 53.1353C60.9984 53.9962 63.9441 54.0427 66.7256 53.2691C69.5071 52.4956 72.006 50.9349 73.9215 48.7749C75.8371 46.6149 77.0879 43.9474 77.5235 41.0934C77.959 38.2394 77.5608 35.3203 76.3767 32.6872C75.1926 30.0541 73.273 27.8192 70.8488 26.2512C68.4247 24.6832 65.5991 23.8489 62.7121 23.8487ZM64.123 13.157V20.8522C63.1626 20.7653 62.2695 20.3223 61.6191 19.6103C60.9688 18.8984 60.6082 17.9689 60.6082 17.0046C60.6082 16.0403 60.9688 15.1109 61.6191 14.399C62.2695 13.687 63.1626 13.244 64.123 13.157ZM41.8656 6.18505L37.1643 6.17586C37.0134 6.17556 36.8642 6.14555 36.7249 6.08756C36.5857 6.02957 36.4593 5.94472 36.3529 5.83787C36.2464 5.73101 36.1621 5.60424 36.1047 5.46479C36.0472 5.32534 36.0178 5.17594 36.0181 5.02513C36.0184 4.87431 36.0484 4.72503 36.1064 4.58581C36.1644 4.44659 36.2493 4.32016 36.3561 4.21373C36.463 4.1073 36.5897 4.02296 36.7292 3.96553C36.8686 3.90809 37.018 3.87868 37.1689 3.87899L41.8735 3.88817C41.6816 4.64144 41.6789 5.43048 41.8656 6.18505ZM63.4044 38.361C63.4713 38.498 63.5101 38.647 63.5186 38.7993C63.5271 38.9515 63.5052 39.1039 63.4541 39.2476C63.4029 39.3912 63.3236 39.5232 63.2208 39.6358C63.118 39.7484 62.9938 39.8394 62.8554 39.9034C62.717 39.9674 62.5672 40.0031 62.4148 40.0084C62.2624 40.0138 62.1105 39.9887 61.968 39.9346C61.8254 39.8805 61.6951 39.7984 61.5847 39.6933C61.4742 39.5882 61.3858 39.4621 61.3248 39.3224L54.1519 23.9405H56.6844L63.4044 38.361ZM65.4847 37.3878L62.3944 30.7596C62.5008 30.7557 62.6064 30.7419 62.7121 30.7419C64.5473 30.7348 66.3309 31.349 67.7727 32.4845C69.2145 33.6199 70.2296 35.2099 70.6528 36.9957C71.0761 38.7815 70.8825 40.658 70.1036 42.3197C69.3248 43.9815 68.0065 45.3308 66.3632 46.1481C64.72 46.9653 62.8486 47.2024 61.0534 46.8208C59.2583 46.4392 57.6451 45.4613 56.4765 44.0463C55.3078 42.6313 54.6523 40.8624 54.6168 39.0275C54.5813 37.1926 55.1678 35.3997 56.2808 33.9405L59.2418 40.2917C59.4312 40.7034 59.7001 41.0737 60.0329 41.3813C60.3657 41.6889 60.756 41.9277 61.1814 42.0841C61.6067 42.2405 62.0588 42.3114 62.5116 42.2927C62.9644 42.274 63.4091 42.166 63.8201 41.9751C64.2311 41.7841 64.6004 41.5139 64.9067 41.1798C65.213 40.8458 65.4504 40.4546 65.6051 40.0287C65.7599 39.6027 65.8291 39.1504 65.8086 38.6977C65.7882 38.2449 65.6786 37.8007 65.486 37.3904L65.4847 37.3878ZM50.5878 10.8602C49.7848 10.8845 48.9869 10.9967 48.2083 11.1949L47.577 9.83839C48.338 9.68457 49.0512 9.35062 49.6566 8.86452L50.5878 10.8602ZM44.0253 5.05039C44.0255 4.53854 44.1774 4.03822 44.4618 3.61268C44.7463 3.18715 45.1505 2.85551 45.6234 2.65969C46.0963 2.46387 46.6167 2.41267 47.1187 2.51256C47.6207 2.61245 48.0818 2.85895 48.4438 3.22088C48.8057 3.58281 49.0522 4.04393 49.1521 4.54594C49.252 5.04795 49.2008 5.56831 49.005 6.04123C48.8091 6.51414 48.4775 6.91838 48.052 7.20283C47.6264 7.48728 47.1261 7.63917 46.6143 7.6393C45.9277 7.63878 45.2693 7.36589 44.7837 6.88053C44.2981 6.39517 44.0249 5.73697 44.024 5.05039H44.0253ZM45.1528 17.1838C45.1528 14.8416 47.6177 13.142 51.0144 13.142H56.0433C56.6345 13.1383 57.2034 13.3671 57.6276 13.7789C58.0518 14.1907 58.2973 14.7526 58.3113 15.3437V20.8234C58.3109 21.0408 58.2244 21.2493 58.0706 21.403C57.9168 21.5568 57.7084 21.6433 57.4909 21.6437H45.1534L45.1528 17.1838ZM53.1768 27.2776C52.5836 27.7712 52.0292 28.3096 51.5184 28.888L52.3105 25.4191L53.1768 27.2776ZM40.204 15.4388H40.7218C41.2872 15.4395 41.8293 15.6645 42.2291 16.0643C42.629 16.4641 42.8539 17.0062 42.8546 17.5716V21.6437H27.8921C29.3168 19.7194 31.1726 18.1558 33.3107 17.0782C35.4488 16.0007 37.8097 15.4392 40.204 15.4388ZM27.9833 38.8374C27.9844 41.5447 27.1201 44.1814 25.5166 46.3627C23.9131 48.544 21.6544 50.1556 19.0701 50.9623C16.4858 51.769 13.7113 51.7285 11.1517 50.8468C8.59201 49.965 6.38122 48.2882 4.84204 46.0611C3.30285 43.8339 2.51585 41.1731 2.59594 38.467C2.67603 35.7609 3.619 33.1513 5.28721 31.0191C6.95542 28.8869 9.2615 27.3437 11.8688 26.6149C14.4761 25.886 17.2481 26.0097 19.7802 26.9678L18.3476 28.907C17.3603 28.5993 16.3322 28.4426 15.298 28.4424C12.9753 28.4401 10.7187 29.2152 8.88762 30.6442C7.05657 32.0733 5.75647 34.074 5.19446 36.3277C4.63245 38.5814 4.84088 40.9583 5.78653 43.0798C6.73218 45.2012 8.36064 46.9452 10.4125 48.0337C12.4643 49.1223 14.8214 49.4928 17.1082 49.0863C19.395 48.6798 21.48 47.5196 23.031 45.7906C24.5819 44.0616 25.5096 41.8632 25.6661 39.5458C25.8227 37.2284 25.1992 34.9253 23.8949 33.0034L25.3229 31.0714C27.0524 33.2901 27.9891 36.0242 27.9833 38.8374ZM13.2485 41.6107C13.9843 42.1521 14.9047 42.3797 15.808 42.2437C16.7112 42.1076 17.5237 41.619 18.0674 40.8849L22.4164 35.0016C23.2537 36.5612 23.5562 38.3525 23.2776 40.1006C22.9991 41.8486 22.1547 43.4571 20.874 44.6791C19.5934 45.9012 17.9472 46.6694 16.188 46.8659C14.4288 47.0624 12.6537 46.6763 11.135 45.7669C9.61628 44.8576 8.43783 43.4751 7.7804 41.8315C7.12297 40.188 7.02287 38.3742 7.49545 36.6683C7.96803 34.9623 8.98718 33.4586 10.3966 32.3876C11.806 31.3166 13.5279 30.7376 15.298 30.7393C15.8287 30.7394 16.358 30.7921 16.8783 30.8968L12.5227 36.7912C11.9813 37.5271 11.7537 38.4476 11.8897 39.351C12.0258 40.2544 12.5144 41.067 13.2485 41.6107ZM16.22 39.518C16.0393 39.7632 15.7685 39.9266 15.4673 39.9722C15.1661 40.0178 14.8591 39.9418 14.6139 39.7611C14.3686 39.5803 14.2052 39.3096 14.1596 39.0084C14.114 38.7071 14.19 38.4002 14.3707 38.1549L19.708 30.9362C19.7146 30.927 19.7218 30.9185 19.7277 30.9093L22.4446 27.2343C22.4544 27.2225 22.4629 27.2093 22.4721 27.1969L24.876 23.9445H25.103L26.2049 26.0143L24.3392 28.5382C24.3208 28.5619 24.3024 28.5842 24.2867 28.6085L16.22 39.518ZM21.1905 25.0608C19.8301 24.477 18.3901 24.0994 16.9183 23.9405H22.0187L21.1905 25.0608ZM25.1418 21.6437H5.56582C5.24457 21.6434 4.92752 21.5706 4.6383 21.4308C4.34908 21.291 4.09515 21.0877 3.89543 20.836C3.69572 20.5844 3.55537 20.2909 3.48485 19.9775C3.41432 19.6641 3.41545 19.3388 3.48813 19.0259C3.88188 17.3393 4.2146 15.9894 4.47251 15.0162C4.50137 14.912 4.55055 14.8146 4.6172 14.7295C4.68385 14.6444 4.76667 14.5733 4.86089 14.5203C4.95512 14.4673 5.05888 14.4334 5.16623 14.4207C5.27358 14.4079 5.38239 14.4165 5.48641 14.4459L7.40529 14.9978C13.3537 16.6949 19.5092 17.5563 25.695 17.5572H28.5503C27.2134 18.7385 26.064 20.1164 25.1418 21.6437ZM47.4543 36.3673C47.1544 37.6831 46.4593 38.8758 45.462 39.7851C44.4648 40.6944 43.2132 41.2769 41.8754 41.4543C40.5375 41.6317 39.1774 41.3957 37.9776 40.7777C36.7778 40.1598 35.7958 39.1896 35.1634 37.9974L28.551 25.5392L28.5438 25.5254L27.7024 23.9405H50.2893L47.4543 36.3673ZM62.7121 51.5359C60.1492 51.5359 57.6464 50.7601 55.533 49.3105C53.4195 47.8609 51.7944 45.8055 50.8715 43.4146C49.9485 41.0237 49.771 38.4095 50.3623 35.9158C50.9536 33.4221 52.286 31.1658 54.1841 29.4439L55.2164 31.658C53.4835 33.4507 52.4421 35.7994 52.2769 38.2872C52.1118 40.775 52.8337 43.2407 54.3144 45.2467C55.7952 47.2526 57.9389 48.6688 60.3649 49.2438C62.791 49.8189 65.3423 49.5155 67.5658 48.3876C69.7893 47.2597 71.5412 45.3802 72.5102 43.083C73.4793 40.7858 73.6028 38.2195 72.8589 35.8398C72.115 33.4601 70.5518 31.4211 68.4468 30.0848C66.3419 28.7485 63.8315 28.2015 61.3615 28.5409L60.3509 26.3752C62.0862 26.048 63.8706 26.0865 65.5902 26.4882C67.3098 26.8899 68.9266 27.646 70.3372 28.7082C71.7479 29.7704 72.9214 31.1153 73.7827 32.6569C74.644 34.1984 75.1741 35.9028 75.3392 37.6609C75.5043 39.4191 75.3006 41.1923 74.7413 42.8672C74.182 44.5422 73.2793 46.082 72.091 47.3882C70.9027 48.6944 69.4549 49.7382 67.8401 50.453C66.2254 51.1678 64.4792 51.5377 62.7134 51.5391L62.7121 51.5359Z" fill="black"/>
</svg>
