<svg width="71" height="45" viewBox="0 0 71 45" fill="none" xmlns="http://www.w3.org/2000/svg">
<path d="M42.4393 23.7815L37.7756 29.2832C37.6797 29.3962 37.6071 29.5269 37.5618 29.668C37.5165 29.8091 37.4995 29.9577 37.5116 30.1054C37.5238 30.2531 37.5649 30.3969 37.6327 30.5287C37.7005 30.6604 37.7935 30.7776 37.9066 30.8733C38.11 31.0464 38.3685 31.1413 38.6356 31.141C38.9557 31.141 39.2736 31.0057 39.4969 30.7424L44.1606 25.2407C44.2565 25.1277 44.3291 24.9969 44.3744 24.8558C44.4197 24.7147 44.4368 24.5661 44.4246 24.4184C44.4124 24.2708 44.3713 24.1269 44.3035 23.9952C44.2358 23.8634 44.1427 23.7463 44.0297 23.6505C43.8014 23.457 43.5056 23.3621 43.2074 23.3866C42.9091 23.4112 42.6329 23.5532 42.4393 23.7815Z" fill="#121212"/>
<path d="M70.4867 33.2669C70.4836 33.2082 70.4791 33.1501 70.4746 33.0917L70.4651 32.9653C70.4608 32.897 70.4554 32.8287 70.4489 32.7606C70.4388 32.6628 70.4272 32.5652 70.4139 32.4678L70.4037 32.387C70.3991 32.347 70.3939 32.307 70.3882 32.2672C70.3684 32.1358 70.3461 32.0048 70.3213 31.8743L70.3183 31.8575C70.314 31.8314 70.3093 31.8054 70.3042 31.7795C70.2416 31.4632 70.1647 31.15 70.0737 30.8407C69.3315 28.3244 67.6776 26.1961 65.4171 24.8477C65.2675 24.7586 65.1157 24.6733 64.9618 24.5919L64.8783 24.549C64.7514 24.4829 64.6231 24.4195 64.4935 24.3588C64.4654 24.3457 64.4375 24.333 64.4092 24.3204L64.3672 24.3014C64.2094 24.23 64.0497 24.1628 63.8884 24.0996L63.8552 24.0866C63.685 24.0207 63.5131 23.9591 63.3396 23.9021C63.2308 23.8665 63.1213 23.8327 63.0114 23.8007C62.8397 23.7497 62.6664 23.704 62.4918 23.6638L62.4754 23.6601C62.4125 23.6448 62.3494 23.6303 62.2862 23.6165C62.1767 23.5933 62.0667 23.5719 61.9564 23.5525L61.9053 23.543C61.8532 23.5336 61.8014 23.5239 61.75 23.5157C61.6454 23.4995 61.5405 23.4848 61.4354 23.4718L61.3517 23.4611C61.3021 23.4543 61.2523 23.4479 61.2038 23.4428C61.0808 23.4297 60.9563 23.4207 60.8259 23.4114L60.7762 23.4074C60.7355 23.4041 60.6952 23.4008 60.6506 23.3982C60.2786 23.3778 59.9057 23.3779 59.5337 23.3985C59.4932 23.4007 59.453 23.404 59.4127 23.4074L59.3562 23.4118C59.2318 23.4207 59.1075 23.4297 58.9858 23.4427C58.9359 23.448 58.8863 23.4544 58.8368 23.461L58.7586 23.4713C58.6513 23.4849 58.5445 23.4987 58.4406 23.5156C58.3864 23.5243 58.3329 23.5339 58.2797 23.5439L58.2329 23.5525C58.1222 23.5723 58.0113 23.5931 57.8993 23.6171C57.831 23.632 57.7633 23.6482 57.6998 23.6635C57.5898 23.6893 57.4799 23.7163 57.3706 23.7459C57.3284 23.7575 57.2872 23.7694 57.2461 23.7813L56.343 22.3225C58.0407 21.7188 59.6697 21.4638 60.9335 21.3667C60.9527 21.3652 60.9719 21.3635 60.9909 21.3609C63.2378 21.0721 64.6192 19.6712 64.5965 17.7043C64.5959 17.6659 64.5935 17.6275 64.5891 17.5893C64.5545 17.2811 64.5135 16.9736 64.4663 16.667C64.4617 16.6371 64.4558 16.6074 64.4487 16.578C64.3972 16.3628 64.3806 16.2349 64.3758 16.1653C64.3727 16.1227 64.3674 16.0804 64.3598 16.0384C62.4251 5.54237 53.8675 0.372078 53.5039 0.157156C53.2932 0.0324738 53.0475 -0.0202329 52.8041 0.00699633C52.5607 0.0342256 52.3328 0.139911 52.1548 0.308093C49.1843 3.11343 47.9637 5.12743 48.3138 6.64583C48.4531 7.24958 48.8201 7.6585 49.1894 7.89052C50.6283 9.67005 51.1222 11.2202 50.6572 12.5001C50.6201 12.6 50.578 12.698 50.531 12.7937L49.0461 10.3948C48.9295 10.2064 48.76 10.0565 48.5587 9.96377C48.3574 9.87107 48.1333 9.83966 47.9143 9.87348C47.9782 9.61659 48.0124 9.34794 48.0124 9.07163C48.0124 7.23386 46.5172 5.7387 44.6794 5.7387C42.8417 5.7387 41.3465 7.23386 41.3465 9.07163C41.3465 9.40194 41.3956 9.72091 41.4855 10.0224C38.6534 9.08407 36.0272 9.05044 33.6425 9.92981C29.6484 11.4021 27.5178 15.0167 26.6769 16.8053C24.0431 15.863 23.4447 15.0007 23.3121 14.6843C21.5015 10.3655 17.6428 9.4163 9.68969 8.9226C5.91488 8.64958 4.48877 10.1229 3.97375 11.0242C3.14346 12.4769 4.13084 13.9007 4.99695 14.5032C5.02512 14.5226 5.05397 14.5409 5.08363 14.5576L16.4255 21.0057C16.6857 21.1535 16.9939 21.192 17.2825 21.1127C17.571 21.0333 17.8162 20.8426 17.9642 20.5825C18.0374 20.4537 18.0846 20.3117 18.103 20.1647C18.1214 20.0177 18.1106 19.8684 18.0713 19.7256C18.032 19.5827 17.965 19.4489 17.874 19.332C17.783 19.215 17.6699 19.1171 17.541 19.0439L6.27254 12.6374C6.0892 12.4834 5.92418 12.2506 5.92145 12.169C5.92145 12.169 5.9235 12.1608 5.93334 12.1436C6.35594 11.4042 7.70002 11.0417 9.53902 11.1738C17.5767 11.6727 19.9806 12.574 21.2313 15.5565C21.9654 17.3069 24.4054 18.6858 28.6639 19.7476C27.3306 20.9009 26.2779 22.1817 25.5158 23.578L20.8934 20.9498C20.3516 20.6412 19.6629 20.8309 19.3547 21.3729C19.2815 21.5017 19.2343 21.6437 19.216 21.7907C19.1976 21.9378 19.2084 22.087 19.2476 22.2299C19.2869 22.3727 19.354 22.5065 19.445 22.6234C19.5359 22.7404 19.6491 22.8383 19.7779 22.9115L24.6214 25.6655C24.5786 25.7994 24.5382 25.9341 24.5003 26.0695C24.4495 26.1796 24.4004 26.2905 24.3529 26.4021L19.6912 28.2184C18.8175 26.8385 17.6312 25.6837 16.2283 24.8475L16.2114 24.8376C16.0673 24.7521 15.9211 24.6701 15.773 24.5917L15.6888 24.5482C15.5621 24.4825 15.4342 24.4193 15.3051 24.3586C15.277 24.3453 15.2487 24.3327 15.2204 24.32L15.1785 24.3011C15.0158 24.2275 14.8512 24.1583 14.6848 24.0935L14.6667 24.0864C14.4968 24.0205 14.3252 23.959 14.1522 23.9019C14.043 23.8662 13.9333 23.8323 13.823 23.8002C13.7585 23.7812 13.6939 23.7629 13.6291 23.7451C13.5214 23.7161 13.4132 23.689 13.3045 23.6638C13.237 23.6476 13.1693 23.6314 13.0984 23.6162C12.9886 23.5928 12.8785 23.5715 12.768 23.5521L12.7171 23.5426C12.6647 23.5331 12.6126 23.5233 12.5616 23.5153C12.4552 23.4987 12.3485 23.4839 12.2415 23.4707L12.1637 23.4606C12.1144 23.4538 12.0649 23.4477 12.0154 23.4423C11.8898 23.4296 11.7639 23.4191 11.6379 23.4108L11.5883 23.4069C11.5476 23.4036 11.507 23.4003 11.4622 23.3977C11.0904 23.3771 10.7177 23.3772 10.3459 23.398C10.3049 23.4002 10.264 23.4034 10.2234 23.4069L10.1682 23.4112C10.0448 23.4194 9.92146 23.4297 9.79838 23.4421C9.74779 23.4475 9.69775 23.4539 9.64799 23.4606L9.5702 23.4707C9.46287 23.4844 9.35609 23.4982 9.25123 23.5151C9.19887 23.5236 9.14691 23.5331 9.09496 23.5426L9.04437 23.5519C8.93283 23.5717 8.82162 23.5932 8.71078 23.6166C8.64242 23.6316 8.57475 23.6476 8.51131 23.6629C8.40125 23.6888 8.29133 23.7157 8.18209 23.7454C8.11742 23.763 8.05316 23.7815 7.99082 23.7997C7.82036 23.8492 7.65122 23.9031 7.48359 23.9615C7.36957 24.0015 7.25691 24.043 7.14344 24.087L7.12648 24.0935C6.95838 24.1587 6.79216 24.2286 6.62801 24.3032L6.59109 24.3197C6.56279 24.3323 6.53436 24.345 6.50633 24.3583C6.37699 24.4187 6.24957 24.4823 6.1216 24.5485L6.03779 24.5915C5.88423 24.673 5.7327 24.7583 5.58334 24.8472C3.32283 26.1951 1.66881 28.3237 0.926562 30.8404L0.923418 30.8508C0.878532 31.0034 0.837096 31.1569 0.799141 31.3114L0.789707 31.3524C0.755734 31.4927 0.724738 31.6338 0.696738 31.7754C0.690859 31.8048 0.685801 31.8348 0.680605 31.8644L0.679375 31.8725C0.654766 32.0032 0.63166 32.1339 0.61293 32.263C0.606914 32.3036 0.601855 32.3444 0.596934 32.3853L0.589551 32.4437C0.574921 32.5487 0.562249 32.654 0.551543 32.7595C0.545391 32.8223 0.540879 32.8854 0.536367 32.9487L0.525977 33.0901C0.521328 33.1489 0.51668 33.2075 0.513535 33.2687C0.50453 33.4419 0.500017 33.6153 0.5 33.7887C0.5 34.4942 0.571367 35.1994 0.711504 35.8846C1.39756 39.2389 3.69402 42.0394 6.85496 43.3764C8.13902 43.9192 9.50184 44.1945 10.9055 44.1945C12.3092 44.1945 13.672 43.9193 14.9564 43.3764C17.8573 42.1494 20.0293 39.689 20.8967 36.7025L23.2555 36.9338C23.3829 37.9432 23.5245 38.5929 23.5452 38.6856C23.6013 38.9357 23.7409 39.1593 23.941 39.3195C24.1411 39.4797 24.3898 39.567 24.6462 39.567H45.7082C45.8564 39.567 46.0032 39.5379 46.1401 39.4812C46.277 39.4245 46.4014 39.3414 46.5061 39.2366C46.6109 39.1318 46.694 39.0074 46.7507 38.8705C46.8074 38.7336 46.8366 38.5869 46.8366 38.4387C46.8366 36.7471 46.9693 35.1522 47.2307 33.6985C47.2796 33.4057 47.2111 33.1055 47.0402 32.8628C46.8692 32.6202 46.6096 32.4547 46.3174 32.4021C46.0253 32.3496 45.7242 32.4143 45.4794 32.5821C45.2346 32.75 45.0658 33.0076 45.0096 33.299C44.7839 34.5538 44.6463 35.899 44.5988 37.3105H25.5901C25.508 36.7706 25.4437 36.2283 25.3973 35.6842C25.3902 35.6018 25.3832 35.5191 25.3768 35.4339C25.3728 35.3816 25.3693 35.3278 25.3657 35.2746C25.349 35.0367 25.3358 34.7986 25.3261 34.5604C25.3247 34.5291 25.3232 34.4987 25.322 34.4671C25.3166 34.3219 25.3126 34.1766 25.3098 34.0313C25.3094 34.0063 25.3093 33.9808 25.3087 33.9559C25.3068 33.8277 25.3057 33.6982 25.3058 33.5673L25.3061 33.4755C25.3068 33.3264 25.3088 33.1758 25.3125 33.0234L25.3127 33.0119C25.3214 32.6727 25.3382 32.3258 25.3649 31.9745V31.9735C25.4718 30.563 25.7369 29.0745 26.2709 27.6801C26.2739 27.6723 26.2753 27.6642 26.2782 27.6562C26.3712 27.4163 26.4725 27.1797 26.582 26.9468C26.7838 26.5168 27.0132 26.0994 27.2773 25.7014C28.6014 23.7078 30.6176 22.455 33.2703 21.9782C39.5214 20.8542 45.9981 19.3665 49.7804 16.7765C49.7924 16.7683 49.8043 16.76 49.8164 16.7515C49.9484 16.6608 50.0787 16.5675 50.207 16.4715C50.308 16.3955 50.4078 16.3177 50.5063 16.2383C50.5415 16.21 50.5768 16.1817 50.6113 16.1531C50.6985 16.0812 50.7846 16.0077 50.8692 15.9327C50.9104 15.8964 50.95 15.8596 50.9901 15.8231C51.0452 15.7725 51.0992 15.7216 51.1522 15.6704C51.1793 15.6442 51.2087 15.6184 51.2351 15.5923C51.2385 15.5889 51.241 15.5848 51.2444 15.5814C51.9464 14.8834 52.4712 14.1167 52.7784 13.2709C53.5523 11.14 52.8802 8.78548 50.7804 6.27245C50.7057 6.18327 50.6179 6.10608 50.5198 6.04358C50.5652 5.74553 50.8887 4.74024 53.0596 2.57421C55.0543 4.00251 60.6789 8.64055 62.1305 16.3921C62.1485 16.5903 62.1857 16.8092 62.2434 17.0576C62.2777 17.2802 62.3095 17.5195 62.3406 17.7861C62.3394 18.1194 62.2611 18.9135 60.7305 19.1194C56.7125 19.4335 49.5204 21.1398 46.2464 29.011C46.1894 29.1478 46.16 29.2945 46.1598 29.4426C46.1596 29.5908 46.1885 29.7376 46.245 29.8746C46.3015 30.0116 46.3845 30.1361 46.4891 30.241C46.5937 30.3459 46.718 30.4292 46.8548 30.4862C46.9916 30.5431 47.1383 30.5725 47.2864 30.5728C47.4346 30.573 47.5814 30.544 47.7184 30.4875C47.8554 30.431 47.9799 30.3481 48.0848 30.2435C48.1898 30.1389 48.2731 30.0146 48.33 29.8778C49.1064 28.0111 50.1464 26.5495 51.3178 25.4028L52.2679 26.9378C51.2779 28.0683 50.54 29.4014 50.1152 30.8407C50.1114 30.8539 50.1104 30.8568 50.1076 30.8676C50.0643 31.0149 50.0244 31.1632 49.9879 31.3124L49.9791 31.3505C49.9448 31.4916 49.9136 31.6335 49.8855 31.776C49.8805 31.8014 49.876 31.8272 49.8715 31.8532L49.8674 31.8759C49.843 32.0047 49.821 32.1339 49.8015 32.2635C49.7955 32.3041 49.7905 32.345 49.7856 32.386L49.7781 32.4456C49.7635 32.5516 49.7507 32.6578 49.7397 32.7642C49.7334 32.8295 49.7287 32.895 49.7242 32.9609L49.7155 33.0764C49.7101 33.1414 49.7052 33.2065 49.7021 33.2692C49.6586 34.146 49.7251 35.0247 49.9002 35.8849C50.5866 39.239 52.8831 42.0397 56.0438 43.3766C57.3277 43.9193 58.6905 44.1947 60.0945 44.1947C61.4983 44.1947 62.861 43.9195 64.1449 43.3766C67.3056 42.04 69.602 39.2393 70.2886 35.8852C70.4643 35.0242 70.5309 34.1445 70.4867 33.2669ZM14.0775 41.2977C13.0729 41.7223 12.0058 41.9377 10.9055 41.9377C9.80521 41.9377 8.73826 41.7223 7.73393 41.2979C5.25809 40.2506 3.45955 38.0581 2.92238 35.4321C2.78475 34.7582 2.73247 34.0697 2.7668 33.3828C2.76871 33.3451 2.77172 33.3078 2.77486 33.2704L2.78717 33.104C2.7899 33.0641 2.7925 33.0246 2.79674 32.9809C2.80439 32.9005 2.8152 32.821 2.82572 32.7419L2.83639 32.656C2.83898 32.6361 2.84104 32.6161 2.84459 32.5927C2.85936 32.4913 2.8774 32.3912 2.89832 32.2789L2.90926 32.2155C2.93168 32.1019 2.95697 31.9898 2.98377 31.8778L2.99129 31.8446C3.02082 31.725 3.05281 31.6067 3.0874 31.4894L3.08891 31.4843L3.09027 31.48C3.67078 29.5116 4.96469 27.8461 6.73314 26.7896L6.74805 26.7807L6.74818 26.7808C6.86218 26.7131 6.97779 26.6482 7.0949 26.5861L7.1582 26.5536C7.25874 26.5014 7.36024 26.4511 7.46268 26.4028L7.55988 26.359C7.65402 26.3164 7.74897 26.2756 7.84467 26.2367C7.87707 26.2233 7.90961 26.2107 7.94229 26.198L7.95869 26.1915C8.0923 26.1397 8.22724 26.0913 8.36338 26.0465C8.44978 26.0183 8.53665 25.9916 8.62397 25.9664C8.67359 25.9516 8.72322 25.9374 8.77258 25.924C8.85821 25.9011 8.94422 25.8796 9.03057 25.8596C9.08334 25.847 9.13598 25.8342 9.18629 25.8234C9.27154 25.8054 9.3571 25.7889 9.44291 25.7739L9.50348 25.7629C9.53793 25.7565 9.57252 25.7499 9.60834 25.7443C9.68969 25.7312 9.77172 25.721 9.85416 25.7104L9.94645 25.6984C9.97488 25.6946 10.0035 25.6906 10.0344 25.6875C10.1316 25.6771 10.2295 25.6704 10.3227 25.6637L10.4106 25.657C10.4299 25.6553 10.4492 25.6537 10.4649 25.6527C10.7566 25.6367 11.049 25.6366 11.3407 25.6525C11.3601 25.6537 11.3794 25.6555 11.3987 25.657L11.4819 25.6634C11.5798 25.6704 11.6781 25.6771 11.7771 25.6876C11.8058 25.6907 11.8344 25.6947 11.8628 25.6984L11.955 25.7104C12.0373 25.7208 12.1195 25.7312 12.2026 25.7446C12.237 25.7501 12.2711 25.7565 12.305 25.7628L12.3668 25.7742C12.4522 25.7896 12.5378 25.8053 12.6198 25.823C12.6732 25.8344 12.7258 25.8472 12.7829 25.8607C12.8679 25.8807 12.9526 25.9014 13.0362 25.924C13.0861 25.9375 13.1357 25.952 13.1876 25.9672C13.3207 26.0058 13.4528 26.0479 13.5837 26.0934C13.6737 26.1247 13.7624 26.1576 13.8495 26.1911L13.8673 26.1981C13.9001 26.211 13.9328 26.2235 13.9717 26.2395C14.0635 26.2769 14.1545 26.316 14.2447 26.3568L14.347 26.4029C14.4498 26.451 14.5509 26.5016 14.6504 26.553L14.7144 26.5858C14.8318 26.648 14.9476 26.713 15.0618 26.7808L15.0619 26.7807C15.0668 26.7838 15.072 26.7867 15.0771 26.7897C16.0451 27.3676 16.8828 28.14 17.5372 29.0581L15.6583 29.7901C15.4346 29.5238 15.1889 29.2767 14.9238 29.0516C14.8634 29.0003 14.802 28.9503 14.7395 28.9016L14.7115 28.8797C14.6491 28.8312 14.5857 28.7839 14.5215 28.7378C14.5202 28.7368 14.5062 28.727 14.5051 28.726L14.4887 28.7144C14.4257 28.6698 14.3619 28.6264 14.2974 28.5841L14.2834 28.5751L14.262 28.5613C14.1907 28.5155 14.1185 28.4711 14.0455 28.4281C14.0429 28.4265 14.0406 28.425 14.0379 28.4236C13.7482 28.2544 13.4453 28.1088 13.1321 27.9882C13.1115 27.9797 13.0911 27.9718 13.0763 27.9663C13.0192 27.9452 12.9617 27.925 12.9039 27.9057L12.7961 27.8695C12.748 27.8545 12.6997 27.8401 12.6513 27.8262C12.6092 27.8135 12.5669 27.8015 12.5244 27.7901C12.4741 27.7763 12.4237 27.764 12.3724 27.7514C12.3249 27.7398 12.2773 27.7288 12.2295 27.7183C12.1299 27.6964 12.0298 27.6773 11.9291 27.661L11.9041 27.6569C11.8698 27.6512 11.8354 27.6457 11.801 27.6406C11.7444 27.6326 11.6877 27.6256 11.6274 27.6185L11.6017 27.6155C11.5687 27.6113 11.5357 27.6076 11.5026 27.6045C11.4376 27.5987 11.3726 27.5937 11.3075 27.5896L11.2056 27.5828C11.0022 27.5734 10.7985 27.5736 10.5952 27.5832L10.5003 27.5895C10.4355 27.5937 10.3708 27.5984 10.3034 27.6047C10.271 27.6078 10.2392 27.6115 10.2074 27.6153L10.1786 27.6186C10.1214 27.6255 10.0646 27.6323 10.0065 27.6406C9.97256 27.6454 9.93893 27.651 9.90502 27.6566L9.87685 27.6611C9.77698 27.6776 9.67755 27.6966 9.57867 27.7183C9.43876 27.7491 9.29992 27.7846 9.16236 27.8247C9.1126 27.8393 9.06256 27.8536 9.00486 27.872L8.90848 27.9046L8.89166 27.9104C8.83861 27.9284 8.78543 27.9467 8.73895 27.964C8.71816 27.9716 8.69766 27.9796 8.67551 27.9886C8.36296 28.109 8.06061 28.2544 7.77139 28.4233L7.76441 28.4273C7.69018 28.4711 7.6168 28.5163 7.5443 28.5629L7.5257 28.575L7.51176 28.584C7.44695 28.6264 7.38338 28.6697 7.30996 28.7218L7.96826 29.6381L7.28754 28.7377C7.22329 28.7838 7.15993 28.8311 7.0975 28.8796L7.07535 28.8967C7.01095 28.947 6.94754 28.9985 6.88518 29.0513C5.87004 29.9132 5.17059 31.0504 4.8627 32.3387C4.83578 32.451 4.81208 32.564 4.7916 32.6776L4.78928 32.6895C4.76933 32.8019 4.75237 32.9149 4.73842 33.0282L4.73227 33.076C4.7216 33.1704 4.71326 33.2654 4.70615 33.3685C4.70437 33.3908 4.70273 33.4132 4.7015 33.4335C4.68805 33.6579 4.68714 33.8829 4.69877 34.1074C4.86639 37.4132 7.59242 40.0026 10.9046 40.0026C13.4026 40.0026 15.6227 38.5129 16.5979 36.2811L17.4563 36.3652L18.6012 36.4776C17.8502 38.633 16.2164 40.3929 14.0775 41.2977ZM11.1585 35.7117C11.2477 35.7442 11.3408 35.7653 11.4353 35.7746L14.1578 36.0415C13.4346 37.0848 12.2327 37.7458 10.9058 37.7458C8.79637 37.7458 7.06045 36.0974 6.95367 33.993C6.94634 33.8468 6.9473 33.7003 6.95654 33.5543L6.95969 33.5134C6.96393 33.4525 6.96912 33.3918 6.97623 33.3305L6.98088 33.2948C6.98922 33.2289 6.99865 33.1632 7.01014 33.0982L7.01109 33.0926L7.01301 33.0825C7.02654 33.0086 7.04158 32.9352 7.05826 32.8649C7.25459 32.0449 7.70029 31.321 8.34711 30.7716C8.38594 30.7387 8.42545 30.7067 8.4692 30.6724L8.48574 30.6598C8.52457 30.6294 8.56422 30.5999 8.59348 30.579L8.62369 30.5575C8.66375 30.5292 8.70408 30.5016 8.74523 30.4745L8.7667 30.4609C8.80717 30.435 8.84764 30.4095 8.88906 30.3847L8.91627 30.3689C9.09902 30.2625 9.28993 30.1709 9.48721 30.0949L9.52111 30.0813C9.55461 30.069 9.58879 30.0574 9.62352 30.0455L9.69229 30.022C9.72674 30.0112 9.76133 30.0011 9.80084 29.9895C9.82627 29.9819 9.85184 29.9746 9.88273 29.9664C9.91144 29.9584 9.9407 29.9515 9.96982 29.9443C10.0002 29.937 10.0304 29.9297 10.0583 29.9237C10.0884 29.9173 10.118 29.9108 10.1491 29.9051C10.1819 29.8988 10.2146 29.8929 10.2441 29.888L10.3329 29.8737C10.37 29.8682 10.4071 29.8641 10.4414 29.86L10.5168 29.851C10.5603 29.847 10.6042 29.8439 10.6469 29.8411L10.7095 29.8367C10.8379 29.8309 10.9666 29.8307 11.095 29.8363L11.1641 29.8411C11.2079 29.844 11.252 29.847 11.2923 29.8506L11.3678 29.8594C11.4052 29.8638 11.4424 29.8682 11.4777 29.8733L11.5651 29.8873C11.6273 29.8978 11.6893 29.9096 11.751 29.923C11.7815 29.9296 11.8118 29.9368 11.8422 29.9442C11.8712 29.9513 11.9006 29.9582 11.9343 29.9673C11.96 29.9743 11.9855 29.9818 12.0158 29.9907C12.0504 30.0008 12.0851 30.0108 12.1114 30.019L12.1893 30.0455C12.2234 30.0571 12.2573 30.0686 12.2883 30.0802L12.3244 30.0946C12.5217 30.1705 12.7127 30.2621 12.8953 30.3686L12.9227 30.3844C12.9641 30.409 13.0046 30.4345 13.0431 30.4594L13.0662 30.4744C13.1075 30.5013 13.148 30.5292 13.1975 30.5642L13.2071 30.5709C13.2541 30.6045 13.3003 30.6392 13.3457 30.675C13.3502 30.6784 13.3544 30.6822 13.3589 30.6856L11.8408 31.2772C11.1679 31.5397 9.38043 32.2375 9.39656 33.7016C9.41105 35.0081 10.8667 35.6052 11.1585 35.7117ZM23.0657 34.6475L17.3279 34.085L15.9371 33.9486L15.9346 33.9484L12.1895 33.5813C12.3441 33.5088 12.5013 33.4416 12.6606 33.3799L15.6613 32.2109L15.6647 32.2096L19.6028 30.6752L19.6047 30.6743L23.489 29.1608C23.0708 31.1017 23.0006 33.0343 23.0657 34.6475ZM44.6796 7.99538C45.2731 7.99538 45.7558 8.47813 45.7558 9.07163C45.7558 9.66512 45.2731 10.1479 44.6796 10.1479C44.0861 10.1479 43.6033 9.66512 43.6033 9.07163C43.6033 8.47813 44.0861 7.99538 44.6796 7.99538ZM28.8686 17.4701C29.653 15.9166 31.4173 13.1483 34.4385 12.0417C37.1628 11.0437 40.3854 11.5789 44.0218 13.6315C42.2519 13.8926 39.4458 14.4264 36.4804 15.4632C34.4507 16.1728 32.6528 17.0164 31.0982 17.981C30.2705 17.8134 29.5303 17.6424 28.8686 17.4701ZM32.8713 19.7566C32.6904 19.7892 32.5128 19.8258 32.3366 19.8643C37.1408 16.9213 43.3806 15.969 45.414 15.7264L45.7967 16.3445C41.4447 18.2148 35.456 19.2919 32.8713 19.7566ZM47.8262 15.335L46.9614 13.9384L46.9602 13.9361L46.4869 13.1717C46.8679 12.9128 47.2619 12.6735 47.6673 12.4547L48.976 14.5687C48.6302 14.8351 48.2442 15.0904 47.8262 15.335ZM54.2605 23.2453L56.4491 26.7815L58.0754 29.4092L58.0768 29.411L60.367 33.1109C60.4632 33.2667 60.4937 33.4544 60.4517 33.6327C60.4097 33.811 60.2987 33.9654 60.143 34.0619C60.0348 34.1298 59.9097 34.1657 59.7819 34.1654C59.6639 34.1659 59.5478 34.136 59.4446 34.0787C59.3414 34.0214 59.2547 33.9385 59.1928 33.8381L56.9437 30.2047L56.9432 30.2036L54.6453 26.491L54.6445 26.4899L53.0792 23.961C53.4605 23.7024 53.8548 23.4635 54.2605 23.2453ZM62.2859 31.9229L61.0663 29.9525C61.084 29.9569 61.1028 29.9617 61.1251 29.9679C61.1502 29.9744 61.1748 29.9817 61.2045 29.9904C61.2391 30.0005 61.2738 30.0105 61.3001 30.0187L61.3706 30.0428C61.4079 30.0554 61.445 30.0679 61.4771 30.08L61.5132 30.0943C61.7645 30.1911 62.0054 30.3133 62.2319 30.459L62.2542 30.4733C62.2947 30.5001 62.3347 30.5273 62.3804 30.5599L62.396 30.5705C62.4842 30.6341 62.5699 30.7009 62.6532 30.7708C63.3005 31.3204 63.7461 32.0443 63.9423 32.8655C63.9588 32.9347 63.9733 33.0047 63.9862 33.0752L63.9915 33.1046C64.0024 33.1674 64.0116 33.2307 64.0197 33.2941L64.025 33.3354C64.0321 33.3954 64.0369 33.4562 64.0413 33.5169L64.0448 33.564C64.0491 33.6383 64.0518 33.7129 64.0518 33.7882C64.0518 33.8568 64.0499 33.9246 64.0465 33.9926C63.94 36.0967 62.2042 37.7451 60.0946 37.7451C57.9852 37.7451 56.2493 36.0967 56.1425 33.9923C56.1354 33.8495 56.1359 33.7064 56.1441 33.5637C56.1456 33.5463 56.1471 33.5291 56.1481 33.5116C56.1523 33.4527 56.1571 33.3942 56.1639 33.3358L56.166 33.3195L56.1687 33.2985C56.1708 33.2826 56.1737 33.2672 56.1758 33.2514L57.2742 35.0258C57.8158 35.8999 58.7533 36.4218 59.7819 36.4218C60.3295 36.4217 60.8661 36.2687 61.3314 35.9801C62.7129 35.1248 63.1411 33.3048 62.2859 31.9229ZM68.0776 35.4322C67.5403 38.0581 65.7415 40.2507 63.2659 41.2977C62.2617 41.7224 61.1946 41.9377 60.0945 41.9377C58.9942 41.9377 57.9269 41.7224 56.9229 41.2979C54.4472 40.2506 52.6484 38.0581 52.1111 35.4325C51.9736 34.7569 51.9215 34.0667 51.956 33.3782C51.9579 33.3382 51.9615 33.2989 51.9648 33.2592L51.9754 33.1144C51.9786 33.0696 51.9813 33.025 51.9854 32.9839C51.9933 32.9029 52.0043 32.8231 52.0148 32.743L52.0266 32.6493C52.0286 32.6315 52.0305 32.6136 52.0334 32.5952C52.0487 32.4918 52.067 32.39 52.0856 32.2899L52.0996 32.2125C52.1214 32.1007 52.1462 31.9899 52.1733 31.8775L52.1815 31.8417C52.2121 31.716 52.246 31.5912 52.283 31.4673L52.2837 31.4648C52.551 30.5678 52.9712 29.7237 53.5258 28.9698L54.6525 30.7898C54.3212 31.3891 54.0922 32.0396 53.9751 32.7143C53.9574 32.817 53.9419 32.9201 53.9289 33.0235L53.923 33.0711C53.9116 33.1709 53.9026 33.2709 53.8958 33.3711C53.894 33.3923 53.8924 33.4133 53.8911 33.4366C53.8785 33.6598 53.8777 33.8836 53.8888 34.107C54.0564 37.4127 56.7825 40.0022 60.0946 40.0022C63.407 40.0022 66.1328 37.4127 66.3001 34.1072C66.3116 33.8833 66.3108 33.659 66.2978 33.4352C66.2964 33.4126 66.2947 33.3902 66.2919 33.356C66.2857 33.2648 66.2775 33.1738 66.2673 33.083L66.2589 33.0142C66.2447 32.9015 66.2276 32.7891 66.2074 32.6772C66.1869 32.5641 66.1634 32.4516 66.1368 32.3398C65.8286 31.0507 65.1293 29.9133 64.1137 29.0509C64.0419 28.9898 63.9685 28.9306 63.8937 28.8732C63.8337 28.8267 63.7726 28.7811 63.7007 28.7295L63.6809 28.7157C63.6179 28.671 63.5542 28.6275 63.4896 28.5852L63.4733 28.5747L63.4519 28.5609C63.3873 28.5196 63.3221 28.4789 63.2561 28.4396C63.2471 28.4343 63.2381 28.4291 63.229 28.424L63.2278 28.4232C62.938 28.2538 62.635 28.1081 62.3218 27.9875C62.3011 27.979 62.2807 27.9711 62.2636 27.9649C62.2071 27.9441 62.1503 27.9242 62.0932 27.9052L62.0687 27.8967C62.0438 27.888 62.0191 27.8798 61.9857 27.8687C61.9376 27.8537 61.8893 27.8393 61.8409 27.8253C61.7487 27.7977 61.6558 27.7728 61.5621 27.7506C61.4684 27.7278 61.374 27.7071 61.2793 27.6888C61.2263 27.6786 61.1731 27.6691 61.1199 27.6603L61.0979 27.6569C61.0046 27.641 60.9109 27.628 60.8169 27.6178L60.7909 27.6147C60.7595 27.6108 60.7278 27.6071 60.6921 27.6039C60.6278 27.5978 60.563 27.5933 60.4975 27.589L60.395 27.5823C60.1918 27.5729 59.9884 27.573 59.7852 27.5827L59.6896 27.589C59.662 27.5907 59.6341 27.5925 59.6061 27.5947L58.4945 25.7988C58.5403 25.7899 58.5863 25.7817 58.6329 25.7732L58.6897 25.7628C58.7248 25.7564 58.7602 25.7497 58.7977 25.7437C58.879 25.7305 58.9612 25.7203 59.0435 25.7098L59.1365 25.6976C59.1648 25.6938 59.1932 25.6898 59.2233 25.6868C59.3205 25.6764 59.4184 25.6697 59.5112 25.663C59.541 25.6611 59.5708 25.6586 59.6005 25.656C59.6197 25.6544 59.6387 25.6529 59.6538 25.6519C59.9457 25.6362 60.2383 25.6361 60.5302 25.6516C60.5495 25.6529 60.5683 25.6547 60.5873 25.656C60.617 25.6586 60.6467 25.6609 60.6713 25.6626C60.7692 25.6696 60.8673 25.6763 60.9659 25.6868C60.9948 25.6899 61.0238 25.6939 61.0523 25.6976L61.1495 25.7102C61.2301 25.7204 61.3107 25.7305 61.3914 25.7435C61.4261 25.7491 61.4607 25.7556 61.4952 25.762L61.5564 25.7731C61.641 25.7879 61.7254 25.8042 61.8095 25.8219C61.8575 25.8323 61.9049 25.8437 61.9525 25.8549L61.9724 25.8596C62.1084 25.8909 62.2433 25.9265 62.377 25.9662C62.4635 25.9915 62.5497 26.0178 62.6342 26.0454C62.6808 26.0607 62.727 26.0764 62.7721 26.092C62.8607 26.1232 62.9489 26.1556 63.0365 26.1894L63.0697 26.2024C63.1924 26.2504 63.3139 26.3016 63.434 26.3559L63.5371 26.4024C63.6393 26.4502 63.7398 26.5003 63.8444 26.5547L63.9037 26.5849C64.0236 26.6486 64.14 26.7138 64.2499 26.7793V26.7792C64.2563 26.7831 64.2636 26.7872 64.2708 26.7913C66.0283 27.8428 67.316 29.4959 67.904 31.4622C67.9066 31.4716 67.909 31.4812 67.9119 31.4906C67.9497 31.6185 67.9841 31.7473 68.0151 31.877C68.0419 31.989 68.0672 32.1009 68.0896 32.2147L68.1022 32.2872C68.1211 32.3885 68.1395 32.4894 68.1549 32.5944C68.1579 32.6147 68.1602 32.635 68.1625 32.6552L68.1759 32.7599C68.1855 32.8342 68.1955 32.9083 68.203 32.9835C68.2074 33.0279 68.2104 33.0729 68.2132 33.1179L68.2247 33.2719C68.2277 33.3089 68.2307 33.3455 68.2325 33.3804C68.2676 34.0681 68.2155 34.7575 68.0776 35.4322Z" fill="#121212"/>
</svg>
