<svg width="108" height="44" viewBox="0 0 108 44" fill="none" xmlns="http://www.w3.org/2000/svg">
<path d="M18.8234 27.4102C17.725 27.4102 16.6512 27.7345 15.7379 28.3423C14.8245 28.95 14.1127 29.8138 13.6923 30.8244C13.2719 31.835 13.162 32.947 13.3763 34.0199C13.5905 35.0928 14.1195 36.0783 14.8962 36.8517C15.673 37.6252 16.6626 38.152 17.7399 38.3654C18.8173 38.5788 19.934 38.4693 20.9488 38.0507C21.9637 37.6321 22.8311 36.9232 23.4413 36.0136C24.0516 35.1041 24.3773 34.0348 24.3773 32.9409C24.3757 31.4746 23.79 30.0688 22.7488 29.0319C21.7076 27.995 20.2959 27.4118 18.8234 27.4102ZM18.8234 34.7845C18.4573 34.7845 18.0994 34.6764 17.7949 34.4738C17.4905 34.2712 17.2532 33.9833 17.1131 33.6464C16.9729 33.3095 16.9363 32.9389 17.0077 32.5812C17.0791 32.2236 17.2555 31.8951 17.5144 31.6373C17.7733 31.3795 18.1031 31.2039 18.4623 31.1328C18.8214 31.0616 19.1936 31.0981 19.5319 31.2377C19.8702 31.3772 20.1593 31.6135 20.3627 31.9167C20.5662 32.2199 20.6747 32.5763 20.6747 32.9409C20.6742 33.4297 20.479 33.8983 20.1319 34.2439C19.7848 34.5895 19.3143 34.7839 18.8234 34.7845ZM81.7677 27.4102C80.6692 27.4102 79.5954 27.7345 78.6821 28.3423C77.7688 28.95 77.0569 29.8138 76.6365 30.8244C76.2162 31.835 76.1062 32.947 76.3205 34.0199C76.5348 35.0928 77.0637 36.0783 77.8405 36.8517C78.6172 37.6252 79.6068 38.152 80.6842 38.3654C81.7615 38.5788 82.8782 38.4693 83.8931 38.0507C84.9079 37.6321 85.7753 36.9232 86.3856 36.0136C86.9958 35.1041 87.3216 34.0348 87.3216 32.9409C87.3199 31.4746 86.7343 30.0688 85.6931 29.0319C84.6519 27.995 83.2402 27.4118 81.7677 27.4102ZM81.7677 34.7845C81.4015 34.7845 81.0436 34.6764 80.7392 34.4738C80.4347 34.2712 80.1974 33.9833 80.0573 33.6464C79.9172 33.3095 79.8805 32.9389 79.952 32.5812C80.0234 32.2236 80.1997 31.8951 80.4586 31.6373C80.7175 31.3795 81.0474 31.2039 81.4065 31.1328C81.7656 31.0616 82.1379 31.0981 82.4761 31.2377C82.8144 31.3772 83.1036 31.6135 83.307 31.9167C83.5104 32.2199 83.619 32.5763 83.619 32.9409C83.6184 33.4297 83.4232 33.8983 83.0761 34.2439C82.7291 34.5895 82.2585 34.7839 81.7677 34.7845Z" fill="#121212"/>
<path d="M107.633 38.0224L105.912 31.1688L107.593 26.1474C107.704 25.8161 107.718 25.4602 107.634 25.1212C107.549 24.7822 107.37 24.4741 107.117 24.2326C101.54 18.9152 89.582 16.705 87.8191 16.4033L51.1821 2.12777C47.0599 0.528095 42.5179 0.352648 38.2836 1.62954L1.62486 12.7392C1.24518 12.8543 0.912676 13.0878 0.67639 13.4053C0.440104 13.7229 0.312543 14.1076 0.312519 14.5028V18.19C0.312539 18.4762 0.379487 18.7585 0.508063 19.0145L1.76255 21.5133L1.6723 21.6032C1.23976 22.0316 0.896863 22.5412 0.663454 23.1024C0.430045 23.6637 0.310764 24.2655 0.312519 24.873V31.8074C0.312519 39.4834 4.99145 40.313 7.00312 40.313H10.5551C11.5952 41.4729 12.8695 42.4009 14.2948 43.0363C15.72 43.6717 17.2639 44.0002 18.8254 44.0002C20.3869 44.0002 21.9309 43.6717 23.3561 43.0363C24.7813 42.4009 26.0557 41.4729 27.0958 40.313H73.4993C74.5394 41.4729 75.8138 42.4009 77.239 43.0363C78.6642 43.6717 80.2081 44.0002 81.7697 44.0002C83.3312 44.0002 84.8751 43.6717 86.3003 43.0363C87.7255 42.4009 88.9999 41.4729 90.04 40.313H105.837C106.118 40.313 106.396 40.2492 106.648 40.1263C106.901 40.0035 107.123 39.8248 107.296 39.604C107.469 39.3832 107.589 39.126 107.648 38.8519C107.706 38.5779 107.701 38.2942 107.633 38.0224ZM102.134 29.2515V27.4079H103.268L102.651 29.2515H102.134ZM5.15923 20.0336L4.01512 17.7547V17.4858L7.71772 19.3293V20.0336H5.15923ZM18.8255 40.313C17.3609 40.313 15.9292 39.8805 14.7114 39.0702C13.4936 38.2599 12.5445 37.1082 11.984 35.7607C11.4235 34.4132 11.2769 32.9305 11.5626 31.5C11.8483 30.0695 12.5536 28.7556 13.5893 27.7242C14.6249 26.6929 15.9444 25.9906 17.3808 25.706C18.8173 25.4215 20.3063 25.5675 21.6594 26.1257C23.0125 26.6838 24.169 27.629 24.9827 28.8417C25.7964 30.0544 26.2307 31.4802 26.2307 32.9387C26.2285 34.8938 25.4476 36.7682 24.0594 38.1507C22.6711 39.5332 20.7888 40.3108 18.8255 40.313ZM81.7698 40.313C80.3052 40.313 78.8734 39.8805 77.6557 39.0702C76.4379 38.2599 75.4887 37.1082 74.9283 35.7607C74.3678 34.4132 74.2211 32.9305 74.5069 31.5C74.7926 30.0695 75.4979 28.7556 76.5335 27.7242C77.5691 26.6929 78.8886 25.9906 80.3251 25.706C81.7616 25.4215 83.2505 25.5675 84.6036 26.1257C85.9568 26.6838 87.1133 27.629 87.927 28.8417C88.7407 30.0544 89.175 31.4802 89.175 32.9387C89.1728 34.8938 88.3919 36.7682 87.0036 38.1507C85.6153 39.5332 83.7331 40.3108 81.7698 40.313ZM92.2407 36.6259C92.8337 34.9574 93.0159 33.1715 92.7721 31.4183C92.5284 29.6651 91.8657 27.9958 90.8398 26.5505C89.8139 25.1053 88.4547 23.9262 86.8763 23.1125C85.298 22.2987 83.5466 21.874 81.7693 21.874C79.992 21.874 78.2406 22.2987 76.6623 23.1125C75.084 23.9262 73.7248 25.1053 72.6989 26.5505C71.6729 27.9958 71.0103 29.6651 70.7665 31.4183C70.5227 33.1715 70.7049 34.9574 71.2979 36.6259H29.2965C29.8894 34.9574 30.0717 33.1715 29.8279 31.4183C29.5841 29.6651 28.9214 27.9958 27.8955 26.5505C26.8696 25.1053 25.5104 23.9262 23.9321 23.1125C22.3538 22.2987 20.6024 21.874 18.8251 21.874C17.0478 21.874 15.2964 22.2987 13.7181 23.1125C12.1397 23.9262 10.7805 25.1053 9.75461 26.5505C8.7287 27.9958 8.06602 29.6651 7.82224 31.4183C7.57847 33.1715 7.7607 34.9574 8.35365 36.6259H7.0022C6.03327 36.6259 4.01512 36.6259 4.01512 31.8067V24.873C4.01482 24.75 4.039 24.6282 4.08626 24.5145C4.13353 24.4009 4.20295 24.2977 4.2905 24.2109L4.78179 23.7208H9.56903C10.06 23.7208 10.5309 23.5265 10.8781 23.1808C11.2253 22.8351 11.4203 22.3661 11.4203 21.8772V18.19C11.4203 17.8477 11.3246 17.5121 11.1438 17.2208C10.9631 16.9296 10.7045 16.6943 10.397 16.5411L7.14313 14.9209L39.3618 5.15608C42.7993 4.11963 46.4866 4.26205 49.8332 5.56052L86.6491 19.9068C86.7717 19.9547 86.8991 19.9893 87.0291 20.0101C89.3709 20.4223 91.6861 20.9722 93.9627 21.6569C95.9328 22.2345 97.8586 22.953 99.7249 23.8067C99.3497 23.9248 99.0221 24.1588 98.7895 24.4749C98.5569 24.7909 98.4315 25.1725 98.4315 25.5643V31.0951C98.4315 31.5841 98.6265 32.053 98.9737 32.3987C99.3209 32.7445 99.7918 32.9387 100.283 32.9387H102.54L103.466 36.6259H92.2407Z" fill="#121212"/>
<path d="M65.1061 23.7196H34.4007L31.2403 20.5724C30.8918 20.233 30.423 20.0442 29.9356 20.047C29.4482 20.0497 28.9815 20.2437 28.6369 20.5869C28.2922 20.9301 28.0974 21.3948 28.0947 21.8802C28.092 22.3656 28.2815 22.8324 28.6223 23.1795L32.3249 26.8666C32.4968 27.0379 32.7009 27.1737 32.9255 27.2664C33.1501 27.3591 33.3909 27.4068 33.634 27.4068H65.1061C65.5971 27.4068 66.068 27.2126 66.4152 26.8668C66.7624 26.5211 66.9574 26.0522 66.9574 25.5632C66.9574 25.0743 66.7624 24.6053 66.4152 24.2596C66.068 23.9139 65.5971 23.7196 65.1061 23.7196ZM69.4734 16.4681L49.4233 8.78865C46.4472 7.6413 43.1795 7.47698 40.1025 8.31992L23.8915 12.7231C23.4793 12.8351 23.1186 13.0856 22.8707 13.4323C22.6228 13.7789 22.5029 14.2003 22.5315 14.6249C22.56 15.0495 22.7352 15.4512 23.0273 15.7619C23.3194 16.0725 23.7105 16.2729 24.1341 16.3291L51.9036 20.0163C51.9843 20.027 52.0656 20.0324 52.147 20.0325H68.8087C69.2411 20.0325 69.6599 19.8818 69.9924 19.6065C70.3249 19.3313 70.5502 18.9488 70.6291 18.5254C70.7081 18.1021 70.6357 17.6646 70.4246 17.2888C70.2135 16.913 69.8769 16.6227 69.4734 16.4681ZM52.2699 16.3453L33.7034 13.8795L41.0774 11.8769C43.394 11.2422 45.8541 11.3659 48.0948 12.2297L58.8383 16.3453H52.2699Z" fill="#121212"/>
</svg>
