<svg width="104" height="46" viewBox="0 0 104 46" fill="none" xmlns="http://www.w3.org/2000/svg">
<g clip-path="url(#clip0_7536_517)">
<path d="M43.332 17.6172H50.2655V20.9846H43.332V17.6172Z" fill="#121212"/>
<path d="M102.52 12.5855L90.7447 10.9525C88.5977 9.67169 86.369 8.52482 84.0721 7.51882C76.4852 4.18168 68.2508 2.45978 59.9219 2.46879H57.8762C48.0461 2.47577 38.374 4.87092 29.7408 9.43608L23.7983 12.5841C16.842 12.6606 10.0203 14.4563 3.97665 17.8021C2.77011 18.4741 1.76725 19.443 1.06911 20.6112C0.370967 21.7794 0.00221385 23.1056 9.40937e-09 24.4563L9.40937e-09 34.4518C-2.37128e-05 34.6729 0.0448079 34.8919 0.131934 35.0962C0.21906 35.3004 0.346774 35.486 0.507781 35.6424C0.668787 35.7987 0.859932 35.9227 1.0703 36.0073C1.28066 36.0919 1.50613 36.1354 1.73381 36.1353H7.55425C9.44732 41.38 15.3602 44.1418 20.761 42.3034C22.2285 41.804 23.5614 40.9903 24.6609 39.9225C25.7605 38.8548 26.5984 37.5604 27.1127 36.1353H73.4257C75.3187 41.38 81.2316 44.1418 86.6324 42.3034C88.0998 41.8039 89.4327 40.9902 90.5322 39.9224C91.6317 38.8547 92.4697 37.5604 92.9841 36.1353H93.6061C93.827 36.1353 94.0456 36.095 94.2508 36.0156L99.8655 33.8278C101.091 33.3566 102.141 32.5378 102.88 31.4781C103.619 30.4184 104.012 29.167 104.007 27.8873V14.2519C104.007 13.8468 103.857 13.4554 103.583 13.1493C103.31 12.8432 102.933 12.6432 102.52 12.5855ZM24.1279 34.1157C23.361 37.7589 19.6982 40.1091 15.9463 39.3644C12.1941 38.6199 9.77397 35.0629 10.5407 31.419C11.3081 27.7756 14.9709 25.4256 18.7227 26.1701C21.9509 26.8107 24.2687 29.5689 24.268 32.769C24.2679 33.2213 24.2211 33.6725 24.1279 34.1157ZM55.4703 32.769H27.7349C27.7349 27.1906 23.0788 22.6686 17.3345 22.6686C11.5901 22.6686 6.93345 27.1908 6.93345 32.769H3.46691V24.4564C3.46783 23.6988 3.6746 22.9548 4.06633 22.2996C4.45807 21.6443 5.02091 21.1011 5.69801 20.7247C11.3543 17.5884 17.7547 15.9378 24.2682 15.9356H55.4705L55.4703 32.769ZM55.4703 12.5689H31.0669L31.4011 12.3916C38.8119 8.4805 47.044 6.26339 55.4705 5.90912L55.4703 12.5689ZM58.9372 5.83513H59.9183C66.9039 5.82752 73.8267 7.1155 80.3147 9.62984L77.288 12.569H58.9371L58.9372 5.83513ZM89.9991 34.1157C89.2324 37.7589 85.5696 40.1091 81.817 39.3644C78.0654 38.6199 75.6452 35.0629 76.4121 31.419C77.1788 27.7756 80.8423 25.4256 84.594 26.1701C87.8225 26.8107 90.1401 29.5689 90.1394 32.769C90.1393 33.2213 90.0923 33.6725 89.9991 34.1157ZM100.54 17.6184H95.34V20.9856H100.54V27.8873C100.542 28.4933 100.356 29.0859 100.006 29.5876C99.6563 30.0893 99.1586 30.4768 98.5783 30.6995L93.6061 32.6387C93.6061 32.4839 93.5857 32.3305 93.5753 32.1758C93.5646 32.0208 93.561 31.8393 93.5442 31.6708C93.5265 31.5025 93.4918 31.3338 93.4644 31.166C93.4362 30.9976 93.4156 30.829 93.3813 30.6762C93.3467 30.5228 93.2959 30.3531 93.2508 30.1928C93.2056 30.0332 93.171 29.8715 93.119 29.7146C93.0673 29.5586 93.0045 29.4085 92.946 29.255C92.8867 29.1023 92.8331 28.944 92.7726 28.7921C92.7118 28.6406 92.63 28.5028 92.5574 28.3597C92.4846 28.2166 92.4135 28.0599 92.3324 27.9152C92.2506 27.7707 92.1589 27.6474 92.0805 27.5131C92.0029 27.3781 91.9077 27.2248 91.8089 27.087C91.7096 26.9488 91.6179 26.8398 91.5226 26.7153C91.4274 26.5906 91.3194 26.444 91.2087 26.3144C91.098 26.185 90.9944 26.0837 90.8864 25.9774C90.7792 25.872 90.6593 25.7289 90.5401 25.6109C90.4202 25.4933 90.3025 25.4002 90.1831 25.296C90.0632 25.1919 89.9348 25.0686 89.803 24.959C89.6717 24.8501 89.5378 24.7658 89.4067 24.6698C89.2748 24.5741 89.1429 24.4713 89.0045 24.3816C88.8655 24.2925 88.7097 24.2138 88.5609 24.1192C88.4114 24.0246 88.29 23.9507 88.1497 23.8788C88.0092 23.8062 87.8344 23.7301 87.6748 23.6561C87.5156 23.5821 87.3908 23.5164 87.2433 23.4562C87.0959 23.3952 86.8962 23.3316 86.7234 23.2713C86.5501 23.2102 86.437 23.1631 86.2897 23.1178C86.0922 23.0589 85.8897 23.0165 85.688 22.9677C85.5562 22.9377 85.4298 22.8972 85.2966 22.8706C85.0835 22.8282 84.865 22.8048 84.6483 22.774C84.5201 22.7575 84.3973 22.7301 84.269 22.7186C83.9176 22.6841 83.5647 22.6667 83.2115 22.6665C77.4695 22.6717 72.8162 27.1905 72.8105 32.7667H58.9378V15.935H78.0054C78.233 15.9351 78.4583 15.8916 78.6686 15.807C78.8788 15.7224 79.0698 15.5983 79.2306 15.4419L83.7258 11.0766C85.6126 11.9486 87.4473 12.9233 89.221 13.9958C89.4256 14.12 89.6545 14.2015 89.8933 14.235L100.54 15.7111L100.54 17.6184Z" fill="#121212"/>
</g>
<defs>
<clipPath id="clip0_7536_517">
<rect width="104" height="46" fill="white"/>
</clipPath>
</defs>
</svg>
