<svg width="96" height="40" viewBox="0 0 96 40" fill="none" xmlns="http://www.w3.org/2000/svg">
<path d="M95.5605 28.1324L94.5 27.0675V25.3021L95.5605 24.2372C95.8213 23.9752 95.9767 23.6259 95.9972 23.2561C96.0177 22.8862 95.9017 22.5218 95.6715 22.2323C89.8545 14.9299 73.1445 14.2114 69.627 14.1421C57.4095 1.99402 48.0225 0.578125 42 0.578125C37.4164 0.607014 32.8481 1.11179 28.368 2.0844H9C8.60218 2.0844 8.22064 2.2431 7.93934 2.52558C7.65804 2.80806 7.5 3.19119 7.5 3.59068V8.75721L7.248 8.85511C5.01 9.72574 2.895 10.5497 1.008 11.2049C0.713524 11.3076 0.458217 11.4998 0.277567 11.7549C0.0969171 12.01 -0.000100377 12.3153 7.79319e-08 12.6283V18.6534C7.79319e-08 19.0529 0.158035 19.4361 0.43934 19.7185C0.720644 20.001 1.10218 20.1597 1.5 20.1597H3V30.7036H2.25C1.85218 30.7036 1.47064 30.8623 1.18934 31.1448C0.908035 31.4273 0.75 31.8104 0.75 32.2099C0.75 32.6094 0.908035 32.9925 1.18934 33.275C1.47064 33.5575 1.85218 33.7162 2.25 33.7162H13.6515C13.9972 35.4171 14.9175 36.9459 16.2565 38.0438C17.5956 39.1418 19.2713 39.7415 21 39.7415C22.7287 39.7415 24.4044 39.1418 25.7435 38.0438C27.0825 36.9459 28.0028 35.4171 28.3485 33.7162H69.15C69.4957 35.4171 70.416 36.9459 71.755 38.0438C73.0941 39.1418 74.7698 39.7415 76.4985 39.7415C78.2272 39.7415 79.9029 39.1418 81.242 38.0438C82.581 36.9459 83.5013 35.4171 83.847 33.7162H94.5C94.8978 33.7162 95.2794 33.5575 95.5607 33.275C95.842 32.9925 96 32.6094 96 32.2099V29.1974C95.9999 28.7979 95.8418 28.4148 95.5605 28.1324ZM92.379 23.1723H88.5C87.7046 23.1715 86.942 22.8538 86.3796 22.289C85.8171 21.7242 85.5008 20.9584 85.5 20.1597V19.518C88.0352 20.216 90.3927 21.4496 92.415 23.1361L92.379 23.1723ZM10.5 5.09695H17.4405C14.991 5.91637 12.6675 6.76892 10.5 7.59737V5.09695ZM9 20.1597V23.1723H6V20.1597H9ZM21 36.7288C20.11 36.7288 19.24 36.4637 18.4999 35.9672C17.7599 35.4707 17.1831 34.7649 16.8425 33.9392C16.5019 33.1135 16.4128 32.2049 16.5865 31.3283C16.7601 30.4518 17.1887 29.6466 17.818 29.0146C18.4474 28.3827 19.2492 27.9523 20.1221 27.7779C20.995 27.6036 21.8998 27.6931 22.7221 28.0351C23.5443 28.3771 24.2471 28.9563 24.7416 29.6994C25.2361 30.4425 25.5 31.3162 25.5 32.2099C25.4988 33.408 25.0243 34.5567 24.1807 35.4039C23.337 36.2511 22.1931 36.7276 21 36.7288ZM34.5 9.98783C36.9917 9.73051 39.4952 9.60632 42 9.61578C50.895 9.61578 57.825 15.2944 61.149 18.6534H42.1845L34.5 16.7254V9.98783ZM31.5 15.9708L25.5 14.4645V12.0424C27.4263 11.2521 29.441 10.6998 31.5 10.3975V15.9708ZM41.6355 21.6208C41.7548 21.6505 41.8771 21.6657 42 21.666H63V27.0841L59.5305 30.7036H34.5V19.8283L41.6355 21.6208ZM76.5 36.7288C75.61 36.7288 74.74 36.4637 73.9999 35.9672C73.2599 35.4707 72.6831 34.7649 72.3425 33.9392C72.002 33.1135 71.9128 32.2049 72.0865 31.3283C72.2601 30.4518 72.6887 29.6466 73.318 29.0146C73.9474 28.3827 74.7492 27.9523 75.6221 27.7779C76.495 27.6036 77.3998 27.6931 78.2221 28.0351C79.0443 28.3771 79.7471 28.9563 80.2416 29.6994C80.7361 30.4425 81 31.3162 81 32.2099C80.9988 33.408 80.5243 34.5567 79.6807 35.4039C78.837 36.2511 77.6931 36.7276 76.5 36.7288ZM93 30.7036H83.8485C83.5028 29.0027 82.5825 27.474 81.2435 26.376C79.9044 25.2781 78.2287 24.6784 76.5 24.6784C74.7713 24.6784 73.0956 25.2781 71.7565 26.376C70.4175 27.474 69.4972 29.0027 69.1515 30.7036H63.6945L65.5815 28.7349C65.8501 28.4544 66 28.0803 66 27.6911V20.1597C65.9872 19.836 65.8832 19.5226 65.7 19.2559C65.3145 18.7393 56.088 6.60323 42 6.60323C28.2045 6.60323 23.367 9.73628 23.1675 9.86884C22.9621 10.0064 22.7937 10.1928 22.6773 10.4114C22.5609 10.63 22.5 10.8741 22.5 11.1221V15.6409C22.5 15.9767 22.6118 16.3028 22.8175 16.5676C23.0232 16.8323 23.3111 17.0204 23.6355 17.102L31.5 19.0752V30.7036H28.3485C28.0035 29.0019 27.0835 27.4722 25.7442 26.3735C24.4049 25.2748 22.7286 24.6747 20.9993 24.6747C19.2699 24.6747 17.5936 25.2748 16.2543 26.3735C14.915 27.4722 13.995 29.0019 13.65 30.7036H6V26.1848H9C9.79541 26.184 10.558 25.8664 11.1204 25.3016C11.6829 24.7368 11.9992 23.971 12 23.1723V20.1597C11.9992 19.361 11.6829 18.5952 11.1204 18.0304C10.558 17.4656 9.79541 17.148 9 17.1472H3V13.6933C4.662 13.0923 6.4545 12.3949 8.3325 11.6628C17.5725 8.06733 29.073 3.59068 42 3.59068C47.559 3.59068 56.295 4.94934 67.9365 16.7028C68.0759 16.8436 68.2416 16.9553 68.4241 17.0316C68.6066 17.1078 68.8023 17.1471 69 17.1472C73.5397 17.2233 78.0612 17.7445 82.5 18.7031V20.1597C82.502 21.7571 83.1348 23.2884 84.2596 24.4179C85.3843 25.5474 86.9093 26.1828 88.5 26.1848H91.5V27.6911C91.5001 28.0906 91.6582 28.4736 91.9395 28.756L93 29.821V30.7036Z" fill="#121212"/>
<path d="M39 26.1837H42C42.3978 26.1837 42.7794 26.025 43.0607 25.7425C43.342 25.4601 43.5 25.0769 43.5 24.6774C43.5 24.278 43.342 23.8948 43.0607 23.6123C42.7794 23.3299 42.3978 23.1712 42 23.1712H39C38.6022 23.1712 38.2206 23.3299 37.9393 23.6123C37.658 23.8948 37.5 24.278 37.5 24.6774C37.5 25.0769 37.658 25.4601 37.9393 25.7425C38.2206 26.025 38.6022 26.1837 39 26.1837ZM70.5 18.6523C70.1022 18.6523 69.7206 18.811 69.4393 19.0935C69.158 19.376 69 19.7591 69 20.1586V21.6649C69 22.0644 69.158 22.4475 69.4393 22.73C69.7206 23.0125 70.1022 23.1712 70.5 23.1712C70.8978 23.1712 71.2794 23.0125 71.5607 22.73C71.842 22.4475 72 22.0644 72 21.6649V20.1586C72 19.7591 71.842 19.376 71.5607 19.0935C71.2794 18.811 70.8978 18.6523 70.5 18.6523ZM75 18.6523C74.6022 18.6523 74.2206 18.811 73.9393 19.0935C73.658 19.376 73.5 19.7591 73.5 20.1586V21.6649C73.5 22.0644 73.658 22.4475 73.9393 22.73C74.2206 23.0125 74.6022 23.1712 75 23.1712C75.3978 23.1712 75.7794 23.0125 76.0607 22.73C76.342 22.4475 76.5 22.0644 76.5 21.6649V20.1586C76.5 19.7591 76.342 19.376 76.0607 19.0935C75.7794 18.811 75.3978 18.6523 75 18.6523Z" fill="#121212"/>
</svg>
