<svg width="80" height="48" viewBox="0 0 80 48" fill="none" xmlns="http://www.w3.org/2000/svg">
<path d="M19.1761 35.3567C18.9609 38.64 16.2295 41.2366 12.8917 41.2366C9.41344 41.2366 6.59375 38.4169 6.59375 34.9386C6.59375 31.4603 9.41344 28.6406 12.8917 28.6406C14.3002 28.6385 15.6684 29.1105 16.7759 29.9806" stroke="black" stroke-width="2" stroke-miterlimit="10" stroke-linecap="round" stroke-linejoin="round"/>
<path d="M24.4711 33.1314C24.5622 33.7202 24.6094 34.3233 24.6094 34.9373C24.6094 41.4094 19.3627 46.6559 12.8906 46.6559C6.41859 46.6559 1.17188 41.4094 1.17188 34.9373C1.17188 28.4653 6.41859 23.2188 12.8906 23.2188C16.3716 23.2188 19.498 24.7364 21.6442 27.1461M65.5803 28.8264C66.0805 28.7019 66.594 28.6392 67.1094 28.6395C70.5876 28.6395 73.4073 31.4592 73.4073 34.9375C73.4073 38.4158 70.5876 41.2355 67.1094 41.2355C63.6311 41.2355 60.8114 38.4158 60.8114 34.9375C60.8114 34.1648 60.9506 33.4245 61.2052 32.7406" stroke="black" stroke-width="2" stroke-miterlimit="10" stroke-linecap="round" stroke-linejoin="round"/>
<path d="M61.8398 24.4675C63.4239 23.6688 65.2141 23.2188 67.1094 23.2188C73.5814 23.2188 78.8281 28.4653 78.8281 34.9373C78.8281 41.4094 73.5814 46.6561 67.1094 46.6561C60.6373 46.6561 55.3906 41.4095 55.3906 34.9375C55.3906 32.6983 56.0188 30.6056 57.1083 28.8264" stroke="black" stroke-width="2" stroke-miterlimit="10" stroke-linecap="round" stroke-linejoin="round"/>
<path d="M58.4869 20.9639L68.1925 32.1156C69.1086 33.1683 69.028 34.7569 68.01 35.7112C66.992 36.6656 65.4014 36.6437 64.41 35.6617L53.7647 25.117M32.352 29.5008L14.9781 36.8851C13.6939 37.4309 12.208 36.8631 11.615 35.6C11.022 34.3369 11.5345 32.8309 12.775 32.1917L28.8475 23.9086M9.06406 14.4187C5.91844 13.0192 3.39609 11.919 2.48906 11.5639C1.95625 11.3558 1.54688 10.9223 1.54688 10.3481V10.3309C1.54688 8.39686 2.97031 6.75842 4.88125 6.48936L15.2516 5.03092C15.7714 4.95785 16.3007 5.05921 16.7568 5.31912C17.2128 5.57904 17.5698 5.98285 17.7719 6.46733L19.1886 9.86045M28.3002 17.0686L28.7031 23.4656C27.6438 22.8467 20.6498 19.6278 14.103 16.6764" stroke="black" stroke-width="2" stroke-miterlimit="10" stroke-linecap="round" stroke-linejoin="round"/>
<path d="M66.2488 8.08984C67.0969 8.86125 67.9072 9.62953 68.6211 10.3555C70.2867 12.0477 69.957 14.5008 69.4352 16.1773C69.0977 17.257 68.1445 18.032 67.0211 18.1508C65.5273 18.3102 63.1977 18.6945 60.7836 19.6195C58.3086 20.568 55.7445 22.0867 53.9055 24.5211C53.4711 25.0945 53.0945 25.6773 52.7695 26.2633C36.7367 25.3258 30.8867 14.9805 30.8867 14.9805C30.8867 14.9805 33.5977 8.98672 39.9492 8.62891C46.9502 8.23531 49.9205 8.8 52.49 10.085" stroke="black" stroke-width="2" stroke-miterlimit="10" stroke-linecap="round" stroke-linejoin="round"/>
<path d="M57.9061 12.6387C59.3063 10.7426 57.603 8.44013 55.9168 6.83435C54.7058 5.68122 54.7636 3.72654 56.0214 2.62341L57.2027 1.58747C57.3742 1.43651 57.5931 1.3504 57.8215 1.34412C58.0498 1.33784 58.2732 1.41178 58.4527 1.5531C59.6793 2.5174 60.893 3.4979 62.0936 4.49435M52.7715 26.2631C50.2949 30.7244 50.7668 35.4031 51.3683 38.1086C51.5871 39.0928 50.7996 40.0098 49.7965 39.9331L30.6043 38.4747C29.559 38.3948 28.9746 37.2415 29.5121 36.3418C30.5652 34.5829 32.4824 33.3045 33.573 32.6787C34.0074 32.43 34.1402 31.8665 33.8683 31.4456L28.7043 23.4667M38.7977 33.394L45.8371 33.9861M20.6571 9.42372L30.5796 12.2845C31.351 12.5068 31.7436 13.3633 31.4108 14.0948C30.8818 15.2576 29.8972 16.7089 28.2788 16.7089C25.5786 16.7089 22.545 15.7515 20.6107 14.3611C19.2447 13.3792 18.9629 11.8309 18.9813 10.6509C18.9949 9.79138 19.8322 9.18591 20.6571 9.42372Z" stroke="black" stroke-width="2" stroke-miterlimit="10" stroke-linecap="round" stroke-linejoin="round"/>
<path d="M43.3516 14.2511L45.1808 13.4752V19.9395M43.3516 19.9395H46.7838M57.6469 13.4752L60.575 19.2086M55.6655 14.2344H54.4155C53.1211 14.2344 52.0717 13.185 52.0717 11.8906C52.0717 10.5962 53.1211 9.54688 54.4155 9.54688H55.6655C56.9598 9.54688 58.0092 10.5962 58.0092 11.8906C58.0092 13.185 56.9598 14.2344 55.6655 14.2344Z" stroke="black" stroke-width="2" stroke-miterlimit="10" stroke-linecap="round" stroke-linejoin="round"/>
</svg>
