<svg width="33" height="32" viewBox="0 0 33 32" fill="none" xmlns="http://www.w3.org/2000/svg">
<g clip-path="url(#clip0_7617_4208)">
<path d="M1.80469 17.0267V14.98C1.82824 14.6215 1.86544 14.2671 1.91425 13.9165V13.9162C2.05962 12.8796 2.31083 11.878 2.65751 10.9215V10.9212C2.81186 10.4953 2.98482 10.0791 3.17559 9.67226C3.61618 8.73435 4.15131 7.84945 4.76857 7.0301V7.02979C4.83335 6.94378 4.89937 6.8587 4.9657 6.77455C4.96601 6.77377 4.96678 6.77346 4.96678 6.773C5.30524 6.34372 5.6668 5.9335 6.04958 5.54405V5.69081L6.08941 5.65098L7.59189 9.67226L7.69929 9.95958L7.72207 10.0211L7.75229 10.1015L9.17758 13.9164L9.35456 14.3908L10.2953 16.9082V2.51849C10.747 2.30308 11.2115 2.11044 11.6869 1.94168C12.6005 1.61608 13.5547 1.3768 14.54 1.23438V30.7725C13.5545 30.6302 12.6003 30.3909 11.6869 30.0652H11.6866C11.211 29.8964 10.747 29.7038 10.2953 29.4883L9.15806 26.6483L9.14163 26.6074L7.45877 22.4043L7.42529 22.3212L7.00376 21.2679L6.14644 19.1272L6.04958 18.8895V26.3165L4.96678 25.2345C4.89968 25.1495 4.83366 25.0638 4.76857 24.9774C4.16665 24.1785 3.64253 23.317 3.20906 22.4048V22.4045C3.00481 21.9757 2.82039 21.5358 2.65751 21.0858C2.31874 20.1505 2.07078 19.172 1.92433 18.1603C1.87024 17.787 1.83041 17.4087 1.80469 17.0269V17.0267Z" fill="#893DF6"/>
<path d="M21.1621 1.86013L25.1544 10.154L27.0074 5.57145C27.3397 5.79926 28.1189 6.78505 28.6664 7.56736C29.3725 8.57594 29.8633 9.59923 29.8633 9.59923L27.5525 15.1363L30.3987 21.0664C29.7774 22.9154 28.3038 24.9581 28.3038 24.9581L25.6528 19.6893L21.3879 30.0616C20.5938 30.4092 18.5352 30.769 18.5352 30.769V26.4968L23.2402 14.8804L18.5352 5.50264V1.23047L19.8447 1.49733L21.1623 1.85997L21.1621 1.86013Z" fill="#4ACA7D"/>
<path d="M19.9685 14.9331L17.0352 9.06641V21.8664L19.9685 14.9331Z" fill="#FFB434" stroke="#FFB434"/>
</g>
<defs>
<clipPath id="clip0_7617_4208">
<rect width="32" height="32" fill="white" transform="translate(0.5)"/>
</clipPath>
</defs>
</svg>
